SplineFontDB: 3.0
FontName: FiraMath-ExtraBold
FullName: Fira Math ExtraBold
FamilyName: Fira Math
Weight: ExtraBold
Copyright: 
Version: 
ItalicAngle: 0
UnderlinePosition: -100
UnderlineWidth: 50
Ascent: 800
Descent: 200
InvalidEm: 0
LayerCount: 2
Layer: 0 0 "Back" 1
Layer: 1 0 "Fore" 0
XUID: [1021 620 891379711 14128]
OS2Version: 0
OS2_WeightWidthSlopeOnly: 0
OS2_UseTypoMetrics: 1
CreationTime: 1542519027
OS2TypoAscent: 0
OS2TypoAOffset: 1
OS2TypoDescent: 0
OS2TypoDOffset: 1
OS2TypoLinegap: 0
OS2WinAscent: 0
OS2WinAOffset: 1
OS2WinDescent: 0
OS2WinDOffset: 1
HheadAscent: 0
HheadAOffset: 1
HheadDescent: 0
HheadDOffset: 1
OS2Vendor: 'PfEd'
DEI: 91125
MATH:ScriptPercentScaleDown: 80
MATH:ScriptScriptPercentScaleDown: 60
MATH:DelimitedSubFormulaMinHeight: 1500
MATH:DisplayOperatorMinHeight: 1500
MATH:MathLeading: 150 
MATH:AxisHeight: 280 
MATH:AccentBaseHeight: 527 
MATH:FlattenedAccentBaseHeight: 689 
MATH:SubscriptShiftDown: 350 
MATH:SubscriptTopMax: 527 
MATH:SubscriptBaselineDropMin: 250 
MATH:SuperscriptShiftUp: 400 
MATH:SuperscriptShiftUpCramped: 270 
MATH:SuperscriptBottomMin: 130 
MATH:SuperscriptBaselineDropMax: 360 
MATH:SubSuperscriptGapMin: 200 
MATH:SuperscriptBottomMaxWithSubscript: 527 
MATH:SpaceAfterScript: 41 
MATH:UpperLimitGapMin: 150 
MATH:UpperLimitBaselineRiseMin: 150 
MATH:LowerLimitGapMin: 150 
MATH:LowerLimitBaselineDropMin: 600 
MATH:StackTopShiftUp: 450 
MATH:StackTopDisplayStyleShiftUp: 580 
MATH:StackBottomShiftDown: 480 
MATH:StackBottomDisplayStyleShiftDown: 700 
MATH:StackGapMin: 200 
MATH:StackDisplayStyleGapMin: 500 
MATH:StretchStackTopShiftUp: 300 
MATH:StretchStackBottomShiftDown: 600 
MATH:StretchStackGapAboveMin: 150 
MATH:StretchStackGapBelowMin: 150 
MATH:FractionNumeratorShiftUp: 450 
MATH:FractionNumeratorDisplayStyleShiftUp: 580 
MATH:FractionDenominatorShiftDown: 480 
MATH:FractionDenominatorDisplayStyleShiftDown: 700 
MATH:FractionNumeratorGapMin: 80 
MATH:FractionNumeratorDisplayStyleGapMin: 200 

StartChar: uni0021
Encoding: 33 33 1
Width: 240
Flags: W
LayerCount: 2
Fore
SplineSet
214 695 m 1
 191 262 l 1
 49 262 l 1
 26 695 l 1
 214 695 l 1
120 175 m 0
 174 175 217 131 217 78 c 0
 217 25 174 -18 120 -18 c 0
 66 -18 23 25 23 78 c 0
 23 131 66 175 120 175 c 0
EndSplineSet
EndChar

StartChar: uni0022
Encoding: 34 34 2
Width: 452
Flags: W
LayerCount: 2
Fore
SplineSet
64 410 m 1
 44 695 l 1
 200 695 l 1
 180 410 l 1
 64 410 l 1
272 410 m 1
 251 695 l 1
 408 695 l 1
 387 410 l 1
 272 410 l 1
EndSplineSet
EndChar

StartChar: uni0023
Encoding: 35 35 3
Width: 568
Flags: W
LayerCount: 2
Fore
SplineSet
553 438 m 1
 486 438 l 1
 461 252 l 1
 516 252 l 1
 516 137 l 1
 446 137 l 1
 428 0 l 1
 281 0 l 1
 299 137 l 1
 215 137 l 1
 197 0 l 1
 50 0 l 1
 68 137 l 1
 15 137 l 1
 15 252 l 1
 83 252 l 1
 108 438 l 1
 52 438 l 1
 52 554 l 1
 124 554 l 1
 140 678 l 1
 286 678 l 1
 270 554 l 1
 355 554 l 1
 371 678 l 1
 518 678 l 1
 502 554 l 1
 553 554 l 1
 553 438 l 1
314 252 m 1
 339 438 l 1
 254 438 l 1
 230 252 l 1
 314 252 l 1
EndSplineSet
EndChar

StartChar: uni0024
Encoding: 36 36 4
Width: 555
Flags: W
LayerCount: 2
Fore
SplineSet
535 204 m 0
 535 101 467 23 349 -2 c 1
 349 -163 l 1
 224 -163 l 1
 224 -8 l 1
 125 0 53 41 5 88 c 1
 93 184 l 1
 140 143 194 119 257 119 c 0
 319 119 351 147 351 189 c 0
 351 233 328 253 237 281 c 0
 83 329 33 394 33 491 c 0
 33 595 111 666 224 684 c 1
 224 832 l 1
 349 832 l 1
 349 683 l 1
 418 672 473 644 517 600 c 1
 437 507 l 1
 393 543 347 561 294 561 c 0
 243 561 214 541 214 505 c 0
 214 467 239 453 338 421 c 0
 468 380 535 324 535 204 c 0
EndSplineSet
EndChar

StartChar: uni0025
Encoding: 37 37 5
Width: 869
Flags: W
LayerCount: 2
Fore
SplineSet
614 722 m 1
 722 655 l 1
 258 -42 l 1
 151 25 l 1
 614 722 l 1
207 693 m 0
 309 693 389 622 389 510 c 0
 389 398 309 327 207 327 c 0
 106 327 25 398 25 510 c 0
 25 622 106 693 207 693 c 0
207 589 m 0
 159 589 147 549 147 510 c 0
 147 471 159 431 207 431 c 0
 255 431 266 471 266 510 c 0
 266 549 255 589 207 589 c 0
662 347 m 0
 764 347 844 276 844 164 c 0
 844 52 764 -18 662 -18 c 0
 561 -18 479 52 479 164 c 0
 479 276 561 347 662 347 c 0
662 243 m 0
 614 243 602 204 602 164 c 0
 602 125 614 86 662 86 c 0
 710 86 721 125 721 164 c 0
 721 203 710 243 662 243 c 0
EndSplineSet
EndChar

StartChar: uni0026
Encoding: 38 38 6
Width: 770
Flags: W
LayerCount: 2
Fore
SplineSet
316 713 m 0
 459 713 540 642 540 551 c 0
 540 467 488 412 410 360 c 1
 533 244 l 1
 550 282 565 327 577 380 c 1
 723 338 l 1
 697 264 666 204 630 155 c 1
 754 48 l 1
 599 -18 l 1
 526 51 l 1
 461 3 388 -18 308 -18 c 0
 155 -18 53 59 53 178 c 0
 53 260 96 313 188 372 c 1
 115 443 92 482 92 543 c 0
 92 629 162 713 316 713 c 0
318 601 m 0
 284 601 262 578 262 543 c 0
 262 513 273 493 313 452 c 1
 353 481 371 508 371 546 c 0
 371 579 352 601 318 601 c 0
289 277 m 1
 255 251 241 223 241 189 c 0
 241 139 278 106 340 106 c 0
 378 106 410 115 439 134 c 1
 289 277 l 1
EndSplineSet
EndChar

StartChar: uni0027
Encoding: 39 39 7
Width: 244
Flags: W
LayerCount: 2
Fore
SplineSet
64 410 m 1
 44 695 l 1
 200 695 l 1
 180 410 l 1
 64 410 l 1
EndSplineSet
EndChar

StartChar: uni0028
Encoding: 40 40 8
Width: 325
Flags: W
LayerCount: 2
Fore
SplineSet
207 863 m 1
 321 786 l 1
 228 654 190 526 190 350 c 0
 190 174 228 46 321 -86 c 1
 207 -163 l 1
 106 -25 12 111 12 350 c 0
 12 589 106 725 207 863 c 1
EndSplineSet
EndChar

StartChar: uni0029
Encoding: 41 41 9
Width: 325
Flags: W
LayerCount: 2
Fore
SplineSet
117 863 m 1
 219 725 313 589 313 350 c 0
 313 111 219 -25 117 -163 c 1
 3 -86 l 1
 97 46 134 174 134 350 c 0
 134 526 97 654 3 786 c 1
 117 863 l 1
EndSplineSet
EndChar

StartChar: uni002A
Encoding: 42 42 10
Width: 452
Flags: W
LayerCount: 2
Fore
SplineSet
448 528 m 1
 310 507 l 1
 411 410 l 1
 289 321 l 1
 226 446 l 1
 165 320 l 1
 43 409 l 1
 142 507 l 1
 4 527 l 1
 50 667 l 1
 174 603 l 1
 151 743 l 1
 301 743 l 1
 278 602 l 1
 402 668 l 1
 448 528 l 1
EndSplineSet
EndChar

StartChar: uni002B
Encoding: 43 43 11
Width: 540
Flags: W
LayerCount: 2
Fore
SplineSet
343 558 m 1
 343 400 l 1
 496 400 l 1
 496 264 l 1
 343 264 l 1
 343 106 l 1
 197 106 l 1
 197 264 l 1
 44 264 l 1
 44 400 l 1
 197 400 l 1
 197 558 l 1
 343 558 l 1
EndSplineSet
EndChar

StartChar: uni002C
Encoding: 44 44 12
Width: 240
Flags: W
LayerCount: 2
Fore
SplineSet
120 175 m 0
 175 175 217 133 217 78 c 0
 217 46 205 17 181 -38 c 2
 118 -181 l 1
 23 -181 l 1
 66 -1 l 1
 38 17 23 45 23 79 c 0
 23 133 65 175 120 175 c 0
EndSplineSet
EndChar

StartChar: uni002D
Encoding: 45 45 13
Width: 409
Flags: W
LayerCount: 2
Fore
SplineSet
40 245 m 1
 40 381 l 1
 369 381 l 1
 369 245 l 1
 40 245 l 1
EndSplineSet
EndChar

StartChar: uni002E
Encoding: 46 46 14
Width: 240
Flags: W
LayerCount: 2
Fore
SplineSet
120 175 m 0
 174 175 217 131 217 78 c 0
 217 25 174 -18 120 -18 c 0
 66 -18 23 25 23 78 c 0
 23 131 66 175 120 175 c 0
EndSplineSet
EndChar

StartChar: uni002F
Encoding: 47 47 15
Width: 520
Flags: W
LayerCount: 2
Fore
SplineSet
300 819 m 1
 456 783 l 1
 221 -115 l 1
 64 -79 l 1
 300 819 l 1
EndSplineSet
EndChar

StartChar: uni0030
Encoding: 48 48 16
Width: 594
Flags: W
LayerCount: 2
Fore
SplineSet
297 693 m 0
 468 693 561 566 561 338 c 0
 561 110 468 -18 297 -18 c 0
 126 -18 32 110 32 338 c 0
 32 567 126 693 297 693 c 0
297 563 m 0
 236 563 214 511 214 338 c 0
 214 164 236 112 297 112 c 0
 357 112 379 159 379 338 c 0
 379 518 357 563 297 563 c 0
EndSplineSet
EndChar

StartChar: uni0031
Encoding: 49 49 17
Width: 473
Flags: W
LayerCount: 2
Fore
SplineSet
399 678 m 1
 399 0 l 1
 226 0 l 1
 226 507 l 1
 84 420 l 1
 7 537 l 1
 241 678 l 1
 399 678 l 1
EndSplineSet
EndChar

StartChar: uni0032
Encoding: 50 50 18
Width: 523
Flags: W
LayerCount: 2
Fore
SplineSet
241 693 m 0
 400 693 483 602 483 497 c 0
 483 398 441 323 228 135 c 1
 498 135 l 1
 479 0 l 1
 26 0 l 1
 26 124 l 1
 250 341 301 402 301 478 c 0
 301 528 271 558 222 558 c 0
 175 558 141 536 104 489 c 1
 1 572 l 1
 55 644 135 693 241 693 c 0
EndSplineSet
EndChar

StartChar: uni0033
Encoding: 51 51 19
Width: 526
Flags: W
LayerCount: 2
Fore
SplineSet
243 693 m 0
 395 693 477 618 477 521 c 0
 477 439 429 384 343 358 c 1
 427 349 499 300 499 190 c 0
 499 78 408 -18 232 -18 c 0
 123 -18 44 23 -9 88 c 1
 85 179 l 1
 130 135 169 116 220 116 c 0
 276 116 317 147 317 204 c 0
 317 267 282 294 213 294 c 2
 155 294 l 1
 175 414 l 1
 215 414 l 2
 273 414 305 444 305 492 c 0
 305 538 272 563 222 563 c 0
 173 563 130 542 92 505 c 1
 4 598 l 1
 68 660 148 693 243 693 c 0
EndSplineSet
EndChar

StartChar: uni0034
Encoding: 52 52 20
Width: 575
Flags: W
LayerCount: 2
Fore
SplineSet
557 272 m 1
 557 140 l 1
 484 140 l 1
 484 0 l 1
 310 0 l 1
 309 140 l 1
 24 140 l 1
 24 257 l 1
 213 697 l 1
 365 642 l 1
 207 272 l 1
 311 272 l 1
 331 426 l 1
 484 426 l 1
 484 272 l 1
 557 272 l 1
EndSplineSet
EndChar

StartChar: uni0035
Encoding: 53 53 21
Width: 546
Flags: W
LayerCount: 2
Fore
SplineSet
484 678 m 1
 465 552 l 1
 225 552 l 1
 225 427 l 1
 258 442 292 449 322 449 c 0
 433 449 518 368 518 226 c 0
 518 80 410 -18 242 -18 c 0
 134 -18 60 27 9 89 c 1
 108 180 l 1
 140 139 181 114 234 114 c 0
 298 114 336 152 336 224 c 0
 336 302 301 329 249 329 c 0
 224 329 202 323 172 305 c 1
 54 305 l 1
 54 678 l 1
 484 678 l 1
EndSplineSet
EndChar

StartChar: uni0036
Encoding: 54 54 22
Width: 573
Flags: W
LayerCount: 2
Fore
SplineSet
357 459 m 0
 471 459 553 376 553 232 c 0
 553 97 460 -18 299 -18 c 0
 114 -18 32 112 32 308 c 0
 32 539 149 693 340 693 c 0
 406 693 460 674 498 648 c 1
 434 543 l 1
 407 559 380 569 344 569 c 0
 276 569 229 513 219 405 c 1
 260 443 308 459 357 459 c 0
300 107 m 0
 352 107 375 156 375 230 c 0
 375 312 352 339 303 339 c 0
 276 339 245 325 219 298 c 1
 219 158 239 107 300 107 c 0
EndSplineSet
EndChar

StartChar: uni0037
Encoding: 55 55 23
Width: 475
Flags: W
LayerCount: 2
Fore
SplineSet
461 678 m 1
 461 559 l 1
 213 -18 l 1
 52 36 l 1
 275 545 l 1
 9 545 l 1
 9 678 l 1
 461 678 l 1
EndSplineSet
EndChar

StartChar: uni0038
Encoding: 56 56 24
Width: 590
Flags: W
LayerCount: 2
Fore
SplineSet
432 364 m 1
 525 318 565 259 565 184 c 0
 565 76 468 -18 291 -18 c 0
 121 -18 25 73 25 181 c 0
 25 259 71 314 148 347 c 1
 78 391 51 449 51 509 c 0
 51 616 150 693 295 693 c 0
 440 693 539 627 539 517 c 0
 539 462 507 405 432 364 c 1
296 575 m 0
 252 575 223 553 223 506 c 0
 223 466 244 440 292 419 c 2
 315 409 l 1
 358 441 367 472 367 508 c 0
 367 547 343 575 296 575 c 0
297 107 m 0
 359 107 388 143 388 186 c 0
 388 236 362 259 296 285 c 2
 261 298 l 1
 221 274 202 236 202 191 c 0
 202 141 239 107 297 107 c 0
EndSplineSet
EndChar

StartChar: uni0039
Encoding: 57 57 25
Width: 571
Flags: W
LayerCount: 2
Fore
SplineSet
283 693 m 0
 457 693 546 583 546 430 c 0
 546 155 407 25 105 -30 c 1
 70 93 l 1
 240 132 320 180 353 291 c 1
 318 253 278 232 216 232 c 0
 111 232 21 316 21 456 c 0
 21 598 134 693 283 693 c 0
273 354 m 0
 305 354 338 371 363 406 c 1
 364 527 344 569 281 569 c 0
 232 569 199 534 199 464 c 0
 199 378 233 354 273 354 c 0
EndSplineSet
EndChar

StartChar: uni003A
Encoding: 58 58 26
Width: 240
Flags: W
LayerCount: 2
Fore
SplineSet
120 514 m 0
 174 514 217 470 217 417 c 0
 217 364 174 320 120 320 c 0
 66 320 23 364 23 417 c 0
 23 470 66 514 120 514 c 0
120 175 m 0
 174 175 217 131 217 78 c 0
 217 25 174 -18 120 -18 c 0
 66 -18 23 25 23 78 c 0
 23 131 66 175 120 175 c 0
EndSplineSet
EndChar

StartChar: uni003B
Encoding: 59 59 27
Width: 240
Flags: W
LayerCount: 2
Fore
SplineSet
120 514 m 0
 174 514 217 470 217 417 c 0
 217 364 174 320 120 320 c 0
 66 320 23 364 23 417 c 0
 23 470 66 514 120 514 c 0
120 175 m 0
 175 175 217 133 217 78 c 0
 217 46 205 17 181 -38 c 2
 118 -181 l 1
 23 -181 l 1
 66 -1 l 1
 38 17 23 45 23 79 c 0
 23 133 65 175 120 175 c 0
EndSplineSet
EndChar

StartChar: uni003C
Encoding: 60 60 28
Width: 524
Flags: W
LayerCount: 2
Fore
SplineSet
440 583 m 1
 495 462 l 1
 182 333 l 1
 495 210 l 1
 440 83 l 1
 30 256 l 1
 30 409 l 1
 440 583 l 1
EndSplineSet
EndChar

StartChar: uni003D
Encoding: 61 61 29
Width: 524
Flags: W
LayerCount: 2
Fore
SplineSet
44 371 m 1
 44 507 l 1
 480 507 l 1
 480 371 l 1
 44 371 l 1
44 156 m 1
 44 292 l 1
 480 292 l 1
 480 156 l 1
 44 156 l 1
EndSplineSet
EndChar

StartChar: uni003E
Encoding: 62 62 30
Width: 524
Flags: W
LayerCount: 2
Fore
SplineSet
85 583 m 1
 495 409 l 1
 495 256 l 1
 85 83 l 1
 30 210 l 1
 342 333 l 1
 30 462 l 1
 85 583 l 1
EndSplineSet
EndChar

StartChar: uni003F
Encoding: 63 63 31
Width: 488
Flags: W
LayerCount: 2
Fore
SplineSet
251 713 m 0
 403 713 478 634 478 543 c 0
 478 379 299 388 299 281 c 2
 299 262 l 1
 139 262 l 1
 139 287 l 2
 139 462 292 452 292 526 c 0
 292 557 270 574 232 574 c 0
 194 574 156 554 121 516 c 1
 10 604 l 1
 66 670 142 713 251 713 c 0
220 175 m 0
 274 175 317 131 317 78 c 0
 317 25 274 -18 220 -18 c 0
 167 -18 124 25 124 78 c 0
 124 131 167 175 220 175 c 0
EndSplineSet
EndChar

StartChar: uni0040
Encoding: 64 64 32
Width: 1020
Flags: W
LayerCount: 2
Fore
SplineSet
528 506 m 0
 583 506 651 489 706 459 c 1
 706 217 l 2
 706 134 714 109 746 109 c 0
 788 109 822 153 822 316 c 0
 822 485 732 586 526 586 c 0
 314 586 200 447 200 243 c 0
 200 32 312 -96 528 -96 c 0
 595 -96 675 -80 725 -61 c 1
 767 -181 l 1
 705 -206 609 -224 527 -224 c 0
 230 -224 42 -43 42 242 c 0
 42 518 247 713 527 713 c 0
 813 713 978 522 978 318 c 0
 978 132 886 3 754 3 c 0
 676 3 629 54 619 104 c 1
 594 46 546 7 476 7 c 0
 342 7 290 105 290 233 c 0
 290 395 372 506 528 506 c 0
499 116 m 0
 527 116 546 134 556 155 c 1
 556 388 l 1
 543 394 533 396 519 396 c 0
 479 396 448 361 448 233 c 0
 448 143 463 116 499 116 c 0
EndSplineSet
EndChar

StartChar: uni0041
Encoding: 65 65 33
Width: 596
Flags: W
LayerCount: 2
Fore
SplineSet
419 0 m 1
 388 142 l 1
 204 142 l 1
 173 0 l 1
 -19 0 l 1
 187 695 l 1
 409 695 l 1
 615 0 l 1
 419 0 l 1
233 274 m 1
 359 274 l 1
 296 563 l 1
 233 274 l 1
EndSplineSet
EndChar

StartChar: uni0042
Encoding: 66 66 34
Width: 619
Flags: W
LayerCount: 2
Fore
SplineSet
443 368 m 1
 520 352 599 315 599 204 c 0
 599 43 466 0 288 0 c 2
 54 0 l 1
 54 695 l 1
 261 695 l 2
 451 695 570 649 570 516 c 0
 570 427 506 384 443 368 c 1
278 566 m 2
 239 566 l 1
 239 421 l 1
 287 421 l 2
 352 421 382 444 382 497 c 0
 382 547 351 566 278 566 c 2
289 132 m 2
 359 132 408 146 408 215 c 0
 408 278 367 302 299 302 c 2
 239 302 l 1
 239 132 l 1
 289 132 l 2
EndSplineSet
EndChar

StartChar: uni0043
Encoding: 67 67 35
Width: 579
Flags: W
LayerCount: 2
Fore
SplineSet
350 713 m 0
 441 713 509 684 568 634 c 1
 481 531 l 1
 443 560 406 578 359 578 c 0
 275 578 219 508 219 349 c 0
 219 192 274 122 361 122 c 0
 413 122 452 146 494 179 c 1
 576 75 l 1
 527 26 449 -18 353 -18 c 0
 156 -18 27 110 27 349 c 0
 27 581 162 713 350 713 c 0
EndSplineSet
EndChar

StartChar: uni0044
Encoding: 68 68 36
Width: 654
Flags: W
LayerCount: 2
Fore
SplineSet
262 695 m 2
 450 695 627 636 627 350 c 0
 627 72 461 0 276 0 c 2
 54 0 l 1
 54 695 l 1
 262 695 l 2
286 563 m 2
 239 563 l 1
 239 132 l 1
 287 132 l 2
 382 132 436 179 436 350 c 0
 436 523 378 563 286 563 c 2
EndSplineSet
EndChar

StartChar: uni0045
Encoding: 69 69 37
Width: 523
Flags: W
LayerCount: 2
Fore
SplineSet
495 695 m 1
 476 564 l 1
 239 564 l 1
 239 416 l 1
 446 416 l 1
 446 289 l 1
 239 289 l 1
 239 131 l 1
 492 131 l 1
 492 0 l 1
 54 0 l 1
 54 695 l 1
 495 695 l 1
EndSplineSet
EndChar

StartChar: uni0046
Encoding: 70 70 38
Width: 486
Flags: W
LayerCount: 2
Fore
SplineSet
54 0 m 1
 54 695 l 1
 481 695 l 1
 462 564 l 1
 239 564 l 1
 239 397 l 1
 435 397 l 1
 435 266 l 1
 239 266 l 1
 239 0 l 1
 54 0 l 1
EndSplineSet
EndChar

StartChar: uni0047
Encoding: 71 71 39
Width: 649
Flags: W
LayerCount: 2
Fore
SplineSet
368 713 m 0
 472 713 550 675 607 625 c 1
 516 530 l 1
 469 564 432 582 378 582 c 0
 281 582 218 510 218 347 c 0
 218 171 260 115 348 115 c 0
 379 115 405 121 430 134 c 1
 430 277 l 1
 351 277 l 1
 333 404 l 1
 609 404 l 1
 609 58 l 1
 536 10 440 -18 353 -18 c 0
 130 -18 27 111 27 348 c 0
 27 583 175 713 368 713 c 0
EndSplineSet
EndChar

StartChar: uni0048
Encoding: 72 72 40
Width: 661
Flags: W
LayerCount: 2
Fore
SplineSet
423 0 m 1
 423 289 l 1
 239 289 l 1
 239 0 l 1
 54 0 l 1
 54 695 l 1
 239 695 l 1
 239 432 l 1
 423 432 l 1
 423 695 l 1
 608 695 l 1
 608 0 l 1
 423 0 l 1
EndSplineSet
EndChar

StartChar: uni0049
Encoding: 73 73 41
Width: 293
Flags: W
LayerCount: 2
Fore
SplineSet
239 695 m 1
 239 0 l 1
 54 0 l 1
 54 695 l 1
 239 695 l 1
EndSplineSet
EndChar

StartChar: uni004A
Encoding: 74 74 42
Width: 321
Flags: W
LayerCount: 2
Fore
SplineSet
270 695 m 1
 270 108 l 2
 270 -76 153 -140 34 -179 c 1
 -15 -49 l 1
 74 -14 85 35 85 115 c 2
 85 695 l 1
 270 695 l 1
EndSplineSet
EndChar

StartChar: uni004B
Encoding: 75 75 43
Width: 646
Flags: W
LayerCount: 2
Fore
SplineSet
239 695 m 1
 239 0 l 1
 54 0 l 1
 54 695 l 1
 239 695 l 1
644 695 m 1
 435 385 l 1
 662 0 l 1
 450 0 l 1
 245 370 l 1
 451 695 l 1
 644 695 l 1
EndSplineSet
EndChar

StartChar: uni004C
Encoding: 76 76 44
Width: 517
Flags: W
LayerCount: 2
Fore
SplineSet
239 695 m 1
 239 144 l 1
 506 144 l 1
 486 0 l 1
 54 0 l 1
 54 695 l 1
 239 695 l 1
EndSplineSet
EndChar

StartChar: uni004D
Encoding: 77 77 45
Width: 789
Flags: W
LayerCount: 2
Fore
SplineSet
713 695 m 1
 765 0 l 1
 583 0 l 1
 574 259 l 2
 571 352 569 447 577 543 c 1
 482 72 l 1
 307 72 l 1
 206 543 l 1
 215 434 217 354 214 259 c 2
 206 0 l 1
 24 0 l 1
 75 695 l 1
 305 695 l 1
 398 234 l 1
 482 695 l 1
 713 695 l 1
EndSplineSet
EndChar

StartChar: uni004E
Encoding: 78 78 46
Width: 657
Flags: W
LayerCount: 2
Fore
SplineSet
603 695 m 1
 603 0 l 1
 370 0 l 1
 194 523 l 1
 203 457 218 364 218 235 c 2
 218 0 l 1
 54 0 l 1
 54 695 l 1
 282 695 l 1
 464 170 l 1
 453 239 439 325 439 443 c 2
 439 695 l 1
 603 695 l 1
EndSplineSet
EndChar

StartChar: uni004F
Encoding: 79 79 47
Width: 690
Flags: W
LayerCount: 2
Fore
SplineSet
345 713 m 0
 547 713 664 579 664 348 c 0
 664 122 547 -18 345 -18 c 0
 143 -18 27 117 27 348 c 0
 27 574 143 713 345 713 c 0
345 580 m 0
 260 580 219 516 219 348 c 0
 219 180 261 115 345 115 c 0
 432 115 471 180 471 348 c 0
 471 516 431 580 345 580 c 0
EndSplineSet
EndChar

StartChar: uni0050
Encoding: 80 80 48
Width: 605
Flags: W
LayerCount: 2
Fore
SplineSet
292 695 m 2
 475 695 587 619 587 465 c 0
 587 303 473 224 310 224 c 2
 239 224 l 1
 239 0 l 1
 54 0 l 1
 54 695 l 1
 292 695 l 2
293 356 m 2
 360 356 398 387 398 464 c 0
 398 530 363 565 289 565 c 2
 239 565 l 1
 239 356 l 1
 293 356 l 2
EndSplineSet
EndChar

StartChar: uni0051
Encoding: 81 81 49
Width: 690
Flags: W
LayerCount: 2
Fore
SplineSet
499 46 m 1
 593 46 653 26 710 -17 c 1
 600 -160 l 1
 540 -87 463 -15 333 -15 c 0
 143 -15 27 117 27 348 c 0
 27 574 143 713 345 713 c 0
 547 713 664 579 664 348 c 0
 664 181 581 93 499 46 c 1
219 348 m 0
 219 180 261 115 345 115 c 0
 432 115 471 180 471 348 c 0
 471 516 431 580 345 580 c 0
 260 580 219 516 219 348 c 0
EndSplineSet
EndChar

StartChar: uni0052
Encoding: 82 82 50
Width: 620
Flags: W
LayerCount: 2
Fore
SplineSet
426 0 m 1
 290 256 l 1
 239 256 l 1
 239 0 l 1
 54 0 l 1
 54 695 l 1
 295 695 l 2
 489 695 587 627 587 479 c 0
 587 389 546 336 459 290 c 1
 632 0 l 1
 426 0 l 1
239 566 m 1
 239 382 l 1
 301 382 l 2
 364 382 397 412 397 479 c 0
 397 539 361 566 291 566 c 2
 239 566 l 1
EndSplineSet
EndChar

StartChar: uni0053
Encoding: 83 83 51
Width: 580
Flags: W
LayerCount: 2
Fore
SplineSet
294 713 m 0
 402 713 480 680 542 621 c 1
 459 523 l 1
 411 561 363 580 308 580 c 0
 254 580 224 559 224 521 c 0
 224 481 250 467 354 433 c 0
 491 390 560 331 560 205 c 0
 560 74 454 -18 276 -18 c 0
 149 -18 62 28 5 83 c 1
 96 184 l 1
 147 142 202 116 269 116 c 0
 333 116 368 146 368 191 c 0
 368 237 344 257 248 286 c 0
 86 337 34 404 34 506 c 0
 34 633 145 713 294 713 c 0
EndSplineSet
EndChar

StartChar: uni0054
Encoding: 84 84 52
Width: 547
Flags: W
LayerCount: 2
Fore
SplineSet
549 695 m 1
 530 554 l 1
 366 554 l 1
 366 0 l 1
 181 0 l 1
 181 554 l 1
 7 554 l 1
 7 695 l 1
 549 695 l 1
EndSplineSet
EndChar

StartChar: uni0055
Encoding: 85 85 53
Width: 647
Flags: W
LayerCount: 2
Fore
SplineSet
604 695 m 1
 604 233 l 2
 604 92 512 -18 324 -18 c 0
 135 -18 44 84 44 233 c 2
 44 695 l 1
 229 695 l 1
 229 239 l 2
 229 157 256 117 324 117 c 0
 391 117 418 157 418 239 c 2
 418 695 l 1
 604 695 l 1
EndSplineSet
EndChar

StartChar: uni0056
Encoding: 86 86 54
Width: 575
Flags: W
LayerCount: 2
Fore
SplineSet
594 695 m 1
 410 0 l 1
 174 0 l 1
 -19 695 l 1
 176 695 l 1
 295 135 l 1
 405 695 l 1
 594 695 l 1
EndSplineSet
EndChar

StartChar: uni0057
Encoding: 87 87 55
Width: 853
Flags: W
LayerCount: 2
Fore
SplineSet
848 695 m 1
 740 0 l 1
 499 0 l 1
 425 515 l 1
 345 0 l 1
 110 0 l 1
 5 695 l 1
 189 695 l 1
 246 137 l 1
 331 695 l 1
 525 695 l 1
 601 137 l 1
 671 695 l 1
 848 695 l 1
EndSplineSet
EndChar

StartChar: uni0058
Encoding: 88 88 56
Width: 594
Flags: W
LayerCount: 2
Fore
SplineSet
404 374 m 1
 601 0 l 1
 400 0 l 1
 292 251 l 1
 189 0 l 1
 -7 0 l 1
 183 369 l 1
 7 695 l 1
 206 695 l 1
 294 484 l 1
 390 695 l 1
 585 695 l 1
 404 374 l 1
EndSplineSet
EndChar

StartChar: uni0059
Encoding: 89 89 57
Width: 607
Flags: W
LayerCount: 2
Fore
SplineSet
618 695 m 1
 396 259 l 1
 396 0 l 1
 211 0 l 1
 211 258 l 1
 -11 695 l 1
 191 695 l 1
 306 400 l 1
 422 695 l 1
 618 695 l 1
EndSplineSet
EndChar

StartChar: uni005A
Encoding: 90 90 58
Width: 550
Flags: W
LayerCount: 2
Fore
SplineSet
522 695 m 1
 522 556 l 1
 233 146 l 1
 530 146 l 1
 511 0 l 1
 14 0 l 1
 14 137 l 1
 311 553 l 1
 43 553 l 1
 43 695 l 1
 522 695 l 1
EndSplineSet
EndChar

StartChar: uni005B
Encoding: 91 91 59
Width: 324
Flags: W
LayerCount: 2
Fore
SplineSet
307 825 m 1
 307 694 l 1
 193 694 l 1
 193 5 l 1
 307 5 l 1
 307 -125 l 1
 24 -125 l 1
 24 825 l 1
 307 825 l 1
EndSplineSet
EndChar

StartChar: uni005C
Encoding: 92 92 60
Width: 520
Flags: W
LayerCount: 2
Fore
SplineSet
220 819 m 1
 456 -79 l 1
 299 -115 l 1
 64 783 l 1
 220 819 l 1
EndSplineSet
EndChar

StartChar: uni005D
Encoding: 93 93 61
Width: 324
Flags: W
LayerCount: 2
Fore
SplineSet
300 825 m 1
 300 -125 l 1
 18 -125 l 1
 18 5 l 1
 131 5 l 1
 131 695 l 1
 18 695 l 1
 18 825 l 1
 300 825 l 1
EndSplineSet
EndChar

StartChar: uni005E
Encoding: 94 94 62
Width: 564
Flags: W
LayerCount: 2
Fore
SplineSet
364 846 m 1
 553 527 l 1
 381 527 l 1
 281 715 l 1
 186 527 l 1
 12 527 l 1
 201 846 l 1
 364 846 l 1
EndSplineSet
EndChar

StartChar: uni005F
Encoding: 95 95 63
Width: 520
Flags: W
LayerCount: 2
Fore
SplineSet
7 -179 m 1
 7 -43 l 1
 513 -43 l 1
 513 -179 l 1
 7 -179 l 1
EndSplineSet
EndChar

StartChar: uni0060
Encoding: 96 96 64
Width: 352
Flags: W
LayerCount: 2
Fore
SplineSet
98 846 m 1
 322 707 l 1
 274 618 l 1
 30 714 l 1
 98 846 l 1
EndSplineSet
EndChar

StartChar: uni0061
Encoding: 97 97 65
Width: 549
Flags: W
LayerCount: 2
Fore
SplineSet
493 164 m 2
 493 124 503 109 527 100 c 1
 491 -15 l 1
 425 -10 382 9 355 60 c 1
 316 2 256 -18 194 -18 c 0
 88 -18 20 51 20 149 c 0
 20 266 109 331 273 331 c 2
 319 331 l 1
 319 349 l 2
 319 407 297 423 236 423 c 0
 203 423 150 413 97 395 c 1
 58 510 l 1
 124 537 203 551 263 551 c 0
 425 551 493 486 493 358 c 2
 493 164 l 2
248 107 m 0
 278 107 303 124 319 149 c 1
 319 236 l 1
 289 236 l 2
 225 236 195 213 195 166 c 0
 195 130 214 107 248 107 c 0
EndSplineSet
EndChar

StartChar: uni0062
Encoding: 98 98 66
Width: 592
Flags: W
LayerCount: 2
Fore
SplineSet
371 551 m 0
 500 551 568 444 568 266 c 0
 568 102 489 -18 355 -18 c 0
 296 -18 249 7 217 49 c 1
 210 0 l 1
 51 0 l 1
 51 743 l 1
 229 761 l 1
 229 481 l 1
 259 523 313 551 371 551 c 0
302 110 m 0
 351 110 385 148 385 266 c 0
 385 395 353 422 309 422 c 0
 280 422 251 403 229 366 c 1
 229 155 l 1
 247 125 272 110 302 110 c 0
EndSplineSet
EndChar

StartChar: uni0063
Encoding: 99 99 67
Width: 479
Flags: W
LayerCount: 2
Fore
SplineSet
293 551 m 0
 372 551 431 527 481 483 c 1
 406 379 l 1
 374 405 343 416 309 416 c 0
 246 416 210 376 210 263 c 0
 210 150 250 120 307 120 c 0
 342 120 367 132 404 155 c 1
 481 46 l 1
 433 6 374 -18 298 -18 c 0
 128 -18 25 95 25 262 c 0
 25 431 129 551 293 551 c 0
EndSplineSet
EndChar

StartChar: uni0064
Encoding: 100 100 68
Width: 595
Flags: W
LayerCount: 2
Fore
SplineSet
365 761 m 1
 543 743 l 1
 543 0 l 1
 385 0 l 1
 378 59 l 1
 349 18 301 -18 227 -18 c 0
 90 -18 25 95 25 268 c 0
 25 433 112 551 245 551 c 0
 294 551 335 534 365 505 c 1
 365 761 l 1
285 110 m 0
 317 110 343 127 365 163 c 1
 365 386 l 1
 344 409 324 423 295 423 c 0
 245 423 208 381 208 267 c 0
 208 137 241 110 285 110 c 0
EndSplineSet
EndChar

StartChar: uni0065
Encoding: 101 101 69
Width: 557
Flags: W
LayerCount: 2
Fore
SplineSet
535 275 m 0
 535 258 533 233 532 215 c 1
 205 215 l 1
 216 129 257 109 319 109 c 0
 360 109 397 124 443 156 c 1
 515 58 l 1
 463 15 391 -18 302 -18 c 0
 115 -18 25 99 25 264 c 0
 25 422 112 551 282 551 c 0
 437 551 535 451 535 275 c 0
360 319 m 1
 360 325 l 2
 359 389 342 436 285 436 c 0
 238 436 212 407 205 319 c 1
 360 319 l 1
EndSplineSet
EndChar

StartChar: uni0066
Encoding: 102 102 70
Width: 363
Flags: W
LayerCount: 2
Fore
SplineSet
314 632 m 0
 272 632 254 614 254 563 c 2
 254 533 l 1
 379 533 l 1
 359 411 l 1
 254 411 l 1
 254 0 l 1
 76 0 l 1
 76 411 l 1
 0 411 l 1
 0 533 l 1
 76 533 l 1
 76 571 l 2
 76 677 147 761 291 761 c 0
 347 761 404 746 442 726 c 1
 394 612 l 1
 365 627 337 632 314 632 c 0
EndSplineSet
EndChar

StartChar: uni0067
Encoding: 103 103 71
Width: 561
Flags: W
LayerCount: 2
Fore
SplineSet
521 627 m 1
 561 499 l 1
 525 484 476 476 408 476 c 1
 477 448 510 409 510 338 c 0
 510 236 422 161 280 161 c 0
 258 161 240 162 221 166 c 1
 212 160 206 151 206 141 c 0
 206 128 212 112 262 112 c 2
 340 112 l 2
 469 112 550 47 550 -44 c 0
 550 -155 451 -224 263 -224 c 0
 53 -224 1 -154 1 -50 c 1
 160 -50 l 1
 160 -93 178 -109 268 -109 c 0
 354 -109 371 -84 371 -57 c 0
 371 -32 353 -11 305 -11 c 2
 229 -11 l 2
 106 -11 57 37 57 95 c 0
 57 136 84 176 123 199 c 1
 52 237 25 285 25 353 c 0
 25 478 122 551 267 551 c 1
 382 547 455 585 521 627 c 1
272 435 m 0
 230 435 202 407 202 357 c 0
 202 302 231 275 273 275 c 0
 319 275 343 303 343 359 c 0
 343 412 320 435 272 435 c 0
EndSplineSet
EndChar

StartChar: uni0068
Encoding: 104 104 72
Width: 572
Flags: W
LayerCount: 2
Fore
SplineSet
381 551 m 0
 472 551 527 492 527 391 c 2
 527 0 l 1
 349 0 l 1
 349 359 l 2
 349 408 333 421 309 421 c 0
 281 421 255 400 229 360 c 1
 229 0 l 1
 51 0 l 1
 51 743 l 1
 229 761 l 1
 229 480 l 1
 273 528 320 551 381 551 c 0
EndSplineSet
EndChar

StartChar: uni0069
Encoding: 105 105 73
Width: 281
Flags: W
LayerCount: 2
Fore
SplineSet
140 820 m 0
 200 820 243 777 243 722 c 0
 243 667 200 624 140 624 c 0
 80 624 38 667 38 722 c 0
 38 777 80 820 140 820 c 0
229 533 m 1
 229 0 l 1
 51 0 l 1
 51 533 l 1
 229 533 l 1
EndSplineSet
EndChar

StartChar: uni006A
Encoding: 106 106 74
Width: 281
Flags: W
LayerCount: 2
Fore
SplineSet
140 820 m 0
 200 820 242 777 242 722 c 0
 242 667 200 624 140 624 c 0
 80 624 38 667 38 722 c 0
 38 777 80 820 140 820 c 0
230 533 m 1
 230 69 l 2
 230 -112 130 -180 2 -224 c 1
 -58 -95 l 1
 9 -64 52 -34 52 58 c 2
 52 533 l 1
 230 533 l 1
EndSplineSet
EndChar

StartChar: uni006B
Encoding: 107 107 75
Width: 563
Flags: W
LayerCount: 2
Fore
SplineSet
229 761 m 1
 229 0 l 1
 51 0 l 1
 51 743 l 1
 229 761 l 1
565 533 m 1
 414 299 l 1
 576 0 l 1
 377 0 l 1
 234 291 l 1
 386 533 l 1
 565 533 l 1
EndSplineSet
EndChar

StartChar: uni006C
Encoding: 108 108 76
Width: 301
Flags: W
LayerCount: 2
Fore
SplineSet
202 -18 m 0
 101 -18 45 40 45 145 c 2
 45 743 l 1
 223 761 l 1
 223 151 l 2
 223 132 231 122 248 122 c 0
 258 122 266 124 272 126 c 1
 305 0 l 1
 280 -11 243 -18 202 -18 c 0
EndSplineSet
EndChar

StartChar: uni006D
Encoding: 109 109 77
Width: 838
Flags: W
LayerCount: 2
Fore
SplineSet
656 551 m 0
 737 551 793 492 793 391 c 2
 793 0 l 1
 615 0 l 1
 615 359 l 2
 615 408 599 421 579 421 c 0
 553 421 531 400 511 360 c 1
 511 0 l 1
 333 0 l 1
 333 359 l 2
 333 408 317 421 297 421 c 0
 271 421 249 400 229 360 c 1
 229 0 l 1
 51 0 l 1
 51 533 l 1
 207 533 l 1
 219 474 l 1
 261 526 309 551 374 551 c 0
 430 551 475 523 496 471 c 1
 540 525 589 551 656 551 c 0
EndSplineSet
EndChar

StartChar: uni006E
Encoding: 110 110 78
Width: 572
Flags: W
LayerCount: 2
Fore
SplineSet
381 551 m 0
 472 551 527 493 527 391 c 2
 527 0 l 1
 349 0 l 1
 349 359 l 2
 349 408 333 421 309 421 c 0
 281 421 255 400 229 360 c 1
 229 0 l 1
 51 0 l 1
 51 533 l 1
 207 533 l 1
 220 473 l 1
 267 526 316 551 381 551 c 0
EndSplineSet
EndChar

StartChar: uni006F
Encoding: 111 111 79
Width: 584
Flags: W
LayerCount: 2
Fore
SplineSet
292 551 m 0
 457 551 559 448 559 266 c 0
 559 94 458 -18 292 -18 c 0
 127 -18 25 85 25 267 c 0
 25 439 126 551 292 551 c 0
292 422 m 0
 235 422 208 375 208 267 c 0
 208 155 235 111 292 111 c 0
 349 111 376 158 376 266 c 0
 376 377 349 422 292 422 c 0
EndSplineSet
EndChar

StartChar: uni0070
Encoding: 112 112 80
Width: 592
Flags: W
LayerCount: 2
Fore
SplineSet
369 551 m 0
 505 551 568 442 568 268 c 0
 568 103 486 -18 356 -18 c 0
 305 -18 261 0 229 37 c 1
 229 -206 l 1
 51 -224 l 1
 51 533 l 1
 209 533 l 1
 217 476 l 1
 261 532 319 551 369 551 c 0
299 110 m 0
 351 110 385 152 385 266 c 0
 385 396 354 422 310 422 c 0
 279 422 251 403 229 366 c 1
 229 153 l 1
 249 123 270 110 299 110 c 0
EndSplineSet
EndChar

StartChar: uni0071
Encoding: 113 113 81
Width: 595
Flags: W
LayerCount: 2
Fore
SplineSet
388 533 m 1
 543 533 l 1
 543 -224 l 1
 365 -206 l 1
 365 46 l 1
 335 9 292 -18 227 -18 c 0
 91 -18 25 95 25 268 c 0
 25 433 111 551 245 551 c 0
 296 551 341 533 380 492 c 1
 388 533 l 1
285 110 m 0
 317 110 343 127 365 163 c 1
 365 386 l 1
 344 409 324 423 295 423 c 0
 245 423 208 381 208 267 c 0
 208 137 241 110 285 110 c 0
EndSplineSet
EndChar

StartChar: uni0072
Encoding: 114 114 82
Width: 405
Flags: W
LayerCount: 2
Fore
SplineSet
358 549 m 0
 378 549 393 546 411 540 c 1
 383 368 l 1
 366 373 352 376 334 376 c 0
 270 376 245 328 229 253 c 1
 229 0 l 1
 51 0 l 1
 51 533 l 1
 207 533 l 1
 222 432 l 1
 244 503 298 549 358 549 c 0
EndSplineSet
EndChar

StartChar: uni0073
Encoding: 115 115 83
Width: 484
Flags: W
LayerCount: 2
Fore
SplineSet
253 551 m 0
 331 551 404 525 453 484 c 1
 389 386 l 1
 349 411 304 426 260 426 c 0
 222 426 205 413 205 394 c 0
 205 371 215 361 313 331 c 0
 416 301 473 257 473 161 c 0
 473 51 369 -18 229 -18 c 0
 136 -18 54 14 1 63 c 1
 86 158 l 1
 125 128 174 106 224 106 c 0
 266 106 291 120 291 148 c 0
 291 179 277 186 183 214 c 0
 81 244 28 300 28 383 c 0
 28 477 110 551 253 551 c 0
EndSplineSet
EndChar

StartChar: uni0074
Encoding: 116 116 84
Width: 393
Flags: W
LayerCount: 2
Fore
SplineSet
347 137 m 1
 406 26 l 1
 363 -4 303 -18 254 -18 c 0
 128 -18 69 53 69 186 c 2
 69 411 l 1
 0 411 l 1
 0 533 l 1
 69 533 l 1
 69 646 l 1
 247 667 l 1
 247 533 l 1
 368 533 l 1
 350 411 l 1
 247 411 l 1
 247 188 l 2
 247 138 264 122 293 122 c 0
 310 122 328 126 347 137 c 1
EndSplineSet
EndChar

StartChar: uni0075
Encoding: 117 117 85
Width: 566
Flags: W
LayerCount: 2
Fore
SplineSet
515 533 m 1
 515 0 l 1
 359 0 l 1
 352 63 l 1
 315 8 262 -18 193 -18 c 0
 92 -18 45 48 45 150 c 2
 45 533 l 1
 223 533 l 1
 223 173 l 2
 223 125 239 112 265 112 c 0
 290 112 316 130 337 165 c 1
 337 533 l 1
 515 533 l 1
EndSplineSet
EndChar

StartChar: uni0076
Encoding: 118 118 86
Width: 520
Flags: W
LayerCount: 2
Fore
SplineSet
530 533 m 1
 367 0 l 1
 156 0 l 1
 -10 533 l 1
 183 533 l 1
 263 131 l 1
 349 533 l 1
 530 533 l 1
EndSplineSet
EndChar

StartChar: uni0077
Encoding: 119 119 87
Width: 758
Flags: W
LayerCount: 2
Fore
SplineSet
759 533 m 1
 651 0 l 1
 443 0 l 1
 379 374 l 1
 316 0 l 1
 110 0 l 1
 0 533 l 1
 179 533 l 1
 223 135 l 1
 300 533 l 1
 469 533 l 1
 533 135 l 1
 588 533 l 1
 759 533 l 1
EndSplineSet
EndChar

StartChar: uni0078
Encoding: 120 120 88
Width: 520
Flags: W
LayerCount: 2
Fore
SplineSet
367 285 m 1
 535 0 l 1
 335 0 l 1
 254 191 l 1
 177 0 l 1
 -15 0 l 1
 152 280 l 1
 0 533 l 1
 198 533 l 1
 261 369 l 1
 320 533 l 1
 508 533 l 1
 367 285 l 1
EndSplineSet
EndChar

StartChar: uni0079
Encoding: 121 121 89
Width: 526
Flags: W
LayerCount: 2
Fore
SplineSet
536 533 m 1
 370 0 l 2
 327 -141 227 -218 55 -225 c 1
 36 -102 l 1
 139 -91 179 -64 207 0 c 1
 146 0 l 1
 -10 533 l 1
 179 533 l 1
 260 111 l 1
 353 533 l 1
 536 533 l 1
EndSplineSet
EndChar

StartChar: uni007A
Encoding: 122 122 90
Width: 460
Flags: W
LayerCount: 2
Fore
SplineSet
445 533 m 1
 445 408 l 1
 216 133 l 1
 452 133 l 1
 436 0 l 1
 9 0 l 1
 9 125 l 1
 241 401 l 1
 29 401 l 1
 29 533 l 1
 445 533 l 1
EndSplineSet
EndChar

StartChar: uni007B
Encoding: 123 123 91
Width: 324
Flags: W
LayerCount: 2
Fore
SplineSet
304 841 m 1
 304 719 l 1
 247 719 234 703 234 662 c 2
 234 492 l 2
 234 398 193 366 122 349 c 1
 191 335 235 300 235 208 c 2
 235 38 l 2
 235 -3 247 -19 304 -19 c 1
 304 -141 l 1
 110 -141 68 -81 68 28 c 2
 68 194 l 2
 68 253 56 277 5 277 c 1
 5 423 l 1
 56 423 68 447 68 506 c 2
 68 672 l 2
 68 781 110 841 304 841 c 1
EndSplineSet
EndChar

StartChar: uni007C
Encoding: 124 124 92
Width: 368
Flags: W
LayerCount: 2
Fore
SplineSet
267 811 m 1
 267 -106 l 1
 101 -106 l 1
 101 811 l 1
 267 811 l 1
EndSplineSet
EndChar

StartChar: uni007D
Encoding: 125 125 93
Width: 324
Flags: W
LayerCount: 2
Fore
SplineSet
21 841 m 1
 214 841 256 781 256 672 c 2
 256 506 l 2
 256 447 268 423 320 423 c 1
 320 277 l 1
 268 277 256 253 256 194 c 2
 256 28 l 2
 256 -81 214 -141 21 -141 c 1
 21 -19 l 1
 77 -19 90 -3 90 38 c 2
 90 208 l 2
 90 300 133 335 203 349 c 1
 131 366 91 398 91 492 c 2
 91 662 l 2
 91 703 78 719 21 719 c 1
 21 841 l 1
EndSplineSet
EndChar

StartChar: uni007E
Encoding: 126 126 94
Width: 522
Flags: W
LayerCount: 2
Fore
SplineSet
344 226 m 0
 251 226 222 287 171 287 c 0
 135 287 121 262 102 236 c 1
 11 282 l 1
 44 350 91 418 178 418 c 0
 271 418 300 358 352 358 c 0
 387 358 401 382 421 406 c 1
 511 361 l 1
 478 294 431 226 344 226 c 0
EndSplineSet
EndChar

StartChar: uni00A1
Encoding: 161 161 96
Width: 240
Flags: W
LayerCount: 2
Fore
SplineSet
120 514 m 0
 174 514 217 470 217 417 c 0
 217 364 174 320 120 320 c 0
 66 320 23 364 23 417 c 0
 23 470 66 514 120 514 c 0
191 232 m 1
 214 -213 l 1
 26 -213 l 1
 49 232 l 1
 191 232 l 1
EndSplineSet
EndChar

StartChar: uni00A2
Encoding: 162 162 97
Width: 479
Flags: W
LayerCount: 2
Fore
SplineSet
404 155 m 1
 481 46 l 1
 445 16 402 -5 351 -14 c 1
 351 -163 l 1
 226 -163 l 1
 226 -11 l 1
 99 17 25 120 25 262 c 0
 25 407 102 516 227 544 c 1
 227 694 l 1
 351 694 l 1
 351 546 l 1
 402 537 444 516 481 483 c 1
 406 379 l 1
 374 405 343 416 309 416 c 0
 246 416 210 376 210 263 c 0
 210 150 250 120 307 120 c 0
 342 120 367 132 404 155 c 1
EndSplineSet
EndChar

StartChar: uni00A3
Encoding: 163 163 98
Width: 545
Flags: W
LayerCount: 2
Fore
SplineSet
282 252 m 2
 282 199 271 162 217 133 c 1
 520 133 l 1
 500 0 l 1
 24 0 l 1
 24 127 l 1
 103 148 107 183 107 242 c 2
 107 307 l 1
 39 307 l 1
 39 396 l 1
 107 396 l 1
 107 478 l 2
 107 602 181 693 328 693 c 0
 425 693 490 658 539 589 c 1
 432 510 l 1
 406 549 380 562 347 562 c 0
 300 562 282 529 282 477 c 2
 282 396 l 1
 460 396 l 1
 460 307 l 1
 282 307 l 1
 282 252 l 2
EndSplineSet
EndChar

StartChar: uni00A4
Encoding: 164 164 99
Width: 560
Flags: W
LayerCount: 2
Fore
SplineSet
504 342 m 0
 504 298 492 258 471 224 c 1
 547 149 l 1
 473 75 l 1
 395 151 l 1
 362 132 323 122 280 122 c 0
 238 122 199 133 166 151 c 1
 88 75 l 1
 14 149 l 1
 90 225 l 1
 70 259 58 299 58 342 c 0
 58 385 69 424 90 458 c 1
 14 535 l 1
 88 610 l 1
 166 532 l 1
 199 550 238 561 280 561 c 0
 323 561 363 550 396 532 c 1
 473 610 l 1
 547 535 l 1
 472 459 l 1
 492 425 504 385 504 342 c 0
281 239 m 0
 341 239 371 277 371 342 c 0
 371 406 341 443 281 443 c 0
 222 443 191 406 191 342 c 0
 191 277 222 239 281 239 c 0
EndSplineSet
EndChar

StartChar: uni00A5
Encoding: 165 165 100
Width: 578
Flags: W
LayerCount: 2
Fore
SplineSet
589 678 m 1
 416 354 l 1
 510 354 l 1
 510 265 l 1
 378 265 l 1
 378 200 l 1
 510 200 l 1
 510 111 l 1
 378 111 l 1
 378 0 l 1
 202 0 l 1
 202 111 l 1
 71 111 l 1
 71 200 l 1
 202 200 l 1
 202 265 l 1
 71 265 l 1
 71 354 l 1
 163 354 l 1
 -11 678 l 1
 177 678 l 1
 293 401 l 1
 406 678 l 1
 589 678 l 1
EndSplineSet
EndChar

StartChar: uni00A6
Encoding: 166 166 101
Width: 368
Flags: W
LayerCount: 2
Fore
SplineSet
267 811 m 1
 267 443 l 1
 101 443 l 1
 101 811 l 1
 267 811 l 1
267 262 m 1
 267 -106 l 1
 101 -106 l 1
 101 262 l 1
 267 262 l 1
EndSplineSet
EndChar

StartChar: uni00A7
Encoding: 167 167 102
Width: 555
Flags: W
LayerCount: 2
Fore
SplineSet
428 184 m 1
 468 157 484 126 484 76 c 0
 484 -20 395 -87 254 -87 c 0
 173 -87 106 -65 55 -32 c 1
 111 72 l 1
 155 46 198 33 243 33 c 0
 291 33 316 48 316 71 c 0
 316 98 305 111 198 144 c 0
 107 171 47 208 47 294 c 0
 47 350 83 390 128 417 c 1
 88 447 73 481 73 528 c 0
 73 622 157 692 296 692 c 0
 370 692 442 671 496 636 c 1
 438 537 l 1
 394 561 350 572 308 572 c 0
 261 572 241 557 241 534 c 0
 241 505 254 494 356 464 c 0
 447 436 508 398 508 311 c 0
 508 252 473 211 428 184 c 1
273 254 m 0
 295 246 316 238 334 230 c 1
 347 249 355 271 355 286 c 0
 355 316 336 334 260 358 c 0
 244 363 230 368 217 373 c 1
 205 354 200 335 200 320 c 0
 200 290 215 275 273 254 c 0
EndSplineSet
EndChar

StartChar: uni00A8
Encoding: 168 168 103
Width: 474
Flags: W
LayerCount: 2
Fore
SplineSet
116 809 m 0
 166 809 204 771 204 723 c 0
 204 675 166 637 116 637 c 0
 68 637 28 675 28 723 c 0
 28 771 68 809 116 809 c 0
355 809 m 0
 405 809 443 771 443 723 c 0
 443 675 405 637 355 637 c 0
 306 637 267 675 267 723 c 0
 267 771 306 809 355 809 c 0
EndSplineSet
EndChar

StartChar: uni00A9
Encoding: 169 169 104
Width: 810
Flags: W
LayerCount: 2
Fore
SplineSet
406 772 m 0
 598 772 750 632 750 432 c 0
 750 232 598 93 406 93 c 0
 214 93 60 232 60 432 c 0
 60 632 214 772 406 772 c 0
406 684 m 0
 265 684 161 583 161 432 c 0
 161 281 265 180 406 180 c 0
 546 180 650 281 650 432 c 0
 650 583 546 684 406 684 c 0
408 631 m 0
 458 631 507 612 543 578 c 1
 491 513 l 1
 465 532 446 537 422 537 c 0
 383 537 352 509 352 433 c 0
 352 356 379 328 419 328 c 0
 450 328 474 338 499 358 c 1
 547 288 l 1
 511 254 462 233 409 233 c 0
 298 233 227 304 227 433 c 0
 227 555 302 631 408 631 c 0
EndSplineSet
EndChar

StartChar: uni00AA
Encoding: 170 170 105
Width: 500
Flags: W
LayerCount: 2
Fore
SplineSet
248 529 m 2
 278 529 l 1
 278 536 l 2
 278 575 264 584 216 584 c 0
 192 584 149 576 106 563 c 1
 71 663 l 1
 125 683 192 695 240 695 c 0
 376 695 432 646 432 545 c 2
 432 412 l 2
 432 384 438 372 458 366 c 1
 426 266 l 1
 375 269 338 283 311 319 c 1
 281 278 232 262 182 262 c 0
 97 262 41 316 41 391 c 0
 41 480 114 529 248 529 c 2
200 404 m 0
 200 385 211 373 235 373 c 0
 252 373 267 381 278 391 c 1
 278 447 l 1
 263 447 l 2
 220 447 200 433 200 404 c 0
46 136 m 1
 464 136 l 1
 464 0 l 1
 46 0 l 1
 46 136 l 1
EndSplineSet
EndChar

StartChar: uni00AB
Encoding: 171 171 106
Width: 644
Flags: W
LayerCount: 2
Fore
SplineSet
224 563 m 1
 334 490 l 1
 208 284 l 1
 334 78 l 1
 224 5 l 1
 31 228 l 1
 31 339 l 1
 224 563 l 1
503 563 m 1
 613 490 l 1
 486 284 l 1
 613 78 l 1
 503 5 l 1
 309 228 l 1
 309 339 l 1
 503 563 l 1
EndSplineSet
EndChar

StartChar: uni00AC
Encoding: 172 172 107
Width: 541
Flags: W
LayerCount: 2
Fore
SplineSet
496 398 m 1
 496 105 l 1
 351 105 l 1
 351 262 l 1
 44 262 l 1
 44 398 l 1
 496 398 l 1
EndSplineSet
EndChar

StartChar: uni00AD
Encoding: 173 173 108
Width: 409
Flags: W
LayerCount: 2
Fore
SplineSet
40 245 m 1
 40 381 l 1
 369 381 l 1
 369 245 l 1
 40 245 l 1
EndSplineSet
EndChar

StartChar: uni00AE
Encoding: 174 174 109
Width: 636
Flags: W
LayerCount: 2
Fore
SplineSet
319 761 m 0
 480 761 599 646 599 482 c 0
 599 319 480 204 319 204 c 0
 158 204 37 319 37 482 c 0
 37 646 158 761 319 761 c 0
319 276 m 0
 434 276 514 356 514 482 c 0
 514 607 434 689 319 689 c 0
 204 689 122 607 122 482 c 0
 122 356 204 276 319 276 c 0
434 545 m 0
 434 508 411 481 378 467 c 1
 451 349 l 1
 364 349 l 1
 308 451 l 1
 287 451 l 1
 287 349 l 1
 211 349 l 1
 211 633 l 1
 297 633 l 2
 387 633 434 605 434 545 c 0
287 577 m 1
 287 513 l 1
 316 513 l 2
 338 513 356 523 356 547 c 0
 356 568 340 577 315 577 c 2
 287 577 l 1
EndSplineSet
EndChar

StartChar: uni00AF
Encoding: 175 175 110
Width: 375
Flags: W
LayerCount: 2
Fore
SplineSet
345 652 m 1
 30 652 l 1
 30 773 l 1
 345 773 l 1
 345 652 l 1
EndSplineSet
EndChar

StartChar: uni00B0
Encoding: 176 176 111
Width: 520
Flags: W
LayerCount: 2
Fore
SplineSet
217 366 m 0
 128 366 35 432 35 541 c 0
 35 650 128 713 217 713 c 0
 307 713 400 649 400 541 c 0
 400 432 307 366 217 366 c 0
217 467 m 0
 259 467 282 498 282 541 c 0
 282 583 259 614 217 614 c 0
 176 614 153 584 153 541 c 0
 153 498 176 467 217 467 c 0
EndSplineSet
EndChar

StartChar: uni00B1
Encoding: 177 177 112
Width: 541
Flags: W
LayerCount: 2
Fore
SplineSet
343 646 m 1
 343 488 l 1
 496 488 l 1
 496 352 l 1
 343 352 l 1
 343 194 l 1
 197 194 l 1
 197 352 l 1
 44 352 l 1
 44 488 l 1
 197 488 l 1
 197 646 l 1
 343 646 l 1
52 0 m 1
 52 136 l 1
 488 136 l 1
 488 0 l 1
 52 0 l 1
EndSplineSet
EndChar

StartChar: uni00B2
Encoding: 178 178 113
Width: 400
Flags: W
LayerCount: 2
Fore
SplineSet
194 753 m 0
 305 753 359 691 359 626 c 0
 359 568 332 524 195 418 c 1
 368 418 l 1
 355 320 l 1
 49 320 l 1
 49 410 l 1
 193 537 225 573 225 614 c 0
 225 641 208 657 179 657 c 0
 150 657 128 644 104 615 c 1
 31 673 l 1
 66 719 121 753 194 753 c 0
EndSplineSet
EndChar

StartChar: uni00B3
Encoding: 179 179 114
Width: 400
Flags: W
LayerCount: 2
Fore
SplineSet
199 753 m 0
 303 753 358 705 358 641 c 0
 358 597 329 559 263 543 c 1
 327 538 373 507 373 441 c 0
 373 370 313 307 192 307 c 0
 115 307 62 335 27 377 c 1
 98 445 l 1
 124 416 149 405 182 405 c 0
 213 405 238 418 238 449 c 0
 238 482 218 497 176 497 c 2
 137 497 l 1
 151 584 l 1
 179 584 l 2
 215 584 231 598 231 622 c 0
 231 646 212 658 182 658 c 0
 151 658 123 645 99 624 c 1
 35 690 l 1
 78 731 133 753 199 753 c 0
EndSplineSet
EndChar

StartChar: uni00B4
Encoding: 180 180 115
Width: 352
Flags: W
LayerCount: 2
Fore
SplineSet
254 846 m 1
 322 714 l 1
 78 618 l 1
 30 707 l 1
 254 846 l 1
EndSplineSet
EndChar

StartChar: uni00B5
Encoding: 181 181 116
Width: 580
Flags: W
LayerCount: 2
Fore
SplineSet
544 0 m 1
 381 -18 l 1
 368 8 364 27 358 62 c 1
 331 17 298 -7 259 -7 c 0
 226 -7 198 1 172 33 c 1
 199 -10 219 -46 219 -118 c 2
 219 -206 l 1
 51 -223 l 1
 51 533 l 1
 229 533 l 1
 229 170 l 2
 229 130 248 118 271 118 c 0
 295 118 321 134 343 172 c 1
 343 533 l 1
 521 533 l 1
 521 183 l 2
 521 102 532 41 544 0 c 1
EndSplineSet
EndChar

StartChar: uni00B6
Encoding: 182 182 117
Width: 804
Flags: W
LayerCount: 2
Fore
SplineSet
325 695 m 2
 696 695 l 1
 696 -205 l 1
 541 -225 l 1
 541 573 l 1
 456 573 l 1
 456 -205 l 1
 301 -225 l 1
 301 258 l 1
 141 261 58 349 58 475 c 0
 58 611 155 695 325 695 c 2
EndSplineSet
EndChar

StartChar: uni00B7
Encoding: 183 183 118
Width: 240
Flags: W
LayerCount: 2
Fore
SplineSet
120 404 m 0
 174 404 217 360 217 307 c 0
 217 254 174 210 120 210 c 0
 66 210 23 254 23 307 c 0
 23 360 66 404 120 404 c 0
EndSplineSet
EndChar

StartChar: uni00B8
Encoding: 184 184 119
Width: 335
Flags: W
LayerCount: 2
Fore
SplineSet
198 16 m 1
 198 -45 l 1
 270 -54 305 -91 305 -149 c 0
 305 -218 247 -269 149 -269 c 0
 99 -269 56 -254 30 -236 c 1
 70 -157 l 1
 89 -168 109 -175 133 -175 c 0
 161 -175 179 -168 179 -147 c 0
 179 -125 151 -116 86 -116 c 1
 103 16 l 1
 198 16 l 1
EndSplineSet
EndChar

StartChar: uni00B9
Encoding: 185 185 120
Width: 400
Flags: W
LayerCount: 2
Fore
SplineSet
307 743 m 1
 307 320 l 1
 179 320 l 1
 179 622 l 1
 89 566 l 1
 32 652 l 1
 190 743 l 1
 307 743 l 1
EndSplineSet
EndChar

StartChar: uni00BA
Encoding: 186 186 121
Width: 500
Flags: W
LayerCount: 2
Fore
SplineSet
250 695 m 0
 385 695 470 619 470 478 c 0
 470 346 387 262 251 262 c 0
 116 262 31 338 31 479 c 0
 31 611 115 695 250 695 c 0
250 583 m 0
 210 583 192 552 192 479 c 0
 192 403 210 374 251 374 c 0
 291 374 308 405 308 478 c 0
 308 554 291 583 250 583 c 0
32 0 m 1
 32 136 l 1
 468 136 l 1
 468 0 l 1
 32 0 l 1
EndSplineSet
EndChar

StartChar: uni00BB
Encoding: 187 187 122
Width: 643
Flags: W
LayerCount: 2
Fore
SplineSet
141 563 m 1
 334 339 l 1
 334 228 l 1
 141 5 l 1
 31 78 l 1
 158 284 l 1
 31 490 l 1
 141 563 l 1
419 563 m 1
 612 339 l 1
 612 228 l 1
 419 5 l 1
 309 78 l 1
 435 284 l 1
 309 490 l 1
 419 563 l 1
EndSplineSet
EndChar

StartChar: uni00BC
Encoding: 188 188 123
Width: 980
Flags: W
LayerCount: 2
Fore
SplineSet
646 761 m 1
 747 711 l 1
 334 -88 l 1
 233 -38 l 1
 646 761 l 1
307 272 m 1
 179 272 l 1
 179 574 l 1
 89 518 l 1
 32 604 l 1
 190 695 l 1
 307 695 l 1
 307 272 l 1
960 175 m 1
 960 81 l 1
 915 81 l 1
 915 0 l 1
 793 0 l 1
 793 81 l 1
 599 81 l 1
 599 166 l 1
 718 433 l 1
 827 393 l 1
 732 175 l 1
 794 175 l 1
 819 266 l 1
 915 266 l 1
 915 175 l 1
 960 175 l 1
EndSplineSet
EndChar

StartChar: uni00BD
Encoding: 189 189 124
Width: 980
Flags: W
LayerCount: 2
Fore
SplineSet
646 761 m 1
 747 711 l 1
 334 -88 l 1
 233 -38 l 1
 646 761 l 1
307 695 m 1
 307 272 l 1
 179 272 l 1
 179 574 l 1
 89 518 l 1
 32 604 l 1
 190 695 l 1
 307 695 l 1
774 433 m 0
 885 433 939 371 939 306 c 0
 939 248 912 204 775 98 c 1
 948 98 l 1
 935 0 l 1
 629 0 l 1
 629 90 l 1
 773 217 805 253 805 294 c 0
 805 321 788 337 759 337 c 0
 730 337 708 324 684 295 c 1
 611 353 l 1
 646 399 701 433 774 433 c 0
EndSplineSet
EndChar

StartChar: uni00BE
Encoding: 190 190 125
Width: 980
Flags: W
LayerCount: 2
Fore
SplineSet
646 761 m 1
 747 711 l 1
 334 -88 l 1
 233 -38 l 1
 646 761 l 1
373 393 m 0
 373 322 313 259 192 259 c 0
 115 259 62 287 27 329 c 1
 98 397 l 1
 124 368 149 357 182 357 c 0
 213 357 238 370 238 401 c 0
 238 434 218 449 176 449 c 2
 137 449 l 1
 151 536 l 1
 179 536 l 2
 215 536 231 550 231 574 c 0
 231 598 212 610 182 610 c 0
 151 610 123 597 99 576 c 1
 35 642 l 1
 78 683 133 705 199 705 c 0
 303 705 358 657 358 593 c 0
 358 549 329 511 263 495 c 1
 327 490 373 459 373 393 c 0
960 175 m 1
 960 81 l 1
 915 81 l 1
 915 0 l 1
 793 0 l 1
 793 81 l 1
 599 81 l 1
 599 166 l 1
 718 433 l 1
 827 393 l 1
 732 175 l 1
 794 175 l 1
 819 266 l 1
 915 266 l 1
 915 175 l 1
 960 175 l 1
EndSplineSet
EndChar

StartChar: uni00BF
Encoding: 191 191 126
Width: 488
Flags: W
LayerCount: 2
Fore
SplineSet
268 320 m 0
 214 320 171 364 171 417 c 0
 171 470 214 514 268 514 c 0
 321 514 364 470 364 417 c 0
 364 364 321 320 268 320 c 0
237 -225 m 0
 85 -225 10 -145 10 -54 c 0
 10 109 189 100 189 206 c 2
 189 232 l 1
 349 232 l 1
 349 200 l 2
 349 27 196 36 196 -38 c 0
 196 -68 218 -85 256 -85 c 0
 294 -85 332 -66 367 -28 c 1
 478 -115 l 1
 422 -181 346 -225 237 -225 c 0
EndSplineSet
EndChar

StartChar: uni00C0
Encoding: 192 192 127
Width: 596
Flags: W
LayerCount: 2
Fore
SplineSet
216 970 m 1
 443 840 l 1
 398 750 l 1
 151 839 l 1
 216 970 l 1
419 0 m 1
 388 142 l 1
 204 142 l 1
 173 0 l 1
 -19 0 l 1
 187 695 l 1
 409 695 l 1
 615 0 l 1
 419 0 l 1
233 274 m 1
 359 274 l 1
 296 563 l 1
 233 274 l 1
EndSplineSet
EndChar

StartChar: uni00C1
Encoding: 193 193 128
Width: 596
Flags: W
LayerCount: 2
Fore
SplineSet
444 839 m 1
 197 750 l 1
 152 840 l 1
 380 970 l 1
 444 839 l 1
419 0 m 1
 388 142 l 1
 204 142 l 1
 173 0 l 1
 -19 0 l 1
 187 695 l 1
 409 695 l 1
 615 0 l 1
 419 0 l 1
233 274 m 1
 359 274 l 1
 296 563 l 1
 233 274 l 1
EndSplineSet
EndChar

StartChar: uni00C2
Encoding: 194 194 129
Width: 596
Flags: W
LayerCount: 2
Fore
SplineSet
163 753 m 1
 101 824 l 1
 244 959 l 1
 352 959 l 1
 495 824 l 1
 433 753 l 1
 298 838 l 1
 163 753 l 1
419 0 m 1
 388 142 l 1
 204 142 l 1
 173 0 l 1
 -19 0 l 1
 187 695 l 1
 409 695 l 1
 615 0 l 1
 419 0 l 1
233 274 m 1
 359 274 l 1
 296 563 l 1
 233 274 l 1
EndSplineSet
EndChar

StartChar: uni00C3
Encoding: 195 195 130
Width: 596
Flags: W
LayerCount: 2
Fore
SplineSet
357 754 m 0
 329 754 311 762 290 776 c 0
 271 790 260 798 243 798 c 0
 218 798 206 783 190 755 c 1
 104 797 l 1
 129 865 176 924 239 924 c 0
 271 924 288 915 309 901 c 0
 328 887 340 880 355 880 c 0
 378 880 391 894 407 923 c 1
 493 881 l 1
 467 811 420 754 357 754 c 0
419 0 m 1
 388 142 l 1
 204 142 l 1
 173 0 l 1
 -19 0 l 1
 187 695 l 1
 409 695 l 1
 615 0 l 1
 419 0 l 1
233 274 m 1
 359 274 l 1
 296 563 l 1
 233 274 l 1
EndSplineSet
EndChar

StartChar: uni00C4
Encoding: 196 196 131
Width: 596
Flags: W
LayerCount: 2
Fore
SplineSet
177 935 m 0
 227 935 265 897 265 849 c 0
 265 801 227 763 177 763 c 0
 129 763 89 801 89 849 c 0
 89 897 129 935 177 935 c 0
415 935 m 0
 465 935 503 897 503 849 c 0
 503 801 465 763 415 763 c 0
 367 763 327 801 327 849 c 0
 327 897 367 935 415 935 c 0
419 0 m 1
 388 142 l 1
 204 142 l 1
 173 0 l 1
 -19 0 l 1
 187 695 l 1
 409 695 l 1
 615 0 l 1
 419 0 l 1
233 274 m 1
 359 274 l 1
 296 563 l 1
 233 274 l 1
EndSplineSet
EndChar

StartChar: uni00C5
Encoding: 197 197 132
Width: 596
Flags: W
LayerCount: 2
Fore
SplineSet
298 1003 m 0
 390 1003 445 939 445 864 c 0
 445 790 390 725 298 725 c 0
 207 725 152 790 152 864 c 0
 152 939 207 1003 298 1003 c 0
298 912 m 0
 274 912 256 897 256 864 c 0
 256 832 274 816 298 816 c 0
 323 816 341 832 341 864 c 0
 341 897 323 912 298 912 c 0
419 0 m 1
 388 142 l 1
 204 142 l 1
 173 0 l 1
 -19 0 l 1
 187 695 l 1
 409 695 l 1
 615 0 l 1
 419 0 l 1
233 274 m 1
 359 274 l 1
 296 563 l 1
 233 274 l 1
EndSplineSet
EndChar

StartChar: uni00C6
Encoding: 198 198 133
Width: 854
Flags: W
LayerCount: 2
Fore
SplineSet
596 131 m 1
 828 131 l 1
 828 0 l 1
 440 0 l 1
 418 142 l 1
 219 142 l 1
 173 0 l 1
 -27 0 l 1
 245 695 l 1
 792 695 l 1
 772 564 l 1
 514 564 l 1
 542 415 l 1
 783 415 l 1
 783 287 l 1
 566 287 l 1
 596 131 l 1
261 274 m 1
 398 274 l 1
 353 561 l 1
 261 274 l 1
EndSplineSet
EndChar

StartChar: uni00C7
Encoding: 199 199 134
Width: 579
Flags: W
LayerCount: 2
Fore
SplineSet
385 -45 m 1
 457 -54 492 -91 492 -149 c 0
 492 -218 434 -269 336 -269 c 0
 286 -269 243 -254 217 -236 c 1
 257 -157 l 1
 276 -168 296 -175 320 -175 c 0
 348 -175 366 -168 366 -147 c 0
 366 -125 338 -116 273 -116 c 1
 286 -13 l 1
 127 14 27 138 27 349 c 0
 27 581 162 713 350 713 c 0
 441 713 509 684 568 634 c 1
 481 531 l 1
 443 560 406 578 359 578 c 0
 275 578 219 508 219 349 c 0
 219 192 274 122 361 122 c 0
 413 122 452 146 494 179 c 1
 576 75 l 1
 533 32 466 -8 385 -16 c 1
 385 -45 l 1
EndSplineSet
EndChar

StartChar: uni00C8
Encoding: 200 200 135
Width: 523
Flags: W
LayerCount: 2
Fore
SplineSet
193 970 m 1
 420 840 l 1
 375 750 l 1
 128 839 l 1
 193 970 l 1
495 695 m 1
 476 564 l 1
 239 564 l 1
 239 416 l 1
 446 416 l 1
 446 289 l 1
 239 289 l 1
 239 131 l 1
 492 131 l 1
 492 0 l 1
 54 0 l 1
 54 695 l 1
 495 695 l 1
EndSplineSet
EndChar

StartChar: uni00C9
Encoding: 201 201 136
Width: 523
Flags: W
LayerCount: 2
Fore
SplineSet
357 970 m 1
 421 839 l 1
 174 750 l 1
 129 840 l 1
 357 970 l 1
495 695 m 1
 476 564 l 1
 239 564 l 1
 239 416 l 1
 446 416 l 1
 446 289 l 1
 239 289 l 1
 239 131 l 1
 492 131 l 1
 492 0 l 1
 54 0 l 1
 54 695 l 1
 495 695 l 1
EndSplineSet
EndChar

StartChar: uni00CA
Encoding: 202 202 137
Width: 523
Flags: W
LayerCount: 2
Fore
SplineSet
140 753 m 1
 78 824 l 1
 221 959 l 1
 329 959 l 1
 472 824 l 1
 410 753 l 1
 275 838 l 1
 140 753 l 1
495 695 m 1
 476 564 l 1
 239 564 l 1
 239 416 l 1
 446 416 l 1
 446 289 l 1
 239 289 l 1
 239 131 l 1
 492 131 l 1
 492 0 l 1
 54 0 l 1
 54 695 l 1
 495 695 l 1
EndSplineSet
EndChar

StartChar: uni00CB
Encoding: 203 203 138
Width: 523
Flags: W
LayerCount: 2
Fore
SplineSet
154 935 m 0
 204 935 242 897 242 849 c 0
 242 801 204 763 154 763 c 0
 106 763 66 801 66 849 c 0
 66 897 106 935 154 935 c 0
392 935 m 0
 442 935 480 897 480 849 c 0
 480 801 442 763 392 763 c 0
 344 763 304 801 304 849 c 0
 304 897 344 935 392 935 c 0
495 695 m 1
 476 564 l 1
 239 564 l 1
 239 416 l 1
 446 416 l 1
 446 289 l 1
 239 289 l 1
 239 131 l 1
 492 131 l 1
 492 0 l 1
 54 0 l 1
 54 695 l 1
 495 695 l 1
EndSplineSet
EndChar

StartChar: uni00CC
Encoding: 204 204 139
Width: 293
Flags: W
LayerCount: 2
Fore
SplineSet
63 970 m 1
 290 840 l 1
 245 750 l 1
 -2 839 l 1
 63 970 l 1
239 695 m 1
 239 0 l 1
 54 0 l 1
 54 695 l 1
 239 695 l 1
EndSplineSet
EndChar

StartChar: uni00CD
Encoding: 205 205 140
Width: 293
Flags: W
LayerCount: 2
Fore
SplineSet
228 970 m 1
 292 839 l 1
 45 750 l 1
 0 840 l 1
 228 970 l 1
239 695 m 1
 239 0 l 1
 54 0 l 1
 54 695 l 1
 239 695 l 1
EndSplineSet
EndChar

StartChar: uni00CE
Encoding: 206 206 141
Width: 293
Flags: W
LayerCount: 2
Fore
SplineSet
11 753 m 1
 -51 824 l 1
 92 959 l 1
 200 959 l 1
 343 824 l 1
 281 753 l 1
 146 838 l 1
 11 753 l 1
239 695 m 1
 239 0 l 1
 54 0 l 1
 54 695 l 1
 239 695 l 1
EndSplineSet
EndChar

StartChar: uni00CF
Encoding: 207 207 142
Width: 293
Flags: W
LayerCount: 2
Fore
SplineSet
25 935 m 0
 75 935 113 897 113 849 c 0
 113 801 75 763 25 763 c 0
 -23 763 -63 801 -63 849 c 0
 -63 897 -23 935 25 935 c 0
263 935 m 0
 313 935 351 897 351 849 c 0
 351 801 313 763 263 763 c 0
 215 763 175 801 175 849 c 0
 175 897 215 935 263 935 c 0
239 695 m 1
 239 0 l 1
 54 0 l 1
 54 695 l 1
 239 695 l 1
EndSplineSet
EndChar

StartChar: uni00D0
Encoding: 208 208 143
Width: 668
Flags: W
LayerCount: 2
Fore
SplineSet
276 695 m 2
 464 695 642 636 642 350 c 0
 642 72 475 0 290 0 c 2
 68 0 l 1
 68 299 l 1
 12 299 l 1
 12 407 l 1
 68 407 l 1
 68 695 l 1
 276 695 l 2
301 132 m 2
 397 132 451 179 451 350 c 0
 451 523 393 563 301 563 c 2
 253 563 l 1
 253 407 l 1
 381 407 l 1
 381 299 l 1
 253 299 l 1
 253 132 l 1
 301 132 l 2
EndSplineSet
EndChar

StartChar: uni00D1
Encoding: 209 209 144
Width: 657
Flags: W
LayerCount: 2
Fore
SplineSet
390 754 m 0
 362 754 344 762 323 776 c 0
 304 790 293 798 276 798 c 0
 251 798 239 783 223 755 c 1
 137 797 l 1
 162 865 209 924 272 924 c 0
 304 924 321 915 342 901 c 0
 361 887 373 880 388 880 c 0
 411 880 424 894 440 923 c 1
 526 881 l 1
 500 811 453 754 390 754 c 0
603 695 m 1
 603 0 l 1
 370 0 l 1
 194 523 l 1
 203 457 218 364 218 235 c 2
 218 0 l 1
 54 0 l 1
 54 695 l 1
 282 695 l 1
 464 170 l 1
 453 239 439 325 439 443 c 2
 439 695 l 1
 603 695 l 1
EndSplineSet
EndChar

StartChar: uni00D2
Encoding: 210 210 145
Width: 690
Flags: W
LayerCount: 2
Fore
SplineSet
262 970 m 1
 489 840 l 1
 444 750 l 1
 197 839 l 1
 262 970 l 1
345 713 m 0
 547 713 664 579 664 348 c 0
 664 122 547 -18 345 -18 c 0
 143 -18 27 117 27 348 c 0
 27 574 143 713 345 713 c 0
345 580 m 0
 260 580 219 516 219 348 c 0
 219 180 261 115 345 115 c 0
 432 115 471 180 471 348 c 0
 471 516 431 580 345 580 c 0
EndSplineSet
EndChar

StartChar: uni00D3
Encoding: 211 211 146
Width: 690
Flags: W
LayerCount: 2
Fore
SplineSet
427 970 m 1
 491 839 l 1
 244 750 l 1
 199 840 l 1
 427 970 l 1
345 713 m 0
 547 713 664 579 664 348 c 0
 664 122 547 -18 345 -18 c 0
 143 -18 27 117 27 348 c 0
 27 574 143 713 345 713 c 0
345 580 m 0
 260 580 219 516 219 348 c 0
 219 180 261 115 345 115 c 0
 432 115 471 180 471 348 c 0
 471 516 431 580 345 580 c 0
EndSplineSet
EndChar

StartChar: uni00D4
Encoding: 212 212 147
Width: 690
Flags: W
LayerCount: 2
Fore
SplineSet
210 753 m 1
 148 824 l 1
 291 959 l 1
 399 959 l 1
 542 824 l 1
 480 753 l 1
 345 838 l 1
 210 753 l 1
345 713 m 0
 547 713 664 579 664 348 c 0
 664 122 547 -18 345 -18 c 0
 143 -18 27 117 27 348 c 0
 27 574 143 713 345 713 c 0
345 580 m 0
 260 580 219 516 219 348 c 0
 219 180 261 115 345 115 c 0
 432 115 471 180 471 348 c 0
 471 516 431 580 345 580 c 0
EndSplineSet
EndChar

StartChar: uni00D5
Encoding: 213 213 148
Width: 690
Flags: W
LayerCount: 2
Fore
SplineSet
404 754 m 0
 376 754 358 762 337 776 c 0
 318 790 307 798 290 798 c 0
 265 798 253 783 237 755 c 1
 151 797 l 1
 176 865 223 924 286 924 c 0
 318 924 335 915 356 901 c 0
 375 887 387 880 402 880 c 0
 425 880 438 894 454 923 c 1
 540 881 l 1
 514 811 467 754 404 754 c 0
345 713 m 0
 547 713 664 579 664 348 c 0
 664 122 547 -18 345 -18 c 0
 143 -18 27 117 27 348 c 0
 27 574 143 713 345 713 c 0
345 580 m 0
 260 580 219 516 219 348 c 0
 219 180 261 115 345 115 c 0
 432 115 471 180 471 348 c 0
 471 516 431 580 345 580 c 0
EndSplineSet
EndChar

StartChar: uni00D6
Encoding: 214 214 149
Width: 690
Flags: W
LayerCount: 2
Fore
SplineSet
224 935 m 0
 274 935 312 897 312 849 c 0
 312 801 274 763 224 763 c 0
 176 763 136 801 136 849 c 0
 136 897 176 935 224 935 c 0
462 935 m 0
 512 935 550 897 550 849 c 0
 550 801 512 763 462 763 c 0
 414 763 374 801 374 849 c 0
 374 897 414 935 462 935 c 0
345 713 m 0
 547 713 664 579 664 348 c 0
 664 122 547 -18 345 -18 c 0
 143 -18 27 117 27 348 c 0
 27 574 143 713 345 713 c 0
345 580 m 0
 260 580 219 516 219 348 c 0
 219 180 261 115 345 115 c 0
 432 115 471 180 471 348 c 0
 471 516 431 580 345 580 c 0
EndSplineSet
EndChar

StartChar: uni00D7
Encoding: 215 215 150
Width: 524
Flags: W
LayerCount: 2
Fore
SplineSet
377 518 m 1
 473 421 l 1
 358 309 l 1
 473 191 l 1
 377 95 l 1
 264 215 l 1
 147 95 l 1
 51 191 l 1
 165 303 l 1
 51 421 l 1
 147 518 l 1
 259 398 l 1
 377 518 l 1
EndSplineSet
EndChar

StartChar: uni00D8
Encoding: 216 216 151
Width: 690
Flags: W
LayerCount: 2
Fore
SplineSet
522 667 m 1
 614 609 664 499 664 348 c 0
 664 122 547 -18 345 -18 c 0
 330 -18 315 -17 301 -16 c 1
 264 -137 l 1
 128 -100 l 1
 168 29 l 1
 77 87 27 197 27 348 c 0
 27 574 143 713 345 713 c 0
 360 713 375 712 389 711 c 1
 426 830 l 1
 563 794 l 1
 522 667 l 1
345 580 m 0
 260 580 219 516 219 348 c 0
 219 258 228 202 246 167 c 1
 369 579 l 1
 362 580 354 580 345 580 c 0
345 115 m 0
 432 115 471 180 471 348 c 0
 471 437 463 493 445 528 c 1
 322 116 l 1
 329 115 337 115 345 115 c 0
EndSplineSet
EndChar

StartChar: uni00D9
Encoding: 217 217 152
Width: 647
Flags: W
LayerCount: 2
Fore
SplineSet
241 970 m 1
 468 840 l 1
 423 750 l 1
 176 839 l 1
 241 970 l 1
604 695 m 1
 604 233 l 2
 604 92 512 -18 324 -18 c 0
 135 -18 44 84 44 233 c 2
 44 695 l 1
 229 695 l 1
 229 239 l 2
 229 157 256 117 324 117 c 0
 391 117 418 157 418 239 c 2
 418 695 l 1
 604 695 l 1
EndSplineSet
EndChar

StartChar: uni00DA
Encoding: 218 218 153
Width: 647
Flags: W
LayerCount: 2
Fore
SplineSet
406 970 m 1
 470 839 l 1
 223 750 l 1
 178 840 l 1
 406 970 l 1
604 695 m 1
 604 233 l 2
 604 92 512 -18 324 -18 c 0
 135 -18 44 84 44 233 c 2
 44 695 l 1
 229 695 l 1
 229 239 l 2
 229 157 256 117 324 117 c 0
 391 117 418 157 418 239 c 2
 418 695 l 1
 604 695 l 1
EndSplineSet
EndChar

StartChar: uni00DB
Encoding: 219 219 154
Width: 647
Flags: W
LayerCount: 2
Fore
SplineSet
189 753 m 1
 127 824 l 1
 270 959 l 1
 378 959 l 1
 521 824 l 1
 459 753 l 1
 324 838 l 1
 189 753 l 1
604 695 m 1
 604 233 l 2
 604 92 512 -18 324 -18 c 0
 135 -18 44 84 44 233 c 2
 44 695 l 1
 229 695 l 1
 229 239 l 2
 229 157 256 117 324 117 c 0
 391 117 418 157 418 239 c 2
 418 695 l 1
 604 695 l 1
EndSplineSet
EndChar

StartChar: uni00DC
Encoding: 220 220 155
Width: 647
Flags: W
LayerCount: 2
Fore
SplineSet
202 935 m 0
 252 935 290 897 290 849 c 0
 290 801 252 763 202 763 c 0
 154 763 114 801 114 849 c 0
 114 897 154 935 202 935 c 0
440 935 m 0
 490 935 528 897 528 849 c 0
 528 801 490 763 440 763 c 0
 392 763 352 801 352 849 c 0
 352 897 392 935 440 935 c 0
604 695 m 1
 604 233 l 2
 604 92 512 -18 324 -18 c 0
 135 -18 44 84 44 233 c 2
 44 695 l 1
 229 695 l 1
 229 239 l 2
 229 157 256 117 324 117 c 0
 391 117 418 157 418 239 c 2
 418 695 l 1
 604 695 l 1
EndSplineSet
EndChar

StartChar: uni00DD
Encoding: 221 221 156
Width: 607
Flags: W
LayerCount: 2
Fore
SplineSet
385 970 m 1
 449 839 l 1
 202 750 l 1
 157 840 l 1
 385 970 l 1
618 695 m 1
 396 259 l 1
 396 0 l 1
 211 0 l 1
 211 258 l 1
 -11 695 l 1
 191 695 l 1
 306 400 l 1
 422 695 l 1
 618 695 l 1
EndSplineSet
EndChar

StartChar: uni00DE
Encoding: 222 222 157
Width: 605
Flags: W
LayerCount: 2
Fore
SplineSet
292 589 m 2
 475 589 587 513 587 357 c 0
 587 189 473 110 310 110 c 2
 239 110 l 1
 239 0 l 1
 54 0 l 1
 54 695 l 1
 239 695 l 1
 239 589 l 1
 292 589 l 2
293 242 m 2
 360 242 398 273 398 357 c 0
 398 424 363 459 289 459 c 2
 239 459 l 1
 239 242 l 1
 293 242 l 2
EndSplineSet
EndChar

StartChar: uni00DF
Encoding: 223 223 158
Width: 609
Flags: W
LayerCount: 2
Fore
SplineSet
298 761 m 0
 439 761 513 689 513 610 c 0
 513 512 416 490 416 433 c 0
 416 360 598 343 598 167 c 0
 598 50 508 -18 389 -18 c 0
 342 -18 298 -7 265 9 c 1
 318 129 l 1
 333 122 347 118 365 118 c 0
 396 118 414 136 414 170 c 0
 414 272 264 269 264 401 c 0
 264 509 345 504 345 586 c 0
 345 617 326 638 294 638 c 0
 249 638 229 603 229 537 c 2
 229 0 l 1
 51 0 l 1
 51 532 l 2
 51 674 137 761 298 761 c 0
EndSplineSet
EndChar

StartChar: uni00E0
Encoding: 224 224 159
Width: 549
Flags: W
LayerCount: 2
Fore
SplineSet
205 846 m 1
 429 707 l 1
 381 618 l 1
 137 714 l 1
 205 846 l 1
493 164 m 2
 493 124 503 109 527 100 c 1
 491 -15 l 1
 425 -10 382 9 355 60 c 1
 316 2 256 -18 194 -18 c 0
 88 -18 20 51 20 149 c 0
 20 266 109 331 273 331 c 2
 319 331 l 1
 319 349 l 2
 319 407 297 423 236 423 c 0
 203 423 150 413 97 395 c 1
 58 510 l 1
 124 537 203 551 263 551 c 0
 425 551 493 486 493 358 c 2
 493 164 l 2
248 107 m 0
 278 107 303 124 319 149 c 1
 319 236 l 1
 289 236 l 2
 225 236 195 213 195 166 c 0
 195 130 214 107 248 107 c 0
EndSplineSet
EndChar

StartChar: uni00E1
Encoding: 225 225 160
Width: 549
Flags: W
LayerCount: 2
Fore
SplineSet
411 714 m 1
 167 618 l 1
 119 707 l 1
 343 846 l 1
 411 714 l 1
493 164 m 2
 493 124 503 109 527 100 c 1
 491 -15 l 1
 426 -10 382 9 355 60 c 1
 317 2 257 -18 194 -18 c 0
 88 -18 20 51 20 149 c 0
 20 266 109 331 273 331 c 2
 319 331 l 1
 319 349 l 2
 319 407 297 423 236 423 c 0
 203 423 150 413 97 395 c 1
 58 510 l 1
 124 537 203 551 263 551 c 0
 425 551 493 486 493 358 c 2
 493 164 l 2
248 107 m 0
 278 107 303 124 319 149 c 1
 319 236 l 1
 289 236 l 2
 225 236 195 213 195 166 c 0
 195 130 214 107 248 107 c 0
EndSplineSet
EndChar

StartChar: uni00E2
Encoding: 226 226 161
Width: 549
Flags: W
LayerCount: 2
Fore
SplineSet
138 616 m 1
 76 687 l 1
 219 831 l 1
 326 831 l 1
 470 687 l 1
 408 616 l 1
 273 710 l 1
 138 616 l 1
493 164 m 2
 493 124 503 109 527 100 c 1
 491 -15 l 1
 425 -10 382 9 355 60 c 1
 316 2 256 -18 194 -18 c 0
 88 -18 20 51 20 149 c 0
 20 266 109 331 273 331 c 2
 319 331 l 1
 319 349 l 2
 319 407 297 423 236 423 c 0
 203 423 150 413 97 395 c 1
 58 510 l 1
 124 537 203 551 263 551 c 0
 425 551 493 486 493 358 c 2
 493 164 l 2
248 107 m 0
 278 107 303 124 319 149 c 1
 319 236 l 1
 289 236 l 2
 225 236 195 213 195 166 c 0
 195 130 214 107 248 107 c 0
EndSplineSet
EndChar

StartChar: uni00E3
Encoding: 227 227 162
Width: 549
Flags: W
LayerCount: 2
Fore
SplineSet
331 628 m 0
 303 628 285 636 264 650 c 0
 245 664 234 672 217 672 c 0
 192 672 180 657 164 629 c 1
 78 671 l 1
 103 739 150 798 213 798 c 0
 245 798 262 789 283 775 c 0
 302 761 314 754 329 754 c 0
 352 754 365 768 381 797 c 1
 467 755 l 1
 441 685 394 628 331 628 c 0
493 164 m 2
 493 124 503 109 527 100 c 1
 491 -15 l 1
 425 -10 382 9 355 60 c 1
 316 2 256 -18 194 -18 c 0
 88 -18 20 51 20 149 c 0
 20 266 109 331 273 331 c 2
 319 331 l 1
 319 349 l 2
 319 407 297 423 236 423 c 0
 203 423 150 413 97 395 c 1
 58 510 l 1
 124 537 203 551 263 551 c 0
 425 551 493 486 493 358 c 2
 493 164 l 2
248 107 m 0
 278 107 303 124 319 149 c 1
 319 236 l 1
 289 236 l 2
 225 236 195 213 195 166 c 0
 195 130 214 107 248 107 c 0
EndSplineSet
EndChar

StartChar: uni00E4
Encoding: 228 228 163
Width: 549
Flags: W
LayerCount: 2
Fore
SplineSet
153 809 m 0
 203 809 241 771 241 723 c 0
 241 675 203 637 153 637 c 0
 105 637 65 675 65 723 c 0
 65 771 105 809 153 809 c 0
391 809 m 0
 441 809 479 771 479 723 c 0
 479 675 441 637 391 637 c 0
 343 637 303 675 303 723 c 0
 303 771 343 809 391 809 c 0
493 164 m 2
 493 124 503 109 527 100 c 1
 491 -15 l 1
 425 -10 382 9 355 60 c 1
 316 2 256 -18 194 -18 c 0
 88 -18 20 51 20 149 c 0
 20 266 109 331 273 331 c 2
 319 331 l 1
 319 349 l 2
 319 407 297 423 236 423 c 0
 203 423 150 413 97 395 c 1
 58 510 l 1
 124 537 203 551 263 551 c 0
 425 551 493 486 493 358 c 2
 493 164 l 2
248 107 m 0
 278 107 303 124 319 149 c 1
 319 236 l 1
 289 236 l 2
 225 236 195 213 195 166 c 0
 195 130 214 107 248 107 c 0
EndSplineSet
EndChar

StartChar: uni00E5
Encoding: 229 229 164
Width: 549
Flags: W
LayerCount: 2
Fore
SplineSet
273 877 m 0
 365 877 420 813 420 738 c 0
 420 664 365 599 273 599 c 0
 182 599 127 664 127 738 c 0
 127 813 182 877 273 877 c 0
273 786 m 0
 249 786 231 771 231 738 c 0
 231 706 249 690 273 690 c 0
 298 690 316 706 316 738 c 0
 316 771 298 786 273 786 c 0
493 164 m 2
 493 124 503 109 527 100 c 1
 491 -15 l 1
 425 -10 382 9 355 60 c 1
 316 2 256 -18 194 -18 c 0
 88 -18 20 51 20 149 c 0
 20 266 109 331 273 331 c 2
 319 331 l 1
 319 349 l 2
 319 407 297 423 236 423 c 0
 203 423 150 413 97 395 c 1
 58 510 l 1
 124 537 203 551 263 551 c 0
 425 551 493 486 493 358 c 2
 493 164 l 2
248 107 m 0
 278 107 303 124 319 149 c 1
 319 236 l 1
 289 236 l 2
 225 236 195 213 195 166 c 0
 195 130 214 107 248 107 c 0
EndSplineSet
EndChar

StartChar: uni00E6
Encoding: 230 230 165
Width: 858
Flags: W
LayerCount: 2
Fore
SplineSet
837 275 m 0
 837 258 835 233 833 215 c 1
 507 215 l 1
 517 129 559 109 620 109 c 0
 661 109 698 124 744 156 c 1
 817 58 l 1
 764 15 693 -18 604 -18 c 0
 505 -18 432 17 386 71 c 1
 339 4 271 -18 198 -18 c 0
 87 -18 20 51 20 149 c 0
 20 266 109 331 280 331 c 2
 326 331 l 1
 326 347 l 2
 326 405 304 422 243 422 c 0
 210 422 157 412 104 394 c 1
 65 510 l 1
 131 537 210 551 270 551 c 0
 351 551 401 527 434 487 c 1
 474 527 526 551 597 551 c 0
 737 551 837 451 837 275 c 0
661 319 m 1
 661 325 l 2
 660 389 644 436 587 436 c 0
 540 436 513 408 506 319 c 1
 661 319 l 1
257 107 m 0
 291 107 315 129 339 163 c 1
 333 183 330 205 329 227 c 2
 329 232 l 1
 298 232 l 2
 236 232 206 212 206 163 c 0
 206 129 224 107 257 107 c 0
EndSplineSet
EndChar

StartChar: uni00E7
Encoding: 231 231 166
Width: 479
Flags: W
LayerCount: 2
Fore
SplineSet
481 46 m 1
 440 11 390 -11 328 -17 c 1
 328 -45 l 1
 400 -54 435 -91 435 -149 c 0
 435 -218 377 -269 279 -269 c 0
 229 -269 186 -254 160 -236 c 1
 200 -157 l 1
 219 -168 239 -175 263 -175 c 0
 291 -175 309 -168 309 -147 c 0
 309 -125 281 -116 216 -116 c 1
 229 -11 l 1
 101 15 25 119 25 262 c 0
 25 431 129 551 293 551 c 0
 372 551 431 527 481 483 c 1
 406 379 l 1
 374 405 343 416 309 416 c 0
 246 416 210 376 210 263 c 0
 210 150 250 120 307 120 c 0
 342 120 367 132 404 155 c 1
 481 46 l 1
EndSplineSet
EndChar

StartChar: uni00E8
Encoding: 232 232 167
Width: 557
Flags: W
LayerCount: 2
Fore
SplineSet
216 846 m 1
 440 707 l 1
 392 618 l 1
 148 714 l 1
 216 846 l 1
535 275 m 0
 535 258 533 233 532 215 c 1
 205 215 l 1
 216 129 257 109 319 109 c 0
 360 109 397 124 443 156 c 1
 515 58 l 1
 463 15 391 -18 302 -18 c 0
 115 -18 25 99 25 264 c 0
 25 422 112 551 282 551 c 0
 437 551 535 451 535 275 c 0
360 319 m 1
 360 325 l 2
 359 389 342 436 285 436 c 0
 238 436 212 407 205 319 c 1
 360 319 l 1
EndSplineSet
EndChar

StartChar: uni00E9
Encoding: 233 233 168
Width: 557
Flags: W
LayerCount: 2
Fore
SplineSet
422 714 m 1
 178 618 l 1
 130 707 l 1
 354 846 l 1
 422 714 l 1
535 275 m 0
 535 258 533 233 532 215 c 1
 206 215 l 1
 216 129 257 109 319 109 c 0
 360 109 397 124 443 156 c 1
 515 58 l 1
 463 15 391 -18 302 -18 c 0
 115 -18 25 99 25 264 c 0
 25 422 112 551 282 551 c 0
 437 551 535 451 535 275 c 0
360 319 m 1
 360 325 l 2
 359 389 342 436 285 436 c 0
 238 436 212 408 205 319 c 1
 360 319 l 1
EndSplineSet
EndChar

StartChar: uni00EA
Encoding: 234 234 169
Width: 557
Flags: W
LayerCount: 2
Fore
SplineSet
284 710 m 1
 149 616 l 1
 87 687 l 1
 230 831 l 1
 337 831 l 1
 481 687 l 1
 419 616 l 1
 284 710 l 1
535 275 m 0
 535 258 533 233 532 215 c 1
 206 215 l 1
 216 129 257 109 319 109 c 0
 360 109 397 124 443 156 c 1
 515 58 l 1
 463 15 391 -18 302 -18 c 0
 115 -18 25 99 25 264 c 0
 25 422 112 551 282 551 c 0
 437 551 535 451 535 275 c 0
360 319 m 1
 360 325 l 2
 359 389 342 436 285 436 c 0
 238 436 212 408 205 319 c 1
 360 319 l 1
EndSplineSet
EndChar

StartChar: uni00EB
Encoding: 235 235 170
Width: 557
Flags: W
LayerCount: 2
Fore
SplineSet
164 809 m 0
 214 809 252 771 252 723 c 0
 252 675 214 637 164 637 c 0
 116 637 76 675 76 723 c 0
 76 771 116 809 164 809 c 0
402 809 m 0
 452 809 490 771 490 723 c 0
 490 675 452 637 402 637 c 0
 354 637 314 675 314 723 c 0
 314 771 354 809 402 809 c 0
535 275 m 0
 535 258 533 233 532 215 c 1
 205 215 l 1
 216 129 257 109 319 109 c 0
 360 109 397 124 443 156 c 1
 515 58 l 1
 463 15 391 -18 302 -18 c 0
 115 -18 25 99 25 264 c 0
 25 422 112 551 282 551 c 0
 437 551 535 451 535 275 c 0
360 319 m 1
 360 325 l 2
 359 389 342 436 285 436 c 0
 238 436 212 407 205 319 c 1
 360 319 l 1
EndSplineSet
EndChar

StartChar: uni00EC
Encoding: 236 236 171
Width: 281
Flags: W
LayerCount: 2
Fore
SplineSet
72 846 m 1
 296 707 l 1
 248 618 l 1
 4 714 l 1
 72 846 l 1
229 533 m 1
 229 0 l 1
 51 0 l 1
 51 533 l 1
 229 533 l 1
EndSplineSet
EndChar

StartChar: uni00ED
Encoding: 237 237 172
Width: 281
Flags: W
LayerCount: 2
Fore
SplineSet
210 846 m 1
 278 714 l 1
 34 618 l 1
 -14 707 l 1
 210 846 l 1
229 533 m 1
 229 0 l 1
 51 0 l 1
 51 533 l 1
 229 533 l 1
EndSplineSet
EndChar

StartChar: uni00EE
Encoding: 238 238 173
Width: 281
Flags: W
LayerCount: 2
Fore
SplineSet
6 616 m 1
 -56 687 l 1
 87 831 l 1
 194 831 l 1
 338 687 l 1
 276 616 l 1
 141 710 l 1
 6 616 l 1
229 533 m 1
 229 0 l 1
 51 0 l 1
 51 533 l 1
 229 533 l 1
EndSplineSet
EndChar

StartChar: uni00EF
Encoding: 239 239 174
Width: 281
Flags: W
LayerCount: 2
Fore
SplineSet
21 809 m 0
 71 809 109 771 109 723 c 0
 109 675 71 637 21 637 c 0
 -27 637 -67 675 -67 723 c 0
 -67 771 -27 809 21 809 c 0
259 809 m 0
 309 809 347 771 347 723 c 0
 347 675 309 637 259 637 c 0
 211 637 171 675 171 723 c 0
 171 771 211 809 259 809 c 0
229 533 m 1
 229 0 l 1
 51 0 l 1
 51 533 l 1
 229 533 l 1
EndSplineSet
EndChar

StartChar: uni00F0
Encoding: 240 240 175
Width: 581
Flags: W
LayerCount: 2
Fore
SplineSet
361 673 m 1
 503 573 552 445 552 280 c 0
 552 117 459 -18 284 -18 c 0
 137 -18 25 75 25 233 c 0
 25 376 119 481 234 481 c 0
 288 481 327 466 362 440 c 1
 344 493 318 533 266 574 c 1
 216 524 l 1
 105 575 l 1
 156 628 l 1
 124 637 95 643 72 647 c 1
 107 761 l 1
 153 754 193 745 251 726 c 1
 326 804 l 1
 415 727 l 1
 361 673 l 1
288 110 m 0
 347 110 370 155 370 253 c 2
 370 326 l 1
 348 347 319 358 286 358 c 0
 229 358 205 313 205 236 c 0
 205 144 237 110 288 110 c 0
EndSplineSet
EndChar

StartChar: uni00F1
Encoding: 241 241 176
Width: 572
Flags: W
LayerCount: 2
Fore
SplineSet
236 672 m 0
 211 672 199 657 183 629 c 1
 97 671 l 1
 122 739 169 798 232 798 c 0
 264 798 281 789 302 775 c 0
 321 761 333 754 348 754 c 0
 371 754 384 768 400 797 c 1
 486 755 l 1
 460 685 413 628 350 628 c 0
 322 628 304 636 283 650 c 0
 264 664 253 672 236 672 c 0
381 551 m 0
 472 551 527 493 527 391 c 2
 527 0 l 1
 349 0 l 1
 349 359 l 2
 349 408 333 421 309 421 c 0
 281 421 255 400 229 360 c 1
 229 0 l 1
 51 0 l 1
 51 533 l 1
 207 533 l 1
 220 473 l 1
 267 526 316 551 381 551 c 0
EndSplineSet
EndChar

StartChar: uni00F2
Encoding: 242 242 177
Width: 584
Flags: W
LayerCount: 2
Fore
SplineSet
224 846 m 1
 448 707 l 1
 400 618 l 1
 156 714 l 1
 224 846 l 1
292 551 m 0
 457 551 559 448 559 266 c 0
 559 94 458 -18 292 -18 c 0
 127 -18 25 85 25 267 c 0
 25 439 126 551 292 551 c 0
292 422 m 0
 235 422 208 375 208 267 c 0
 208 155 235 111 292 111 c 0
 349 111 376 158 376 266 c 0
 376 377 349 422 292 422 c 0
EndSplineSet
EndChar

StartChar: uni00F3
Encoding: 243 243 178
Width: 584
Flags: W
LayerCount: 2
Fore
SplineSet
362 846 m 1
 430 714 l 1
 186 618 l 1
 138 707 l 1
 362 846 l 1
292 551 m 0
 457 551 559 448 559 266 c 0
 559 94 458 -18 292 -18 c 0
 127 -18 25 85 25 267 c 0
 25 439 126 551 292 551 c 0
292 422 m 0
 235 422 208 375 208 267 c 0
 208 155 235 111 292 111 c 0
 349 111 376 158 376 266 c 0
 376 377 349 422 292 422 c 0
EndSplineSet
EndChar

StartChar: uni00F4
Encoding: 244 244 179
Width: 584
Flags: W
LayerCount: 2
Fore
SplineSet
157 616 m 1
 95 687 l 1
 238 831 l 1
 345 831 l 1
 489 687 l 1
 427 616 l 1
 292 710 l 1
 157 616 l 1
292 551 m 0
 457 551 559 448 559 266 c 0
 559 94 458 -18 292 -18 c 0
 127 -18 25 85 25 267 c 0
 25 439 126 551 292 551 c 0
292 422 m 0
 235 422 208 375 208 267 c 0
 208 155 235 111 292 111 c 0
 349 111 376 158 376 266 c 0
 376 377 349 422 292 422 c 0
EndSplineSet
EndChar

StartChar: uni00F5
Encoding: 245 245 180
Width: 584
Flags: W
LayerCount: 2
Fore
SplineSet
350 628 m 0
 322 628 304 636 283 650 c 0
 264 664 253 672 236 672 c 0
 211 672 199 657 183 629 c 1
 97 671 l 1
 122 739 169 798 232 798 c 0
 264 798 281 789 302 775 c 0
 321 761 333 754 348 754 c 0
 371 754 384 768 400 797 c 1
 486 755 l 1
 460 685 413 628 350 628 c 0
292 551 m 0
 457 551 559 448 559 266 c 0
 559 94 458 -18 292 -18 c 0
 127 -18 25 85 25 267 c 0
 25 439 126 551 292 551 c 0
292 422 m 0
 235 422 208 375 208 267 c 0
 208 155 235 111 292 111 c 0
 349 111 376 158 376 266 c 0
 376 377 349 422 292 422 c 0
EndSplineSet
EndChar

StartChar: uni00F6
Encoding: 246 246 181
Width: 584
Flags: W
LayerCount: 2
Fore
SplineSet
172 809 m 0
 222 809 260 771 260 723 c 0
 260 675 222 637 172 637 c 0
 124 637 84 675 84 723 c 0
 84 771 124 809 172 809 c 0
410 809 m 0
 460 809 498 771 498 723 c 0
 498 675 460 637 410 637 c 0
 362 637 322 675 322 723 c 0
 322 771 362 809 410 809 c 0
292 551 m 0
 457 551 559 448 559 266 c 0
 559 94 458 -18 292 -18 c 0
 127 -18 25 85 25 267 c 0
 25 439 126 551 292 551 c 0
292 422 m 0
 235 422 208 375 208 267 c 0
 208 155 235 111 292 111 c 0
 349 111 376 158 376 266 c 0
 376 377 349 422 292 422 c 0
EndSplineSet
EndChar

StartChar: uni00F7
Encoding: 247 247 182
Width: 524
Flags: W
LayerCount: 2
Fore
SplineSet
262 674 m 0
 316 674 359 630 359 577 c 0
 359 525 316 481 262 481 c 0
 209 481 166 525 166 577 c 0
 166 630 209 674 262 674 c 0
44 264 m 1
 44 400 l 1
 480 400 l 1
 480 264 l 1
 44 264 l 1
262 184 m 0
 316 184 359 140 359 87 c 0
 359 34 316 -10 262 -10 c 0
 209 -10 166 34 166 87 c 0
 166 140 209 184 262 184 c 0
EndSplineSet
EndChar

StartChar: uni00F8
Encoding: 248 248 183
Width: 584
Flags: W
LayerCount: 2
Fore
SplineSet
446 511 m 1
 518 465 559 382 559 266 c 0
 559 94 458 -18 292 -18 c 0
 283 -18 273 -18 264 -17 c 1
 227 -136 l 1
 99 -99 l 1
 138 22 l 1
 66 68 25 152 25 267 c 0
 25 439 126 551 292 551 c 0
 302 551 311 551 320 550 c 1
 359 670 l 1
 486 632 l 1
 446 511 l 1
292 422 m 2
 227 422 192 375 192 267 c 0
 192 207 199 169 211 146 c 1
 302 422 l 1
 292 422 l 2
292 111 m 2
 357 111 392 158 392 266 c 0
 392 325 386 362 374 385 c 1
 283 111 l 1
 292 111 l 2
EndSplineSet
EndChar

StartChar: uni00F9
Encoding: 249 249 184
Width: 566
Flags: W
LayerCount: 2
Fore
SplineSet
212 846 m 1
 436 707 l 1
 388 618 l 1
 144 714 l 1
 212 846 l 1
515 533 m 1
 515 0 l 1
 359 0 l 1
 352 63 l 1
 315 8 262 -18 193 -18 c 0
 92 -18 45 48 45 150 c 2
 45 533 l 1
 223 533 l 1
 223 173 l 2
 223 125 239 112 265 112 c 0
 290 112 316 130 337 165 c 1
 337 533 l 1
 515 533 l 1
EndSplineSet
EndChar

StartChar: uni00FA
Encoding: 250 250 185
Width: 566
Flags: W
LayerCount: 2
Fore
SplineSet
350 846 m 1
 418 714 l 1
 174 618 l 1
 126 707 l 1
 350 846 l 1
515 533 m 1
 515 0 l 1
 359 0 l 1
 352 63 l 1
 315 8 262 -18 193 -18 c 0
 92 -18 45 48 45 150 c 2
 45 533 l 1
 223 533 l 1
 223 173 l 2
 223 125 239 112 265 112 c 0
 290 112 316 130 337 165 c 1
 337 533 l 1
 515 533 l 1
EndSplineSet
EndChar

StartChar: uni00FB
Encoding: 251 251 186
Width: 566
Flags: W
LayerCount: 2
Fore
SplineSet
145 616 m 1
 83 687 l 1
 226 831 l 1
 333 831 l 1
 477 687 l 1
 415 616 l 1
 280 710 l 1
 145 616 l 1
515 533 m 1
 515 0 l 1
 359 0 l 1
 352 63 l 1
 315 8 262 -18 193 -18 c 0
 92 -18 45 48 45 150 c 2
 45 533 l 1
 223 533 l 1
 223 173 l 2
 223 125 239 112 265 112 c 0
 290 112 316 130 337 165 c 1
 337 533 l 1
 515 533 l 1
EndSplineSet
EndChar

StartChar: uni00FC
Encoding: 252 252 187
Width: 566
Flags: W
LayerCount: 2
Fore
SplineSet
161 809 m 0
 211 809 249 771 249 723 c 0
 249 675 211 637 161 637 c 0
 113 637 73 675 73 723 c 0
 73 771 113 809 161 809 c 0
399 809 m 0
 449 809 487 771 487 723 c 0
 487 675 449 637 399 637 c 0
 351 637 311 675 311 723 c 0
 311 771 351 809 399 809 c 0
515 533 m 1
 515 0 l 1
 359 0 l 1
 352 63 l 1
 315 8 262 -18 193 -18 c 0
 92 -18 45 48 45 150 c 2
 45 533 l 1
 223 533 l 1
 223 173 l 2
 223 125 239 112 265 112 c 0
 290 112 316 130 337 165 c 1
 337 533 l 1
 515 533 l 1
EndSplineSet
EndChar

StartChar: uni00FD
Encoding: 253 253 188
Width: 526
Flags: W
LayerCount: 2
Fore
SplineSet
333 846 m 1
 401 714 l 1
 157 618 l 1
 109 707 l 1
 333 846 l 1
536 533 m 1
 370 0 l 2
 327 -141 227 -218 55 -225 c 1
 36 -102 l 1
 139 -91 179 -64 207 0 c 1
 146 0 l 1
 -10 533 l 1
 179 533 l 1
 260 111 l 1
 353 533 l 1
 536 533 l 1
EndSplineSet
EndChar

StartChar: uni00FE
Encoding: 254 254 189
Width: 592
Flags: W
LayerCount: 2
Fore
SplineSet
366 551 m 0
 506 551 568 442 568 268 c 0
 568 103 486 -18 356 -18 c 0
 305 -18 261 0 229 37 c 1
 229 -205 l 1
 51 -224 l 1
 51 743 l 1
 229 761 l 1
 229 486 l 1
 272 536 323 551 366 551 c 0
299 110 m 0
 351 110 385 152 385 266 c 0
 385 396 354 422 307 422 c 0
 279 422 251 403 229 366 c 1
 229 153 l 1
 249 123 270 110 299 110 c 0
EndSplineSet
EndChar

StartChar: uni00FF
Encoding: 255 255 190
Width: 526
Flags: W
LayerCount: 2
Fore
SplineSet
143 809 m 0
 193 809 231 771 231 723 c 0
 231 675 193 637 143 637 c 0
 95 637 55 675 55 723 c 0
 55 771 95 809 143 809 c 0
381 809 m 0
 431 809 469 771 469 723 c 0
 469 675 431 637 381 637 c 0
 333 637 293 675 293 723 c 0
 293 771 333 809 381 809 c 0
536 533 m 1
 370 0 l 2
 327 -141 227 -218 55 -225 c 1
 36 -102 l 1
 139 -91 179 -64 207 0 c 1
 146 0 l 1
 -10 533 l 1
 179 533 l 1
 260 111 l 1
 353 533 l 1
 536 533 l 1
EndSplineSet
EndChar

StartChar: uni0100
Encoding: 256 256 191
Width: 596
Flags: W
LayerCount: 2
Fore
SplineSet
455 778 m 1
 140 778 l 1
 140 899 l 1
 455 899 l 1
 455 778 l 1
419 0 m 1
 388 142 l 1
 204 142 l 1
 173 0 l 1
 -19 0 l 1
 187 695 l 1
 409 695 l 1
 615 0 l 1
 419 0 l 1
233 274 m 1
 359 274 l 1
 296 563 l 1
 233 274 l 1
EndSplineSet
EndChar

StartChar: uni0101
Encoding: 257 257 192
Width: 549
Flags: W
LayerCount: 2
Fore
SplineSet
430 652 m 1
 115 652 l 1
 115 773 l 1
 430 773 l 1
 430 652 l 1
493 164 m 2
 493 124 503 109 527 100 c 1
 491 -15 l 1
 425 -10 382 9 355 60 c 1
 316 2 256 -18 194 -18 c 0
 88 -18 20 51 20 149 c 0
 20 266 109 331 273 331 c 2
 319 331 l 1
 319 349 l 2
 319 407 297 423 236 423 c 0
 203 423 150 413 97 395 c 1
 58 510 l 1
 124 537 203 551 263 551 c 0
 425 551 493 486 493 358 c 2
 493 164 l 2
248 107 m 0
 278 107 303 124 319 149 c 1
 319 236 l 1
 289 236 l 2
 225 236 195 213 195 166 c 0
 195 130 214 107 248 107 c 0
EndSplineSet
EndChar

StartChar: uni0102
Encoding: 258 258 193
Width: 596
Flags: W
LayerCount: 2
Fore
SplineSet
298 748 m 0
 186 748 128 834 120 922 c 1
 215 939 l 1
 227 901 253 870 298 870 c 0
 344 870 371 901 382 939 c 1
 477 922 l 1
 469 834 411 748 298 748 c 0
419 0 m 1
 388 142 l 1
 204 142 l 1
 173 0 l 1
 -19 0 l 1
 187 695 l 1
 409 695 l 1
 615 0 l 1
 419 0 l 1
233 274 m 1
 359 274 l 1
 296 563 l 1
 233 274 l 1
EndSplineSet
EndChar

StartChar: uni0103
Encoding: 259 259 194
Width: 549
Flags: W
LayerCount: 2
Fore
SplineSet
272 629 m 0
 160 629 102 715 94 813 c 1
 189 830 l 1
 201 782 227 751 272 751 c 0
 318 751 345 782 356 830 c 1
 451 813 l 1
 443 715 385 629 272 629 c 0
493 164 m 2
 493 124 503 109 527 100 c 1
 491 -15 l 1
 426 -10 382 9 355 60 c 1
 317 2 257 -18 194 -18 c 0
 88 -18 20 51 20 149 c 0
 20 266 109 331 273 331 c 2
 319 331 l 1
 319 349 l 2
 319 407 297 423 236 423 c 0
 203 423 150 413 97 395 c 1
 58 510 l 1
 124 537 203 551 263 551 c 0
 425 551 493 486 493 358 c 2
 493 164 l 2
248 107 m 0
 278 107 303 124 319 149 c 1
 319 236 l 1
 289 236 l 2
 225 236 195 213 195 166 c 0
 195 130 214 107 248 107 c 0
EndSplineSet
EndChar

StartChar: uni0104
Encoding: 260 260 195
Width: 596
Flags: W
LayerCount: 2
Fore
SplineSet
518 0 m 1
 421 -34 402 -72 402 -99 c 0
 402 -129 420 -143 454 -143 c 0
 473 -143 492 -141 515 -136 c 1
 503 -242 l 1
 482 -247 458 -250 431 -250 c 0
 344 -250 278 -204 278 -129 c 0
 278 -53 332 -4 412 30 c 1
 388 142 l 1
 204 142 l 1
 173 0 l 1
 -19 0 l 1
 187 695 l 1
 409 695 l 1
 615 0 l 1
 518 0 l 1
233 274 m 1
 359 274 l 1
 296 563 l 1
 233 274 l 1
EndSplineSet
EndChar

StartChar: uni0105
Encoding: 261 261 196
Width: 549
Flags: W
LayerCount: 2
Fore
SplineSet
527 100 m 1
 491 -15 l 1
 490 -15 l 1
 393 -49 374 -87 374 -114 c 0
 374 -144 392 -158 426 -158 c 0
 445 -158 464 -156 487 -151 c 1
 475 -257 l 1
 454 -262 430 -265 403 -265 c 0
 316 -265 250 -219 250 -144 c 0
 250 -66 306 -16 390 17 c 1
 376 28 365 42 355 60 c 1
 316 2 256 -18 194 -18 c 0
 88 -18 20 51 20 149 c 0
 20 266 109 331 273 331 c 2
 319 331 l 1
 319 349 l 2
 319 407 297 423 236 423 c 0
 203 423 150 413 97 395 c 1
 58 510 l 1
 124 537 203 551 263 551 c 0
 425 551 493 486 493 358 c 2
 493 164 l 2
 493 124 503 109 527 100 c 1
319 149 m 1
 319 236 l 1
 289 236 l 2
 225 236 195 213 195 166 c 0
 195 130 214 107 248 107 c 0
 278 107 303 124 319 149 c 1
EndSplineSet
EndChar

StartChar: uni0106
Encoding: 262 262 197
Width: 579
Flags: W
LayerCount: 2
Fore
SplineSet
438 970 m 1
 502 839 l 1
 255 750 l 1
 210 840 l 1
 438 970 l 1
350 713 m 0
 441 713 509 684 568 634 c 1
 481 531 l 1
 443 560 406 578 359 578 c 0
 275 578 219 508 219 349 c 0
 219 192 274 122 361 122 c 0
 413 122 452 146 494 179 c 1
 576 75 l 1
 527 26 449 -18 353 -18 c 0
 156 -18 27 110 27 349 c 0
 27 581 162 713 350 713 c 0
EndSplineSet
EndChar

StartChar: uni0107
Encoding: 263 263 198
Width: 479
Flags: W
LayerCount: 2
Fore
SplineSet
361 846 m 1
 429 714 l 1
 185 618 l 1
 137 707 l 1
 361 846 l 1
293 551 m 0
 372 551 431 527 481 483 c 1
 406 379 l 1
 374 405 343 416 309 416 c 0
 246 416 210 376 210 263 c 0
 210 150 250 120 307 120 c 0
 342 120 367 132 404 155 c 1
 481 46 l 1
 433 6 374 -18 298 -18 c 0
 128 -18 25 95 25 262 c 0
 25 431 129 551 293 551 c 0
EndSplineSet
EndChar

StartChar: uni010C
Encoding: 268 268 199
Width: 579
Flags: W
LayerCount: 2
Fore
SplineSet
491 954 m 1
 553 883 l 1
 410 748 l 1
 302 748 l 1
 159 883 l 1
 221 954 l 1
 356 869 l 1
 491 954 l 1
350 713 m 0
 441 713 509 684 568 634 c 1
 481 531 l 1
 443 560 406 578 359 578 c 0
 275 578 219 508 219 349 c 0
 219 192 274 122 361 122 c 0
 413 122 452 146 494 179 c 1
 576 75 l 1
 527 26 449 -18 353 -18 c 0
 156 -18 27 110 27 349 c 0
 27 581 162 713 350 713 c 0
EndSplineSet
EndChar

StartChar: uni010D
Encoding: 269 269 200
Width: 479
Flags: W
LayerCount: 2
Fore
SplineSet
427 822 m 1
 489 751 l 1
 346 607 l 1
 238 607 l 1
 95 751 l 1
 157 822 l 1
 292 728 l 1
 427 822 l 1
293 551 m 0
 372 551 431 527 481 483 c 1
 406 379 l 1
 374 405 343 416 309 416 c 0
 246 416 210 376 210 263 c 0
 210 150 250 120 307 120 c 0
 342 120 367 132 404 155 c 1
 481 46 l 1
 433 6 374 -18 298 -18 c 0
 128 -18 25 95 25 262 c 0
 25 431 129 551 293 551 c 0
EndSplineSet
EndChar

StartChar: uni010E
Encoding: 270 270 201
Width: 654
Flags: W
LayerCount: 2
Fore
SplineSet
428 954 m 1
 490 883 l 1
 347 748 l 1
 239 748 l 1
 96 883 l 1
 158 954 l 1
 293 869 l 1
 428 954 l 1
262 695 m 2
 450 695 627 636 627 350 c 0
 627 72 461 0 276 0 c 2
 54 0 l 1
 54 695 l 1
 262 695 l 2
286 563 m 2
 239 563 l 1
 239 132 l 1
 287 132 l 2
 382 132 436 179 436 350 c 0
 436 523 378 563 286 563 c 2
EndSplineSet
EndChar

StartChar: uni010F
Encoding: 271 271 202
Width: 712
Flags: W
LayerCount: 2
Fore
SplineSet
365 505 m 1
 365 761 l 1
 543 743 l 1
 543 0 l 1
 385 0 l 1
 378 59 l 1
 349 18 301 -18 227 -18 c 0
 90 -18 25 95 25 268 c 0
 25 433 112 551 245 551 c 0
 294 551 335 534 365 505 c 1
609 761 m 1
 739 742 l 1
 682 518 l 1
 585 532 l 1
 609 761 l 1
285 110 m 0
 317 110 343 127 365 163 c 1
 365 386 l 1
 344 409 324 423 295 423 c 0
 245 423 208 381 208 267 c 0
 208 137 241 110 285 110 c 0
EndSplineSet
EndChar

StartChar: uni0110
Encoding: 272 272 203
Width: 668
Flags: W
LayerCount: 2
Fore
SplineSet
276 695 m 2
 464 695 642 636 642 350 c 0
 642 72 475 0 290 0 c 2
 68 0 l 1
 68 299 l 1
 12 299 l 1
 12 407 l 1
 68 407 l 1
 68 695 l 1
 276 695 l 2
301 132 m 2
 397 132 451 179 451 350 c 0
 451 523 393 563 301 563 c 2
 253 563 l 1
 253 407 l 1
 381 407 l 1
 381 299 l 1
 253 299 l 1
 253 132 l 1
 301 132 l 2
EndSplineSet
EndChar

StartChar: uni0111
Encoding: 273 273 204
Width: 610
Flags: W
LayerCount: 2
Fore
SplineSet
543 692 m 1
 606 692 l 1
 606 593 l 1
 543 593 l 1
 543 0 l 1
 385 0 l 1
 378 59 l 1
 349 18 301 -18 227 -18 c 0
 90 -18 25 95 25 268 c 0
 25 433 112 551 245 551 c 0
 294 551 335 534 365 505 c 1
 365 593 l 1
 240 593 l 1
 240 692 l 1
 365 692 l 1
 365 761 l 1
 543 743 l 1
 543 692 l 1
285 110 m 0
 317 110 343 127 365 163 c 1
 365 386 l 1
 344 409 324 423 295 423 c 0
 245 423 208 381 208 267 c 0
 208 137 241 110 285 110 c 0
EndSplineSet
EndChar

StartChar: uni0112
Encoding: 274 274 205
Width: 523
Flags: W
LayerCount: 2
Fore
SplineSet
432 778 m 1
 117 778 l 1
 117 899 l 1
 432 899 l 1
 432 778 l 1
495 695 m 1
 476 564 l 1
 239 564 l 1
 239 416 l 1
 446 416 l 1
 446 289 l 1
 239 289 l 1
 239 131 l 1
 492 131 l 1
 492 0 l 1
 54 0 l 1
 54 695 l 1
 495 695 l 1
EndSplineSet
EndChar

StartChar: uni0113
Encoding: 275 275 206
Width: 557
Flags: W
LayerCount: 2
Fore
SplineSet
441 652 m 1
 126 652 l 1
 126 773 l 1
 441 773 l 1
 441 652 l 1
535 275 m 0
 535 258 533 233 532 215 c 1
 205 215 l 1
 216 129 257 109 319 109 c 0
 360 109 397 124 443 156 c 1
 515 58 l 1
 463 15 391 -18 302 -18 c 0
 115 -18 25 99 25 264 c 0
 25 422 112 551 282 551 c 0
 437 551 535 451 535 275 c 0
360 319 m 1
 360 325 l 2
 359 389 342 436 285 436 c 0
 238 436 212 407 205 319 c 1
 360 319 l 1
EndSplineSet
EndChar

StartChar: uni0116
Encoding: 278 278 207
Width: 523
Flags: W
LayerCount: 2
Fore
SplineSet
275 946 m 0
 335 946 377 903 377 848 c 0
 377 793 335 750 275 750 c 0
 215 750 173 793 173 848 c 0
 173 903 215 946 275 946 c 0
495 695 m 1
 476 564 l 1
 239 564 l 1
 239 416 l 1
 446 416 l 1
 446 289 l 1
 239 289 l 1
 239 131 l 1
 492 131 l 1
 492 0 l 1
 54 0 l 1
 54 695 l 1
 495 695 l 1
EndSplineSet
EndChar

StartChar: uni0117
Encoding: 279 279 208
Width: 557
Flags: W
LayerCount: 2
Fore
SplineSet
284 820 m 0
 344 820 386 777 386 722 c 0
 386 667 344 624 284 624 c 0
 224 624 182 667 182 722 c 0
 182 777 224 820 284 820 c 0
535 275 m 0
 535 258 533 233 532 215 c 1
 205 215 l 1
 216 129 257 109 319 109 c 0
 360 109 397 124 443 156 c 1
 515 58 l 1
 463 15 391 -18 302 -18 c 0
 115 -18 25 99 25 264 c 0
 25 422 112 551 282 551 c 0
 437 551 535 451 535 275 c 0
360 319 m 1
 360 325 l 2
 359 389 342 436 285 436 c 0
 238 436 212 407 205 319 c 1
 360 319 l 1
EndSplineSet
EndChar

StartChar: uni0118
Encoding: 280 280 209
Width: 523
Flags: W
LayerCount: 2
Fore
SplineSet
239 289 m 1
 239 131 l 1
 492 131 l 1
 492 0 l 1
 452 0 l 1
 355 -34 336 -72 336 -99 c 0
 336 -129 354 -143 388 -143 c 0
 407 -143 426 -141 449 -136 c 1
 437 -242 l 1
 416 -247 392 -250 365 -250 c 0
 278 -250 212 -204 212 -129 c 0
 212 -73 241 -31 289 0 c 1
 54 0 l 1
 54 695 l 1
 495 695 l 1
 476 564 l 1
 239 564 l 1
 239 416 l 1
 446 416 l 1
 446 289 l 1
 239 289 l 1
EndSplineSet
EndChar

StartChar: uni0119
Encoding: 281 281 210
Width: 557
Flags: W
LayerCount: 2
Fore
SplineSet
535 275 m 0
 535 258 533 233 532 215 c 1
 205 215 l 1
 216 129 257 109 319 109 c 0
 360 109 397 124 443 156 c 1
 515 58 l 1
 483 32 444 9 398 -4 c 1
 332 -34 317 -66 317 -89 c 0
 317 -119 336 -133 369 -133 c 0
 389 -133 408 -131 430 -126 c 1
 419 -232 l 1
 397 -237 374 -240 347 -240 c 0
 260 -240 194 -194 194 -119 c 0
 194 -73 219 -39 257 -16 c 1
 101 2 25 113 25 264 c 0
 25 422 112 551 282 551 c 0
 437 551 535 451 535 275 c 0
360 319 m 1
 360 325 l 2
 359 389 342 436 285 436 c 0
 238 436 212 407 205 319 c 1
 360 319 l 1
EndSplineSet
EndChar

StartChar: uni011A
Encoding: 282 282 211
Width: 523
Flags: W
LayerCount: 2
Fore
SplineSet
411 954 m 1
 473 883 l 1
 330 748 l 1
 222 748 l 1
 79 883 l 1
 141 954 l 1
 276 869 l 1
 411 954 l 1
495 695 m 1
 476 564 l 1
 239 564 l 1
 239 416 l 1
 446 416 l 1
 446 289 l 1
 239 289 l 1
 239 131 l 1
 492 131 l 1
 492 0 l 1
 54 0 l 1
 54 695 l 1
 495 695 l 1
EndSplineSet
EndChar

StartChar: uni011B
Encoding: 283 283 212
Width: 557
Flags: W
LayerCount: 2
Fore
SplineSet
338 607 m 1
 230 607 l 1
 87 751 l 1
 149 822 l 1
 284 728 l 1
 419 822 l 1
 481 751 l 1
 338 607 l 1
535 275 m 0
 535 258 533 233 532 215 c 1
 206 215 l 1
 216 129 257 109 319 109 c 0
 360 109 397 124 443 156 c 1
 515 58 l 1
 463 15 391 -18 302 -18 c 0
 115 -18 25 99 25 264 c 0
 25 422 112 551 282 551 c 0
 437 551 535 451 535 275 c 0
360 319 m 1
 360 325 l 2
 359 389 342 436 285 436 c 0
 238 436 212 408 205 319 c 1
 360 319 l 1
EndSplineSet
EndChar

StartChar: uni011E
Encoding: 286 286 213
Width: 649
Flags: W
LayerCount: 2
Fore
SplineSet
350 748 m 0
 238 748 180 834 172 922 c 1
 267 939 l 1
 279 901 305 870 350 870 c 0
 396 870 423 901 434 939 c 1
 529 922 l 1
 521 834 463 748 350 748 c 0
368 713 m 0
 472 713 550 675 607 625 c 1
 516 530 l 1
 469 564 432 582 378 582 c 0
 281 582 218 510 218 347 c 0
 218 171 260 115 348 115 c 0
 379 115 405 121 430 134 c 1
 430 277 l 1
 351 277 l 1
 333 404 l 1
 609 404 l 1
 609 58 l 1
 536 10 440 -18 353 -18 c 0
 130 -18 27 111 27 348 c 0
 27 583 175 713 368 713 c 0
EndSplineSet
EndChar

StartChar: uni011F
Encoding: 287 287 214
Width: 561
Flags: W
LayerCount: 2
Fore
SplineSet
280 629 m 0
 168 629 110 715 102 813 c 1
 197 830 l 1
 209 782 235 751 280 751 c 0
 326 751 353 782 364 830 c 1
 459 813 l 1
 451 715 393 629 280 629 c 0
521 627 m 1
 561 499 l 1
 525 484 476 476 408 476 c 1
 477 448 510 409 510 338 c 0
 510 236 422 161 280 161 c 0
 258 161 240 162 221 166 c 1
 212 160 206 151 206 141 c 0
 206 128 212 112 262 112 c 2
 340 112 l 2
 469 112 550 47 550 -44 c 0
 550 -155 451 -224 263 -224 c 0
 53 -224 1 -154 1 -50 c 1
 160 -50 l 1
 160 -93 178 -109 268 -109 c 0
 354 -109 371 -84 371 -57 c 0
 371 -32 353 -11 305 -11 c 2
 229 -11 l 2
 106 -11 57 37 57 95 c 0
 57 136 84 176 123 199 c 1
 52 237 25 285 25 353 c 0
 25 478 122 551 267 551 c 1
 382 547 455 585 521 627 c 1
272 435 m 0
 230 435 202 407 202 357 c 0
 202 302 231 275 273 275 c 0
 319 275 343 303 343 359 c 0
 343 412 320 435 272 435 c 0
EndSplineSet
EndChar

StartChar: uni0122
Encoding: 290 290 215
Width: 649
Flags: W
LayerCount: 2
Fore
SplineSet
368 713 m 0
 472 713 550 675 607 625 c 1
 516 530 l 1
 469 564 432 582 378 582 c 0
 281 582 218 510 218 347 c 0
 218 171 260 115 348 115 c 0
 379 115 405 121 430 134 c 1
 430 277 l 1
 351 277 l 1
 333 404 l 1
 609 404 l 1
 609 58 l 1
 536 10 440 -18 353 -18 c 0
 130 -18 27 111 27 348 c 0
 27 583 175 713 368 713 c 0
350 -65 m 0
 399 -65 435 -101 435 -149 c 0
 435 -178 426 -198 408 -235 c 2
 360 -333 l 1
 274 -333 l 1
 299 -219 l 1
 279 -203 264 -180 264 -149 c 0
 264 -103 300 -65 350 -65 c 0
EndSplineSet
EndChar

StartChar: uni0123
Encoding: 291 291 216
Width: 561
Flags: W
LayerCount: 2
Fore
SplineSet
275 575 m 0
 226 575 190 611 190 659 c 0
 190 688 199 709 217 745 c 2
 265 843 l 1
 351 843 l 1
 326 729 l 1
 346 713 361 690 361 659 c 0
 361 613 325 575 275 575 c 0
521 627 m 1
 561 499 l 1
 525 484 476 476 408 476 c 1
 477 448 510 409 510 338 c 0
 510 236 422 161 280 161 c 0
 258 161 240 162 221 166 c 1
 212 160 206 151 206 141 c 0
 206 128 212 112 262 112 c 2
 340 112 l 2
 469 112 550 47 550 -44 c 0
 550 -155 451 -224 263 -224 c 0
 53 -224 1 -154 1 -50 c 1
 160 -50 l 1
 160 -93 178 -109 268 -109 c 0
 354 -109 371 -84 371 -57 c 0
 371 -32 353 -11 305 -11 c 2
 229 -11 l 2
 106 -11 57 37 57 95 c 0
 57 136 84 176 123 199 c 1
 52 237 25 285 25 353 c 0
 25 478 122 551 267 551 c 1
 382 547 455 585 521 627 c 1
272 435 m 0
 230 435 202 407 202 357 c 0
 202 302 231 275 273 275 c 0
 319 275 343 303 343 359 c 0
 343 412 320 435 272 435 c 0
EndSplineSet
EndChar

StartChar: uni012A
Encoding: 298 298 217
Width: 293
Flags: W
LayerCount: 2
Fore
SplineSet
303 778 m 1
 -12 778 l 1
 -12 899 l 1
 303 899 l 1
 303 778 l 1
239 695 m 1
 239 0 l 1
 54 0 l 1
 54 695 l 1
 239 695 l 1
EndSplineSet
EndChar

StartChar: uni012B
Encoding: 299 299 218
Width: 281
Flags: W
LayerCount: 2
Fore
SplineSet
297 652 m 1
 -18 652 l 1
 -18 773 l 1
 297 773 l 1
 297 652 l 1
229 533 m 1
 229 0 l 1
 51 0 l 1
 51 533 l 1
 229 533 l 1
EndSplineSet
EndChar

StartChar: uni012E
Encoding: 302 302 219
Width: 293
Flags: W
LayerCount: 2
Fore
SplineSet
54 695 m 1
 239 695 l 1
 239 0 l 1
 201 0 l 1
 104 -34 85 -72 85 -99 c 0
 85 -129 103 -143 137 -143 c 0
 156 -143 175 -141 198 -136 c 1
 186 -242 l 1
 165 -247 141 -250 114 -250 c 0
 27 -250 -39 -204 -39 -129 c 0
 -39 -67 -3 -22 54 10 c 1
 54 695 l 1
EndSplineSet
EndChar

StartChar: uni012F
Encoding: 303 303 220
Width: 281
Flags: W
LayerCount: 2
Fore
SplineSet
140 624 m 0
 80 624 38 667 38 722 c 0
 38 777 80 820 140 820 c 0
 200 820 242 777 242 722 c 0
 242 667 200 624 140 624 c 0
51 10 m 1
 51 533 l 1
 229 533 l 1
 229 0 l 1
 197 0 l 1
 100 -34 81 -72 81 -99 c 0
 81 -129 99 -143 133 -143 c 0
 152 -143 171 -141 194 -136 c 1
 182 -242 l 1
 161 -247 137 -250 110 -250 c 0
 23 -250 -43 -204 -43 -129 c 0
 -43 -66 -7 -22 51 10 c 1
EndSplineSet
EndChar

StartChar: uni0130
Encoding: 304 304 221
Width: 293
Flags: W
LayerCount: 2
Fore
SplineSet
146 946 m 0
 206 946 248 903 248 848 c 0
 248 793 206 750 146 750 c 0
 86 750 44 793 44 848 c 0
 44 903 86 946 146 946 c 0
239 695 m 1
 239 0 l 1
 54 0 l 1
 54 695 l 1
 239 695 l 1
EndSplineSet
EndChar

StartChar: uni0131
Encoding: 305 305 222
Width: 281
Flags: W
LayerCount: 2
Fore
SplineSet
229 533 m 1
 229 0 l 1
 51 0 l 1
 51 533 l 1
 229 533 l 1
EndSplineSet
EndChar

StartChar: uni0136
Encoding: 310 310 223
Width: 646
Flags: W
LayerCount: 2
Fore
SplineSet
239 695 m 1
 239 0 l 1
 54 0 l 1
 54 695 l 1
 239 695 l 1
644 695 m 1
 435 385 l 1
 662 0 l 1
 450 0 l 1
 245 370 l 1
 451 695 l 1
 644 695 l 1
328 -65 m 0
 377 -65 413 -101 413 -149 c 0
 413 -178 404 -198 386 -235 c 2
 338 -333 l 1
 252 -333 l 1
 277 -219 l 1
 257 -203 242 -180 242 -149 c 0
 242 -103 278 -65 328 -65 c 0
EndSplineSet
EndChar

StartChar: uni0137
Encoding: 311 311 224
Width: 563
Flags: W
LayerCount: 2
Fore
SplineSet
229 761 m 1
 229 0 l 1
 51 0 l 1
 51 743 l 1
 229 761 l 1
565 533 m 1
 414 299 l 1
 576 0 l 1
 377 0 l 1
 234 291 l 1
 386 533 l 1
 565 533 l 1
282 -65 m 0
 331 -65 367 -101 367 -149 c 0
 367 -178 358 -198 340 -235 c 2
 292 -333 l 1
 206 -333 l 1
 231 -219 l 1
 211 -203 196 -180 196 -149 c 0
 196 -103 232 -65 282 -65 c 0
EndSplineSet
EndChar

StartChar: uni0139
Encoding: 313 313 225
Width: 517
Flags: W
LayerCount: 2
Fore
SplineSet
228 970 m 1
 292 839 l 1
 45 750 l 1
 0 840 l 1
 228 970 l 1
239 695 m 1
 239 144 l 1
 506 144 l 1
 486 0 l 1
 54 0 l 1
 54 695 l 1
 239 695 l 1
EndSplineSet
EndChar

StartChar: uni013A
Encoding: 314 314 226
Width: 301
Flags: W
LayerCount: 2
Fore
SplineSet
216 1018 m 1
 280 887 l 1
 33 798 l 1
 -12 888 l 1
 216 1018 l 1
202 -18 m 0
 101 -18 45 40 45 145 c 2
 45 743 l 1
 223 761 l 1
 223 151 l 2
 223 132 231 122 248 122 c 0
 258 122 266 124 272 126 c 1
 305 0 l 1
 280 -11 243 -18 202 -18 c 0
EndSplineSet
EndChar

StartChar: uni013B
Encoding: 315 315 227
Width: 517
Flags: W
LayerCount: 2
Fore
SplineSet
239 695 m 1
 239 144 l 1
 506 144 l 1
 486 0 l 1
 54 0 l 1
 54 695 l 1
 239 695 l 1
271 -65 m 0
 320 -65 356 -101 356 -149 c 0
 356 -178 347 -198 329 -235 c 2
 281 -333 l 1
 195 -333 l 1
 220 -219 l 1
 200 -203 185 -180 185 -149 c 0
 185 -103 221 -65 271 -65 c 0
EndSplineSet
EndChar

StartChar: uni013C
Encoding: 316 316 228
Width: 301
Flags: W
LayerCount: 2
Fore
SplineSet
202 -18 m 0
 101 -18 45 40 45 145 c 2
 45 743 l 1
 223 761 l 1
 223 151 l 2
 223 132 231 122 248 122 c 0
 258 122 266 124 272 126 c 1
 305 0 l 1
 280 -11 243 -18 202 -18 c 0
183 -65 m 0
 232 -65 268 -101 268 -149 c 0
 268 -178 259 -198 241 -235 c 2
 193 -333 l 1
 107 -333 l 1
 132 -219 l 1
 112 -203 97 -180 97 -149 c 0
 97 -103 133 -65 183 -65 c 0
EndSplineSet
EndChar

StartChar: uni013D
Encoding: 317 317 229
Width: 517
Flags: W
LayerCount: 2
Fore
SplineSet
374 469 m 1
 431 694 l 1
 301 713 l 1
 277 484 l 1
 374 469 l 1
239 695 m 1
 239 144 l 1
 506 144 l 1
 486 0 l 1
 54 0 l 1
 54 695 l 1
 239 695 l 1
EndSplineSet
EndChar

StartChar: uni013E
Encoding: 318 318 230
Width: 392
Flags: W
LayerCount: 2
Fore
SplineSet
202 -18 m 0
 101 -18 45 40 45 145 c 2
 45 743 l 1
 223 761 l 1
 223 151 l 2
 223 132 231 122 248 122 c 0
 258 122 266 124 272 126 c 1
 305 0 l 1
 280 -11 243 -18 202 -18 c 0
358 518 m 1
 415 742 l 1
 285 761 l 1
 261 532 l 1
 358 518 l 1
EndSplineSet
EndChar

StartChar: uni0141
Encoding: 321 321 231
Width: 564
Flags: W
LayerCount: 2
Fore
SplineSet
286 144 m 1
 552 144 l 1
 533 0 l 1
 101 0 l 1
 101 215 l 1
 62 191 l 1
 4 286 l 1
 101 346 l 1
 101 695 l 1
 286 695 l 1
 286 461 l 1
 403 533 l 1
 463 439 l 1
 286 330 l 1
 286 144 l 1
EndSplineSet
EndChar

StartChar: uni0142
Encoding: 322 322 232
Width: 372
Flags: W
LayerCount: 2
Fore
SplineSet
284 122 m 0
 293 122 301 124 307 126 c 1
 340 0 l 1
 315 -11 278 -18 237 -18 c 0
 137 -18 80 40 80 145 c 2
 80 257 l 1
 43 235 l 1
 -14 329 l 1
 80 388 l 1
 80 743 l 1
 258 761 l 1
 258 495 l 1
 320 533 l 1
 377 438 l 1
 258 366 l 1
 258 151 l 2
 258 132 266 122 284 122 c 0
EndSplineSet
EndChar

StartChar: uni0143
Encoding: 323 323 233
Width: 657
Flags: W
LayerCount: 2
Fore
SplineSet
413 970 m 1
 477 839 l 1
 230 750 l 1
 185 840 l 1
 413 970 l 1
603 695 m 1
 603 0 l 1
 370 0 l 1
 194 523 l 1
 203 457 218 364 218 235 c 2
 218 0 l 1
 54 0 l 1
 54 695 l 1
 282 695 l 1
 464 170 l 1
 453 239 439 325 439 443 c 2
 439 695 l 1
 603 695 l 1
EndSplineSet
EndChar

StartChar: uni0144
Encoding: 324 324 234
Width: 572
Flags: W
LayerCount: 2
Fore
SplineSet
430 714 m 1
 186 618 l 1
 138 707 l 1
 362 846 l 1
 430 714 l 1
381 551 m 0
 472 551 527 493 527 391 c 2
 527 0 l 1
 349 0 l 1
 349 359 l 2
 349 408 333 421 309 421 c 0
 281 421 255 400 229 360 c 1
 229 0 l 1
 51 0 l 1
 51 533 l 1
 207 533 l 1
 220 473 l 1
 267 526 316 551 381 551 c 0
EndSplineSet
EndChar

StartChar: uni0145
Encoding: 325 325 235
Width: 657
Flags: W
LayerCount: 2
Fore
SplineSet
603 695 m 1
 603 0 l 1
 370 0 l 1
 194 523 l 1
 203 457 218 364 218 235 c 2
 218 0 l 1
 54 0 l 1
 54 695 l 1
 282 695 l 1
 464 170 l 1
 453 239 439 325 439 443 c 2
 439 695 l 1
 603 695 l 1
330 -65 m 0
 379 -65 415 -101 415 -149 c 0
 415 -178 406 -198 388 -235 c 2
 340 -333 l 1
 254 -333 l 1
 279 -219 l 1
 259 -203 244 -180 244 -149 c 0
 244 -103 280 -65 330 -65 c 0
EndSplineSet
EndChar

StartChar: uni0146
Encoding: 326 326 236
Width: 572
Flags: W
LayerCount: 2
Fore
SplineSet
381 551 m 0
 472 551 527 493 527 391 c 2
 527 0 l 1
 349 0 l 1
 349 359 l 2
 349 408 333 421 309 421 c 0
 281 421 255 400 229 360 c 1
 229 0 l 1
 51 0 l 1
 51 533 l 1
 207 533 l 1
 220 473 l 1
 267 526 316 551 381 551 c 0
288 -65 m 0
 337 -65 373 -101 373 -149 c 0
 373 -178 364 -198 346 -235 c 2
 298 -333 l 1
 212 -333 l 1
 237 -219 l 1
 217 -203 202 -180 202 -149 c 0
 202 -103 238 -65 288 -65 c 0
EndSplineSet
EndChar

StartChar: uni0147
Encoding: 327 327 237
Width: 657
Flags: W
LayerCount: 2
Fore
SplineSet
466 954 m 1
 528 883 l 1
 385 748 l 1
 277 748 l 1
 134 883 l 1
 196 954 l 1
 331 869 l 1
 466 954 l 1
603 695 m 1
 603 0 l 1
 370 0 l 1
 194 523 l 1
 203 457 218 364 218 235 c 2
 218 0 l 1
 54 0 l 1
 54 695 l 1
 282 695 l 1
 464 170 l 1
 453 239 439 325 439 443 c 2
 439 695 l 1
 603 695 l 1
EndSplineSet
EndChar

StartChar: uni0148
Encoding: 328 328 238
Width: 572
Flags: W
LayerCount: 2
Fore
SplineSet
346 607 m 1
 238 607 l 1
 95 751 l 1
 157 822 l 1
 292 728 l 1
 427 822 l 1
 489 751 l 1
 346 607 l 1
381 551 m 0
 472 551 527 493 527 391 c 2
 527 0 l 1
 349 0 l 1
 349 359 l 2
 349 408 333 421 309 421 c 0
 281 421 255 400 229 360 c 1
 229 0 l 1
 51 0 l 1
 51 533 l 1
 207 533 l 1
 220 473 l 1
 267 526 316 551 381 551 c 0
EndSplineSet
EndChar

StartChar: uni014C
Encoding: 332 332 239
Width: 690
Flags: W
LayerCount: 2
Fore
SplineSet
502 778 m 1
 187 778 l 1
 187 899 l 1
 502 899 l 1
 502 778 l 1
345 713 m 0
 547 713 664 579 664 348 c 0
 664 122 547 -18 345 -18 c 0
 143 -18 27 117 27 348 c 0
 27 574 143 713 345 713 c 0
345 580 m 0
 260 580 219 516 219 348 c 0
 219 180 261 115 345 115 c 0
 432 115 471 180 471 348 c 0
 471 516 431 580 345 580 c 0
EndSplineSet
EndChar

StartChar: uni014D
Encoding: 333 333 240
Width: 584
Flags: W
LayerCount: 2
Fore
SplineSet
449 652 m 1
 134 652 l 1
 134 773 l 1
 449 773 l 1
 449 652 l 1
292 551 m 0
 457 551 559 448 559 266 c 0
 559 94 458 -18 292 -18 c 0
 127 -18 25 85 25 267 c 0
 25 439 126 551 292 551 c 0
292 422 m 0
 235 422 208 375 208 267 c 0
 208 155 235 111 292 111 c 0
 349 111 376 158 376 266 c 0
 376 377 349 422 292 422 c 0
EndSplineSet
EndChar

StartChar: uni0150
Encoding: 336 336 241
Width: 690
Flags: W
LayerCount: 2
Fore
SplineSet
299 966 m 1
 411 906 l 1
 283 743 l 1
 206 784 l 1
 299 966 l 1
477 957 m 1
 584 890 l 1
 448 734 l 1
 374 780 l 1
 477 957 l 1
345 713 m 0
 547 713 664 579 664 348 c 0
 664 122 547 -18 345 -18 c 0
 143 -18 27 117 27 348 c 0
 27 574 143 713 345 713 c 0
345 580 m 0
 260 580 219 516 219 348 c 0
 219 180 261 115 345 115 c 0
 432 115 471 180 471 348 c 0
 471 516 431 580 345 580 c 0
EndSplineSet
EndChar

StartChar: uni0151
Encoding: 337 337 242
Width: 584
Flags: W
LayerCount: 2
Fore
SplineSet
263 836 m 1
 375 776 l 1
 247 603 l 1
 170 644 l 1
 263 836 l 1
441 827 m 1
 548 760 l 1
 412 594 l 1
 338 640 l 1
 441 827 l 1
292 551 m 0
 457 551 559 448 559 266 c 0
 559 94 458 -18 292 -18 c 0
 127 -18 25 85 25 267 c 0
 25 439 126 551 292 551 c 0
292 422 m 0
 235 422 208 375 208 267 c 0
 208 155 235 111 292 111 c 0
 349 111 376 158 376 266 c 0
 376 377 349 422 292 422 c 0
EndSplineSet
EndChar

StartChar: uni0152
Encoding: 338 338 243
Width: 908
Flags: W
LayerCount: 2
Fore
SplineSet
640 289 m 1
 632 230 613 175 580 131 c 1
 877 131 l 1
 877 0 l 1
 428 0 l 1
 399 -12 365 -18 328 -18 c 0
 143 -18 27 117 27 348 c 0
 27 574 143 713 328 713 c 0
 366 713 402 707 432 695 c 1
 880 695 l 1
 861 564 l 1
 582 564 l 1
 612 521 631 470 639 416 c 1
 831 416 l 1
 831 289 l 1
 640 289 l 1
335 115 m 0
 412 115 451 180 451 348 c 0
 451 516 411 580 335 580 c 0
 260 580 219 516 219 348 c 0
 219 180 261 115 335 115 c 0
EndSplineSet
EndChar

StartChar: uni0153
Encoding: 339 339 244
Width: 907
Flags: W
LayerCount: 2
Fore
SplineSet
885 275 m 0
 885 258 883 233 881 215 c 1
 556 215 l 1
 566 129 607 109 669 109 c 0
 709 109 747 124 793 156 c 1
 865 58 l 1
 812 15 741 -18 652 -18 c 0
 569 -18 510 10 467 57 c 1
 423 8 366 -18 291 -18 c 0
 126 -18 25 85 25 267 c 0
 25 437 126 551 291 551 c 0
 363 551 422 524 466 478 c 1
 507 523 561 551 633 551 c 0
 787 551 885 451 885 275 c 0
710 319 m 1
 710 325 l 2
 709 389 692 436 636 436 c 0
 588 436 562 408 555 319 c 1
 710 319 l 1
291 111 m 0
 348 111 374 156 374 267 c 0
 374 375 348 422 291 422 c 0
 235 422 208 375 208 267 c 0
 208 155 235 111 291 111 c 0
EndSplineSet
EndChar

StartChar: uni0154
Encoding: 340 340 245
Width: 620
Flags: W
LayerCount: 2
Fore
SplineSet
447 839 m 1
 200 750 l 1
 155 840 l 1
 383 970 l 1
 447 839 l 1
426 0 m 1
 290 256 l 1
 239 256 l 1
 239 0 l 1
 54 0 l 1
 54 695 l 1
 295 695 l 2
 489 695 587 627 587 479 c 0
 587 389 546 336 459 290 c 1
 632 0 l 1
 426 0 l 1
239 566 m 1
 239 382 l 1
 301 382 l 2
 364 382 397 412 397 479 c 0
 397 539 361 566 291 566 c 2
 239 566 l 1
EndSplineSet
EndChar

StartChar: uni0155
Encoding: 341 341 246
Width: 405
Flags: W
LayerCount: 2
Fore
SplineSet
370 714 m 1
 126 618 l 1
 78 707 l 1
 302 846 l 1
 370 714 l 1
358 549 m 0
 378 549 393 546 411 540 c 1
 383 368 l 1
 366 373 352 376 334 376 c 0
 270 376 245 328 229 253 c 1
 229 0 l 1
 51 0 l 1
 51 533 l 1
 207 533 l 1
 222 432 l 1
 244 503 298 549 358 549 c 0
EndSplineSet
EndChar

StartChar: uni0156
Encoding: 342 342 247
Width: 620
Flags: W
LayerCount: 2
Fore
SplineSet
459 290 m 1
 632 0 l 1
 426 0 l 1
 290 256 l 1
 239 256 l 1
 239 0 l 1
 54 0 l 1
 54 695 l 1
 295 695 l 2
 489 695 587 627 587 479 c 0
 587 389 546 336 459 290 c 1
239 566 m 1
 239 382 l 1
 301 382 l 2
 364 382 397 412 397 479 c 0
 397 539 361 566 291 566 c 2
 239 566 l 1
312 -65 m 0
 361 -65 397 -101 397 -149 c 0
 397 -178 388 -198 370 -235 c 2
 322 -333 l 1
 236 -333 l 1
 261 -219 l 1
 241 -203 226 -180 226 -149 c 0
 226 -103 262 -65 312 -65 c 0
EndSplineSet
EndChar

StartChar: uni0157
Encoding: 343 343 248
Width: 405
Flags: W
LayerCount: 2
Fore
SplineSet
358 549 m 0
 378 549 393 546 411 540 c 1
 383 368 l 1
 366 373 352 376 334 376 c 0
 270 376 245 328 229 253 c 1
 229 0 l 1
 51 0 l 1
 51 533 l 1
 207 533 l 1
 222 432 l 1
 244 503 298 549 358 549 c 0
141 -65 m 0
 190 -65 226 -101 226 -149 c 0
 226 -178 217 -198 199 -235 c 2
 151 -333 l 1
 65 -333 l 1
 90 -219 l 1
 70 -203 55 -180 55 -149 c 0
 55 -103 91 -65 141 -65 c 0
EndSplineSet
EndChar

StartChar: uni0158
Encoding: 344 344 249
Width: 620
Flags: W
LayerCount: 2
Fore
SplineSet
356 748 m 1
 248 748 l 1
 105 883 l 1
 167 954 l 1
 302 869 l 1
 437 954 l 1
 499 883 l 1
 356 748 l 1
426 0 m 1
 290 256 l 1
 239 256 l 1
 239 0 l 1
 54 0 l 1
 54 695 l 1
 295 695 l 2
 489 695 587 627 587 479 c 0
 587 389 546 336 459 290 c 1
 632 0 l 1
 426 0 l 1
239 566 m 1
 239 382 l 1
 301 382 l 2
 364 382 397 412 397 479 c 0
 397 539 361 566 291 566 c 2
 239 566 l 1
EndSplineSet
EndChar

StartChar: uni0159
Encoding: 345 345 250
Width: 405
Flags: W
LayerCount: 2
Fore
SplineSet
286 607 m 1
 178 607 l 1
 35 751 l 1
 97 822 l 1
 232 728 l 1
 367 822 l 1
 429 751 l 1
 286 607 l 1
222 432 m 1
 244 503 298 549 358 549 c 0
 378 549 393 546 411 540 c 1
 383 368 l 1
 366 373 352 376 334 376 c 0
 270 376 245 328 229 253 c 1
 229 0 l 1
 51 0 l 1
 51 533 l 1
 207 533 l 1
 222 432 l 1
EndSplineSet
EndChar

StartChar: uni015A
Encoding: 346 346 251
Width: 580
Flags: W
LayerCount: 2
Fore
SplineSet
383 970 m 1
 447 839 l 1
 200 750 l 1
 155 840 l 1
 383 970 l 1
294 713 m 0
 402 713 480 680 542 621 c 1
 459 523 l 1
 411 561 363 580 308 580 c 0
 254 580 224 559 224 521 c 0
 224 481 250 467 354 433 c 0
 491 390 560 331 560 205 c 0
 560 74 454 -18 276 -18 c 0
 149 -18 62 28 5 83 c 1
 96 184 l 1
 147 142 202 116 269 116 c 0
 333 116 368 146 368 191 c 0
 368 237 344 257 248 286 c 0
 86 337 34 404 34 506 c 0
 34 633 145 713 294 713 c 0
EndSplineSet
EndChar

StartChar: uni015B
Encoding: 347 347 252
Width: 484
Flags: W
LayerCount: 2
Fore
SplineSet
320 846 m 1
 388 714 l 1
 144 618 l 1
 96 707 l 1
 320 846 l 1
253 551 m 0
 331 551 404 525 453 484 c 1
 389 386 l 1
 349 411 304 426 260 426 c 0
 222 426 205 413 205 394 c 0
 205 371 215 361 313 331 c 0
 416 301 473 257 473 161 c 0
 473 51 369 -18 229 -18 c 0
 136 -18 54 14 1 63 c 1
 86 158 l 1
 125 128 174 106 224 106 c 0
 266 106 291 120 291 148 c 0
 291 179 277 186 183 214 c 0
 81 244 28 300 28 383 c 0
 28 477 110 551 253 551 c 0
EndSplineSet
EndChar

StartChar: uni015E
Encoding: 350 350 253
Width: 580
Flags: W
LayerCount: 2
Fore
SplineSet
560 205 m 0
 560 89 476 3 333 -15 c 1
 333 -45 l 1
 405 -54 440 -91 440 -149 c 0
 440 -218 382 -269 284 -269 c 0
 234 -269 191 -254 165 -236 c 1
 205 -157 l 1
 224 -168 244 -175 268 -175 c 0
 296 -175 314 -168 314 -147 c 0
 314 -125 286 -116 221 -116 c 1
 234 -16 l 1
 129 -7 55 34 5 83 c 1
 96 184 l 1
 147 142 202 116 269 116 c 0
 333 116 368 146 368 191 c 0
 368 237 344 257 248 286 c 0
 86 337 34 404 34 506 c 0
 34 633 145 713 294 713 c 0
 402 713 480 680 542 621 c 1
 459 523 l 1
 411 561 363 580 308 580 c 0
 254 580 224 559 224 521 c 0
 224 481 250 467 354 433 c 0
 491 390 560 331 560 205 c 0
EndSplineSet
EndChar

StartChar: uni015F
Encoding: 351 351 254
Width: 484
Flags: W
LayerCount: 2
Fore
SplineSet
473 161 m 0
 473 69 400 5 294 -13 c 1
 294 -45 l 1
 366 -54 401 -91 401 -149 c 0
 401 -218 343 -269 245 -269 c 0
 195 -269 152 -254 126 -236 c 1
 166 -157 l 1
 185 -168 205 -175 229 -175 c 0
 257 -175 275 -168 275 -147 c 0
 275 -125 247 -116 182 -116 c 1
 195 -17 l 1
 116 -10 47 20 1 63 c 1
 86 158 l 1
 125 128 174 106 224 106 c 0
 266 106 291 120 291 148 c 0
 291 179 277 186 183 214 c 0
 81 244 28 300 28 383 c 0
 28 477 110 551 253 551 c 0
 331 551 404 525 453 484 c 1
 389 386 l 1
 349 411 304 426 260 426 c 0
 222 426 205 413 205 394 c 0
 205 371 215 361 313 331 c 0
 416 301 473 257 473 161 c 0
EndSplineSet
EndChar

StartChar: uni0160
Encoding: 352 352 255
Width: 580
Flags: W
LayerCount: 2
Fore
SplineSet
436 954 m 1
 498 883 l 1
 355 748 l 1
 247 748 l 1
 104 883 l 1
 166 954 l 1
 301 869 l 1
 436 954 l 1
294 713 m 0
 402 713 480 680 542 621 c 1
 459 523 l 1
 411 561 363 580 308 580 c 0
 254 580 224 559 224 521 c 0
 224 481 250 467 354 433 c 0
 491 390 560 331 560 205 c 0
 560 74 454 -18 276 -18 c 0
 149 -18 62 28 5 83 c 1
 96 184 l 1
 147 142 202 116 269 116 c 0
 333 116 368 146 368 191 c 0
 368 237 344 257 248 286 c 0
 86 337 34 404 34 506 c 0
 34 633 145 713 294 713 c 0
EndSplineSet
EndChar

StartChar: uni0161
Encoding: 353 353 256
Width: 484
Flags: W
LayerCount: 2
Fore
SplineSet
385 822 m 1
 447 751 l 1
 304 607 l 1
 196 607 l 1
 53 751 l 1
 115 822 l 1
 250 728 l 1
 385 822 l 1
253 551 m 0
 331 551 404 525 453 484 c 1
 389 386 l 1
 349 411 304 426 260 426 c 0
 222 426 205 413 205 394 c 0
 205 371 215 361 313 331 c 0
 416 301 473 257 473 161 c 0
 473 51 369 -18 229 -18 c 0
 136 -18 54 14 1 63 c 1
 86 158 l 1
 125 128 174 106 224 106 c 0
 266 106 291 120 291 148 c 0
 291 179 277 186 183 214 c 0
 81 244 28 300 28 383 c 0
 28 477 110 551 253 551 c 0
EndSplineSet
EndChar

StartChar: uni0162
Encoding: 354 354 257
Width: 547
Flags: W
LayerCount: 2
Fore
SplineSet
366 -45 m 1
 438 -54 473 -91 473 -149 c 0
 473 -218 414 -269 316 -269 c 0
 267 -269 224 -253 198 -236 c 1
 238 -157 l 1
 257 -168 277 -175 299 -175 c 0
 329 -175 347 -168 347 -147 c 0
 347 -125 319 -116 254 -116 c 1
 269 0 l 1
 181 0 l 1
 181 554 l 1
 7 554 l 1
 7 695 l 1
 549 695 l 1
 530 554 l 1
 366 554 l 1
 366 -45 l 1
EndSplineSet
EndChar

StartChar: uni0163
Encoding: 355 355 258
Width: 393
Flags: W
LayerCount: 2
Fore
SplineSet
284 -45 m 1
 356 -54 391 -91 391 -149 c 0
 391 -218 333 -269 235 -269 c 0
 185 -269 142 -254 116 -236 c 1
 156 -157 l 1
 175 -168 195 -175 219 -175 c 0
 247 -175 265 -168 265 -147 c 0
 265 -125 237 -116 172 -116 c 1
 186 -9 l 1
 107 13 69 80 69 186 c 2
 69 411 l 1
 0 411 l 1
 0 533 l 1
 69 533 l 1
 69 646 l 1
 247 667 l 1
 247 533 l 1
 368 533 l 1
 350 411 l 1
 247 411 l 1
 247 188 l 2
 247 138 264 122 293 122 c 0
 310 122 328 126 347 137 c 1
 406 26 l 1
 371 2 326 -12 284 -16 c 1
 284 -45 l 1
EndSplineSet
EndChar

StartChar: uni0164
Encoding: 356 356 259
Width: 547
Flags: W
LayerCount: 2
Fore
SplineSet
409 954 m 1
 471 883 l 1
 328 748 l 1
 220 748 l 1
 77 883 l 1
 139 954 l 1
 274 869 l 1
 409 954 l 1
549 695 m 1
 530 554 l 1
 366 554 l 1
 366 0 l 1
 181 0 l 1
 181 554 l 1
 7 554 l 1
 7 695 l 1
 549 695 l 1
EndSplineSet
EndChar

StartChar: uni0165
Encoding: 357 357 260
Width: 393
Flags: W
LayerCount: 2
Fore
SplineSet
421 789 m 1
 365 564 l 1
 267 579 l 1
 291 808 l 1
 421 789 l 1
293 122 m 0
 310 122 328 126 347 137 c 1
 406 26 l 1
 363 -4 303 -18 254 -18 c 0
 128 -18 69 53 69 186 c 2
 69 411 l 1
 0 411 l 1
 0 533 l 1
 69 533 l 1
 69 646 l 1
 247 667 l 1
 247 533 l 1
 368 533 l 1
 350 411 l 1
 247 411 l 1
 247 188 l 2
 247 138 264 122 293 122 c 0
EndSplineSet
EndChar

StartChar: uni016A
Encoding: 362 362 261
Width: 647
Flags: W
LayerCount: 2
Fore
SplineSet
481 778 m 1
 166 778 l 1
 166 899 l 1
 481 899 l 1
 481 778 l 1
604 695 m 1
 604 233 l 2
 604 92 512 -18 324 -18 c 0
 135 -18 44 84 44 233 c 2
 44 695 l 1
 229 695 l 1
 229 239 l 2
 229 157 256 117 324 117 c 0
 391 117 418 157 418 239 c 2
 418 695 l 1
 604 695 l 1
EndSplineSet
EndChar

StartChar: uni016B
Encoding: 363 363 262
Width: 566
Flags: W
LayerCount: 2
Fore
SplineSet
437 652 m 1
 122 652 l 1
 122 773 l 1
 437 773 l 1
 437 652 l 1
515 533 m 1
 515 0 l 1
 359 0 l 1
 352 63 l 1
 315 8 262 -18 193 -18 c 0
 92 -18 45 48 45 150 c 2
 45 533 l 1
 223 533 l 1
 223 173 l 2
 223 125 239 112 265 112 c 0
 290 112 316 130 337 165 c 1
 337 533 l 1
 515 533 l 1
EndSplineSet
EndChar

StartChar: uni016E
Encoding: 366 366 263
Width: 647
Flags: W
LayerCount: 2
Fore
SplineSet
323 1003 m 0
 415 1003 470 939 470 864 c 0
 470 790 415 725 323 725 c 0
 232 725 177 790 177 864 c 0
 177 939 232 1003 323 1003 c 0
323 912 m 0
 299 912 281 897 281 864 c 0
 281 832 299 816 323 816 c 0
 348 816 366 832 366 864 c 0
 366 897 348 912 323 912 c 0
604 695 m 1
 604 233 l 2
 604 92 512 -18 324 -18 c 0
 135 -18 44 84 44 233 c 2
 44 695 l 1
 229 695 l 1
 229 239 l 2
 229 157 256 117 324 117 c 0
 391 117 418 157 418 239 c 2
 418 695 l 1
 604 695 l 1
EndSplineSet
EndChar

StartChar: uni016F
Encoding: 367 367 264
Width: 566
Flags: W
LayerCount: 2
Fore
SplineSet
280 877 m 0
 372 877 427 813 427 738 c 0
 427 664 372 599 280 599 c 0
 189 599 134 664 134 738 c 0
 134 813 189 877 280 877 c 0
280 786 m 0
 256 786 238 771 238 738 c 0
 238 706 256 690 280 690 c 0
 305 690 323 706 323 738 c 0
 323 771 305 786 280 786 c 0
515 533 m 1
 515 0 l 1
 359 0 l 1
 352 63 l 1
 315 8 262 -18 193 -18 c 0
 92 -18 45 48 45 150 c 2
 45 533 l 1
 223 533 l 1
 223 173 l 2
 223 125 239 112 265 112 c 0
 290 112 316 130 337 165 c 1
 337 533 l 1
 515 533 l 1
EndSplineSet
EndChar

StartChar: uni0170
Encoding: 368 368 265
Width: 647
Flags: W
LayerCount: 2
Fore
SplineSet
278 966 m 1
 390 906 l 1
 262 743 l 1
 185 784 l 1
 278 966 l 1
456 957 m 1
 563 890 l 1
 427 734 l 1
 353 780 l 1
 456 957 l 1
604 695 m 1
 604 233 l 2
 604 92 512 -18 324 -18 c 0
 135 -18 44 84 44 233 c 2
 44 695 l 1
 229 695 l 1
 229 239 l 2
 229 157 256 117 324 117 c 0
 391 117 418 157 418 239 c 2
 418 695 l 1
 604 695 l 1
EndSplineSet
EndChar

StartChar: uni0171
Encoding: 369 369 266
Width: 566
Flags: W
LayerCount: 2
Fore
SplineSet
251 836 m 1
 363 776 l 1
 235 603 l 1
 158 644 l 1
 251 836 l 1
429 827 m 1
 536 760 l 1
 400 594 l 1
 326 640 l 1
 429 827 l 1
515 533 m 1
 515 0 l 1
 359 0 l 1
 352 63 l 1
 315 8 262 -18 193 -18 c 0
 92 -18 45 48 45 150 c 2
 45 533 l 1
 223 533 l 1
 223 173 l 2
 223 125 239 112 265 112 c 0
 290 112 316 130 337 165 c 1
 337 533 l 1
 515 533 l 1
EndSplineSet
EndChar

StartChar: uni0172
Encoding: 370 370 267
Width: 647
Flags: W
LayerCount: 2
Fore
SplineSet
418 695 m 1
 604 695 l 1
 604 233 l 2
 604 126 551 37 444 0 c 0
 347 -34 327 -72 327 -99 c 0
 327 -129 346 -143 379 -143 c 0
 399 -143 418 -141 440 -136 c 1
 429 -242 l 1
 407 -247 384 -250 357 -250 c 0
 270 -250 204 -204 204 -129 c 0
 204 -77 236 -40 284 -16 c 1
 122 -3 44 95 44 233 c 2
 44 695 l 1
 229 695 l 1
 229 239 l 2
 229 157 256 117 324 117 c 0
 391 117 418 157 418 239 c 2
 418 695 l 1
EndSplineSet
EndChar

StartChar: uni0173
Encoding: 371 371 268
Width: 566
Flags: W
LayerCount: 2
Fore
SplineSet
337 533 m 1
 515 533 l 1
 515 0 l 1
 514 0 l 1
 417 -34 398 -72 398 -99 c 0
 398 -129 416 -143 450 -143 c 0
 469 -143 488 -141 511 -136 c 1
 499 -242 l 1
 478 -247 454 -250 427 -250 c 0
 340 -250 274 -204 274 -129 c 0
 274 -70 306 -27 358 5 c 1
 352 63 l 1
 315 8 262 -18 193 -18 c 0
 92 -18 45 48 45 150 c 2
 45 533 l 1
 223 533 l 1
 223 173 l 2
 223 125 239 112 265 112 c 0
 290 112 316 130 337 165 c 1
 337 533 l 1
EndSplineSet
EndChar

StartChar: uni0178
Encoding: 376 376 269
Width: 607
Flags: W
LayerCount: 2
Fore
SplineSet
182 935 m 0
 232 935 270 897 270 849 c 0
 270 801 232 763 182 763 c 0
 134 763 94 801 94 849 c 0
 94 897 134 935 182 935 c 0
420 935 m 0
 470 935 508 897 508 849 c 0
 508 801 470 763 420 763 c 0
 372 763 332 801 332 849 c 0
 332 897 372 935 420 935 c 0
618 695 m 1
 396 259 l 1
 396 0 l 1
 211 0 l 1
 211 258 l 1
 -11 695 l 1
 191 695 l 1
 306 400 l 1
 422 695 l 1
 618 695 l 1
EndSplineSet
EndChar

StartChar: uni0179
Encoding: 377 377 270
Width: 550
Flags: W
LayerCount: 2
Fore
SplineSet
360 970 m 1
 424 839 l 1
 177 750 l 1
 132 840 l 1
 360 970 l 1
522 695 m 1
 522 556 l 1
 233 146 l 1
 530 146 l 1
 511 0 l 1
 14 0 l 1
 14 137 l 1
 311 553 l 1
 43 553 l 1
 43 695 l 1
 522 695 l 1
EndSplineSet
EndChar

StartChar: uni017A
Encoding: 378 378 271
Width: 460
Flags: W
LayerCount: 2
Fore
SplineSet
307 846 m 1
 375 714 l 1
 131 618 l 1
 83 707 l 1
 307 846 l 1
445 533 m 1
 445 408 l 1
 216 133 l 1
 452 133 l 1
 436 0 l 1
 9 0 l 1
 9 125 l 1
 241 401 l 1
 29 401 l 1
 29 533 l 1
 445 533 l 1
EndSplineSet
EndChar

StartChar: uni017B
Encoding: 379 379 272
Width: 550
Flags: W
LayerCount: 2
Fore
SplineSet
277 946 m 0
 337 946 379 903 379 848 c 0
 379 793 337 750 277 750 c 0
 217 750 175 793 175 848 c 0
 175 903 217 946 277 946 c 0
522 695 m 1
 522 556 l 1
 233 146 l 1
 530 146 l 1
 511 0 l 1
 14 0 l 1
 14 137 l 1
 311 553 l 1
 43 553 l 1
 43 695 l 1
 522 695 l 1
EndSplineSet
EndChar

StartChar: uni017C
Encoding: 380 380 273
Width: 460
Flags: W
LayerCount: 2
Fore
SplineSet
237 820 m 0
 297 820 339 777 339 722 c 0
 339 667 297 624 237 624 c 0
 177 624 135 667 135 722 c 0
 135 777 177 820 237 820 c 0
445 533 m 1
 445 408 l 1
 216 133 l 1
 452 133 l 1
 436 0 l 1
 9 0 l 1
 9 125 l 1
 241 401 l 1
 29 401 l 1
 29 533 l 1
 445 533 l 1
EndSplineSet
EndChar

StartChar: uni017D
Encoding: 381 381 274
Width: 550
Flags: W
LayerCount: 2
Fore
SplineSet
413 954 m 1
 475 883 l 1
 332 748 l 1
 224 748 l 1
 81 883 l 1
 143 954 l 1
 278 869 l 1
 413 954 l 1
522 695 m 1
 522 556 l 1
 233 146 l 1
 530 146 l 1
 511 0 l 1
 14 0 l 1
 14 137 l 1
 311 553 l 1
 43 553 l 1
 43 695 l 1
 522 695 l 1
EndSplineSet
EndChar

StartChar: uni017E
Encoding: 382 382 275
Width: 460
Flags: W
LayerCount: 2
Fore
SplineSet
372 822 m 1
 434 751 l 1
 291 607 l 1
 183 607 l 1
 40 751 l 1
 102 822 l 1
 237 728 l 1
 372 822 l 1
445 533 m 1
 445 408 l 1
 216 133 l 1
 452 133 l 1
 436 0 l 1
 9 0 l 1
 9 125 l 1
 241 401 l 1
 29 401 l 1
 29 533 l 1
 445 533 l 1
EndSplineSet
EndChar

StartChar: uni0192
Encoding: 402 402 276
Width: 381
Flags: W
LayerCount: 2
Fore
SplineSet
327 632 m 0
 274 632 260 614 260 563 c 2
 260 533 l 1
 384 533 l 1
 365 411 l 1
 260 411 l 1
 260 69 l 2
 260 -112 160 -180 32 -224 c 1
 -29 -95 l 1
 39 -64 82 -34 82 58 c 2
 82 411 l 1
 1 411 l 1
 1 533 l 1
 82 533 l 1
 82 571 l 2
 82 677 152 761 296 761 c 0
 361 761 417 746 460 726 c 1
 413 612 l 1
 379 627 352 632 327 632 c 0
EndSplineSet
EndChar

StartChar: uni0218
Encoding: 536 536 277
Width: 580
Flags: W
LayerCount: 2
Fore
SplineSet
294 713 m 0
 402 713 480 680 542 621 c 1
 459 523 l 1
 411 561 363 580 308 580 c 0
 254 580 224 559 224 521 c 0
 224 481 250 467 354 433 c 0
 491 390 560 331 560 205 c 0
 560 74 454 -18 276 -18 c 0
 149 -18 62 28 5 83 c 1
 96 184 l 1
 147 142 202 116 269 116 c 0
 333 116 368 146 368 191 c 0
 368 237 344 257 248 286 c 0
 86 337 34 404 34 506 c 0
 34 633 145 713 294 713 c 0
289 -65 m 0
 338 -65 374 -101 374 -149 c 0
 374 -178 365 -198 347 -235 c 2
 299 -333 l 1
 213 -333 l 1
 238 -219 l 1
 218 -203 203 -180 203 -149 c 0
 203 -103 239 -65 289 -65 c 0
EndSplineSet
EndChar

StartChar: uni0219
Encoding: 537 537 278
Width: 484
Flags: W
LayerCount: 2
Fore
SplineSet
253 551 m 0
 331 551 404 525 453 484 c 1
 389 386 l 1
 349 411 304 426 260 426 c 0
 222 426 205 413 205 394 c 0
 205 371 215 361 313 331 c 0
 416 301 473 257 473 161 c 0
 473 51 369 -18 229 -18 c 0
 136 -18 54 14 1 63 c 1
 86 158 l 1
 125 128 174 106 224 106 c 0
 266 106 291 120 291 148 c 0
 291 179 277 186 183 214 c 0
 81 244 28 300 28 383 c 0
 28 477 110 551 253 551 c 0
245 -65 m 0
 294 -65 330 -101 330 -149 c 0
 330 -178 321 -198 303 -235 c 2
 255 -333 l 1
 169 -333 l 1
 194 -219 l 1
 174 -203 159 -180 159 -149 c 0
 159 -103 195 -65 245 -65 c 0
EndSplineSet
EndChar

StartChar: uni021A
Encoding: 538 538 279
Width: 547
Flags: W
LayerCount: 2
Fore
SplineSet
549 695 m 1
 530 554 l 1
 366 554 l 1
 366 0 l 1
 181 0 l 1
 181 554 l 1
 7 554 l 1
 7 695 l 1
 549 695 l 1
275 -65 m 0
 324 -65 360 -101 360 -149 c 0
 360 -178 351 -198 333 -235 c 2
 285 -333 l 1
 199 -333 l 1
 224 -219 l 1
 204 -203 189 -180 189 -149 c 0
 189 -103 225 -65 275 -65 c 0
EndSplineSet
EndChar

StartChar: uni021B
Encoding: 539 539 280
Width: 393
Flags: W
LayerCount: 2
Fore
SplineSet
406 26 m 1
 363 -4 303 -18 254 -18 c 0
 128 -18 69 53 69 186 c 2
 69 411 l 1
 0 411 l 1
 0 533 l 1
 69 533 l 1
 69 646 l 1
 247 667 l 1
 247 533 l 1
 368 533 l 1
 350 411 l 1
 247 411 l 1
 247 188 l 2
 247 138 264 122 293 122 c 0
 310 122 328 126 347 137 c 1
 406 26 l 1
235 -65 m 0
 284 -65 320 -101 320 -149 c 0
 320 -178 311 -198 293 -235 c 2
 245 -333 l 1
 159 -333 l 1
 184 -219 l 1
 164 -203 149 -180 149 -149 c 0
 149 -103 185 -65 235 -65 c 0
EndSplineSet
EndChar

StartChar: uni0237
Encoding: 567 567 281
Width: 281
Flags: W
LayerCount: 2
Fore
SplineSet
230 533 m 1
 230 69 l 2
 230 -112 130 -180 2 -224 c 1
 -58 -95 l 1
 9 -64 52 -34 52 58 c 2
 52 533 l 1
 230 533 l 1
EndSplineSet
EndChar

StartChar: uni0300
Encoding: 768 768 282
Width: 0
Flags: W
LayerCount: 2
Fore
SplineSet
-254 846 m 1
 -30 707 l 1
 -78 618 l 1
 -322 714 l 1
 -254 846 l 1
EndSplineSet
EndChar

StartChar: uni0301
Encoding: 769 769 283
Width: 0
Flags: W
LayerCount: 2
Fore
SplineSet
-98 846 m 1
 -30 714 l 1
 -274 618 l 1
 -322 707 l 1
 -98 846 l 1
EndSplineSet
EndChar

StartChar: uni0302
Encoding: 770 770 284
Width: 0
Flags: W
LayerCount: 2
Fore
SplineSet
-362 616 m 1
 -424 687 l 1
 -281 831 l 1
 -174 831 l 1
 -30 687 l 1
 -92 616 l 1
 -227 710 l 1
 -362 616 l 1
EndSplineSet
EndChar

StartChar: uni0303
Encoding: 771 771 285
Width: 0
Flags: W
LayerCount: 2
Fore
SplineSet
-166 628 m 0
 -194 628 -212 636 -233 650 c 0
 -252 664 -263 672 -280 672 c 0
 -305 672 -317 657 -333 629 c 1
 -419 671 l 1
 -394 739 -347 798 -284 798 c 0
 -252 798 -235 789 -214 775 c 0
 -195 761 -183 754 -168 754 c 0
 -145 754 -132 768 -116 797 c 1
 -30 755 l 1
 -56 685 -103 628 -166 628 c 0
EndSplineSet
EndChar

StartChar: uni0304
Encoding: 772 772 286
Width: 0
Flags: W
LayerCount: 2
Fore
SplineSet
-30 652 m 1
 -345 652 l 1
 -345 773 l 1
 -30 773 l 1
 -30 652 l 1
EndSplineSet
EndChar

StartChar: uni0305
Encoding: 773 773 287
Width: 0
Flags: W
LayerCount: 2
Fore
SplineSet
-30 653 m 1
 -498 653 l 1
 -498 740 l 1
 -30 740 l 1
 -30 653 l 1
EndSplineSet
EndChar

StartChar: uni0306
Encoding: 774 774 288
Width: 0
Flags: W
LayerCount: 2
Fore
SplineSet
-209 629 m 0
 -321 629 -379 715 -387 813 c 1
 -292 830 l 1
 -280 782 -254 751 -209 751 c 0
 -163 751 -136 782 -125 830 c 1
 -30 813 l 1
 -38 715 -96 629 -209 629 c 0
EndSplineSet
EndChar

StartChar: uni0307
Encoding: 775 775 289
Width: 0
Flags: W
LayerCount: 2
Fore
SplineSet
-132 820 m 0
 -72 820 -30 777 -30 722 c 0
 -30 667 -72 624 -132 624 c 0
 -192 624 -234 667 -234 722 c 0
 -234 777 -192 820 -132 820 c 0
EndSplineSet
EndChar

StartChar: uni0308
Encoding: 776 776 290
Width: 0
Flags: W
LayerCount: 2
Fore
SplineSet
-356 809 m 0
 -306 809 -268 771 -268 723 c 0
 -268 675 -306 637 -356 637 c 0
 -404 637 -444 675 -444 723 c 0
 -444 771 -404 809 -356 809 c 0
-118 809 m 0
 -68 809 -30 771 -30 723 c 0
 -30 675 -68 637 -118 637 c 0
 -166 637 -206 675 -206 723 c 0
 -206 771 -166 809 -118 809 c 0
EndSplineSet
EndChar

StartChar: uni0309
Encoding: 777 777 291
Width: 0
Flags: W
LayerCount: 2
Fore
SplineSet
-208 603 m 1
 -208 704 l 1
 -158 706 -137 715 -137 741 c 0
 -137 760 -153 770 -175 770 c 0
 -200 770 -216 765 -236 757 c 1
 -264 827 l 1
 -235 844 -200 854 -151 854 c 0
 -66 854 -21 810 -21 749 c 0
 -21 697 -52 664 -106 654 c 1
 -106 603 l 1
 -208 603 l 1
EndSplineSet
EndChar

StartChar: uni030A
Encoding: 778 778 292
Width: 0
Flags: W
LayerCount: 2
Fore
SplineSet
-177 877 m 0
 -85 877 -30 813 -30 738 c 0
 -30 664 -85 599 -177 599 c 0
 -268 599 -323 664 -323 738 c 0
 -323 813 -268 877 -177 877 c 0
-177 786 m 0
 -201 786 -219 771 -219 738 c 0
 -219 706 -201 690 -177 690 c 0
 -152 690 -134 706 -134 738 c 0
 -134 771 -152 786 -177 786 c 0
EndSplineSet
EndChar

StartChar: uni030B
Encoding: 779 779 293
Width: 0
Flags: W
LayerCount: 2
Fore
SplineSet
-315 836 m 1
 -203 776 l 1
 -331 603 l 1
 -408 644 l 1
 -315 836 l 1
-137 827 m 1
 -30 760 l 1
 -166 594 l 1
 -240 640 l 1
 -137 827 l 1
EndSplineSet
EndChar

StartChar: uni030C
Encoding: 780 780 294
Width: 0
Flags: W
LayerCount: 2
Fore
SplineSet
-92 822 m 1
 -30 751 l 1
 -173 607 l 1
 -281 607 l 1
 -424 751 l 1
 -362 822 l 1
 -227 728 l 1
 -92 822 l 1
EndSplineSet
EndChar

StartChar: uni030D
Encoding: 781 781 295
Width: 0
Flags: W
LayerCount: 2
Fore
SplineSet
-184 618 m 1
 -184 889 l 1
 -30 889 l 1
 -30 618 l 1
 -184 618 l 1
EndSplineSet
EndChar

StartChar: uni030F
Encoding: 783 783 296
Width: 0
Flags: W
LayerCount: 2
Fore
SplineSet
-305 869 m 1
 -205 665 l 1
 -294 623 l 1
 -420 811 l 1
 -305 869 l 1
-123 869 m 1
 -30 663 l 1
 -121 627 l 1
 -239 815 l 1
 -123 869 l 1
EndSplineSet
EndChar

StartChar: uni0311
Encoding: 785 785 297
Width: 0
Flags: W
LayerCount: 2
Fore
SplineSet
-209 798 m 0
 -96 798 -38 713 -30 614 c 1
 -125 598 l 1
 -136 645 -163 676 -209 676 c 0
 -254 676 -280 645 -292 598 c 1
 -387 614 l 1
 -379 713 -321 798 -209 798 c 0
EndSplineSet
EndChar

StartChar: uni0312
Encoding: 786 786 298
Width: 0
Flags: W
LayerCount: 2
Fore
SplineSet
-117 575 m 0
 -166 575 -202 611 -202 659 c 0
 -202 688 -193 709 -175 745 c 2
 -127 843 l 1
 -41 843 l 1
 -66 729 l 1
 -46 713 -31 690 -31 659 c 0
 -31 613 -67 575 -117 575 c 0
EndSplineSet
EndChar

StartChar: uni0313
Encoding: 787 787 299
Width: 0
Flags: W
LayerCount: 2
Fore
SplineSet
-115 851 m 0
 -66 851 -30 815 -30 767 c 0
 -30 739 -39 718 -57 681 c 2
 -105 583 l 1
 -191 583 l 1
 -166 697 l 1
 -186 713 -201 736 -201 767 c 0
 -201 813 -165 851 -115 851 c 0
EndSplineSet
EndChar

StartChar: uni0316
Encoding: 790 790 300
Width: 0
Flags: W
LayerCount: 2
Fore
SplineSet
-257 -38 m 1
 -30 -169 l 1
 -75 -259 l 1
 -322 -170 l 1
 -257 -38 l 1
EndSplineSet
EndChar

StartChar: uni0317
Encoding: 791 791 301
Width: 0
Flags: W
LayerCount: 2
Fore
SplineSet
-94 -38 m 1
 -30 -170 l 1
 -277 -259 l 1
 -322 -169 l 1
 -94 -38 l 1
EndSplineSet
EndChar

StartChar: uni0318
Encoding: 792 792 302
Width: 0
Flags: W
LayerCount: 2
Fore
SplineSet
-134 -57 m 1
 -30 -57 l 1
 -30 -355 l 1
 -134 -355 l 1
 -134 -253 l 1
 -250 -253 l 1
 -250 -159 l 1
 -134 -159 l 1
 -134 -57 l 1
EndSplineSet
EndChar

StartChar: uni0319
Encoding: 793 793 303
Width: 0
Flags: W
LayerCount: 2
Fore
SplineSet
-146 -57 m 1
 -146 -159 l 1
 -30 -159 l 1
 -30 -253 l 1
 -146 -253 l 1
 -146 -355 l 1
 -250 -355 l 1
 -250 -57 l 1
 -146 -57 l 1
EndSplineSet
EndChar

StartChar: uni031A
Encoding: 794 794 304
Width: 0
Flags: W
LayerCount: 2
Fore
SplineSet
-249 808 m 1
 -30 808 l 1
 -30 596 l 1
 -134 596 l 1
 -134 716 l 1
 -249 716 l 1
 -249 808 l 1
EndSplineSet
EndChar

StartChar: uni031B
Encoding: 795 795 305
Width: 0
Flags: W
LayerCount: 2
Fore
SplineSet
-186 388 m 1
 -196 471 l 1
 -160 474 -147 492 -147 529 c 0
 -147 557 -152 575 -159 595 c 1
 -49 610 l 1
 -39 591 -30 564 -30 520 c 0
 -30 432 -90 388 -186 388 c 1
EndSplineSet
EndChar

StartChar: uni031C
Encoding: 796 796 306
Width: 0
Flags: W
LayerCount: 2
Fore
SplineSet
-30 -325 m 1
 -30 -234 l 1
 -54 -234 -72 -219 -72 -186 c 0
 -72 -154 -57 -138 -30 -138 c 1
 -30 -48 l 1
 -121 -48 -176 -112 -176 -186 c 0
 -176 -261 -121 -325 -30 -325 c 1
EndSplineSet
EndChar

StartChar: uni031D
Encoding: 797 797 307
Width: 0
Flags: W
LayerCount: 2
Fore
SplineSet
-30 -230 m 1
 -30 -325 l 1
 -362 -325 l 1
 -362 -230 l 1
 -252 -230 l 1
 -252 -86 l 1
 -140 -86 l 1
 -140 -230 l 1
 -30 -230 l 1
EndSplineSet
EndChar

StartChar: uni031E
Encoding: 798 798 308
Width: 0
Flags: W
LayerCount: 2
Fore
SplineSet
-30 -182 m 1
 -140 -182 l 1
 -140 -325 l 1
 -252 -325 l 1
 -252 -182 l 1
 -362 -182 l 1
 -362 -86 l 1
 -30 -86 l 1
 -30 -182 l 1
EndSplineSet
EndChar

StartChar: uni031F
Encoding: 799 799 309
Width: 0
Flags: W
LayerCount: 2
Fore
SplineSet
-121 -77 m 1
 -121 -164 l 1
 -30 -164 l 1
 -30 -258 l 1
 -121 -258 l 1
 -121 -344 l 1
 -232 -344 l 1
 -232 -258 l 1
 -324 -258 l 1
 -324 -164 l 1
 -232 -164 l 1
 -232 -77 l 1
 -121 -77 l 1
EndSplineSet
EndChar

StartChar: uni0320
Encoding: 800 800 310
Width: 0
Flags: W
LayerCount: 2
Fore
SplineSet
-324 -258 m 1
 -324 -164 l 1
 -30 -164 l 1
 -30 -258 l 1
 -324 -258 l 1
EndSplineSet
EndChar

StartChar: uni0321
Encoding: 801 801 311
Width: 0
Flags: W
LayerCount: 2
Fore
SplineSet
-240 -224 m 0
 -309 -224 -356 -205 -390 -181 c 1
 -331 -78 l 1
 -307 -89 -291 -97 -262 -97 c 0
 -228 -97 -208 -78 -208 -40 c 2
 -208 1 l 1
 -30 1 l 1
 -30 -24 l 2
 -30 -158 -115 -224 -240 -224 c 0
EndSplineSet
EndChar

StartChar: uni0323
Encoding: 803 803 312
Width: 0
Flags: W
LayerCount: 2
Fore
SplineSet
-132 -252 m 0
 -192 -252 -234 -209 -234 -154 c 0
 -234 -99 -192 -56 -132 -56 c 0
 -72 -56 -30 -99 -30 -154 c 0
 -30 -209 -72 -252 -132 -252 c 0
EndSplineSet
EndChar

StartChar: uni0324
Encoding: 804 804 313
Width: 0
Flags: W
LayerCount: 2
Fore
SplineSet
-356 -67 m 0
 -306 -67 -268 -105 -268 -152 c 0
 -268 -200 -306 -238 -356 -238 c 0
 -404 -238 -444 -200 -444 -152 c 0
 -444 -105 -404 -67 -356 -67 c 0
-118 -67 m 0
 -68 -67 -30 -105 -30 -152 c 0
 -30 -200 -68 -238 -118 -238 c 0
 -166 -238 -206 -200 -206 -152 c 0
 -206 -105 -166 -67 -118 -67 c 0
EndSplineSet
EndChar

StartChar: uni0325
Encoding: 805 805 314
Width: 0
Flags: W
LayerCount: 2
Fore
SplineSet
-177 -48 m 0
 -85 -48 -30 -112 -30 -186 c 0
 -30 -261 -85 -325 -177 -325 c 0
 -268 -325 -323 -261 -323 -186 c 0
 -323 -112 -268 -48 -177 -48 c 0
-177 -138 m 0
 -201 -138 -219 -154 -219 -186 c 0
 -219 -219 -201 -234 -177 -234 c 0
 -152 -234 -134 -219 -134 -186 c 0
 -134 -154 -152 -138 -177 -138 c 0
EndSplineSet
EndChar

StartChar: uni0326
Encoding: 806 806 315
Width: 0
Flags: W
LayerCount: 2
Fore
SplineSet
-115 -65 m 0
 -66 -65 -30 -101 -30 -149 c 0
 -30 -178 -39 -198 -57 -235 c 2
 -105 -333 l 1
 -191 -333 l 1
 -166 -219 l 1
 -186 -203 -201 -180 -201 -149 c 0
 -201 -103 -165 -65 -115 -65 c 0
EndSplineSet
EndChar

StartChar: uni0327
Encoding: 807 807 316
Width: 0
Flags: W
LayerCount: 2
Fore
SplineSet
-137 16 m 1
 -137 -45 l 1
 -65 -54 -30 -91 -30 -149 c 0
 -30 -218 -88 -269 -186 -269 c 0
 -236 -269 -279 -254 -305 -236 c 1
 -265 -157 l 1
 -246 -168 -226 -175 -202 -175 c 0
 -174 -175 -156 -168 -156 -147 c 0
 -156 -125 -184 -116 -249 -116 c 1
 -232 16 l 1
 -137 16 l 1
EndSplineSet
EndChar

StartChar: uni0328
Encoding: 808 808 317
Width: 0
Flags: W
LayerCount: 2
Fore
SplineSet
-57 56 m 1
 -30 0 l 1
 -127 -34 -146 -72 -146 -99 c 0
 -146 -129 -128 -143 -94 -143 c 0
 -75 -143 -56 -141 -33 -136 c 1
 -45 -242 l 1
 -66 -247 -90 -250 -117 -250 c 0
 -204 -250 -270 -204 -270 -129 c 0
 -270 -30 -180 23 -57 56 c 1
EndSplineSet
EndChar

StartChar: uni0329
Encoding: 809 809 318
Width: 0
Flags: W
LayerCount: 2
Fore
SplineSet
-187 -336 m 1
 -187 -66 l 1
 -33 -66 l 1
 -33 -336 l 1
 -187 -336 l 1
EndSplineSet
EndChar

StartChar: uni032A
Encoding: 810 810 319
Width: 0
Flags: W
LayerCount: 2
Fore
SplineSet
-342 -255 m 1
 -342 -86 l 1
 -30 -86 l 1
 -30 -255 l 1
 -133 -255 l 1
 -133 -174 l 1
 -238 -174 l 1
 -238 -255 l 1
 -342 -255 l 1
EndSplineSet
EndChar

StartChar: uni032B
Encoding: 811 811 320
Width: 0
Flags: W
LayerCount: 2
Fore
SplineSet
-102 -53 m 1
 -30 -62 l 1
 -35 -158 -74 -235 -149 -235 c 0
 -195 -235 -228 -206 -247 -159 c 1
 -266 -206 -299 -235 -345 -235 c 0
 -420 -235 -459 -158 -464 -62 c 1
 -392 -53 l 1
 -385 -99 -372 -121 -341 -121 c 0
 -311 -121 -297 -99 -290 -53 c 1
 -204 -53 l 1
 -197 -99 -184 -121 -153 -121 c 0
 -123 -121 -109 -99 -102 -53 c 1
EndSplineSet
EndChar

StartChar: uni032C
Encoding: 812 812 321
Width: 0
Flags: W
LayerCount: 2
Fore
SplineSet
-92 -58 m 1
 -30 -129 l 1
 -173 -264 l 1
 -281 -264 l 1
 -424 -129 l 1
 -362 -58 l 1
 -227 -143 l 1
 -92 -58 l 1
EndSplineSet
EndChar

StartChar: uni032D
Encoding: 813 813 322
Width: 0
Flags: W
LayerCount: 2
Fore
SplineSet
-362 -276 m 1
 -424 -205 l 1
 -281 -62 l 1
 -174 -62 l 1
 -30 -205 l 1
 -92 -276 l 1
 -227 -183 l 1
 -362 -276 l 1
EndSplineSet
EndChar

StartChar: uni032F
Encoding: 815 815 323
Width: 0
Flags: W
LayerCount: 2
Fore
SplineSet
-209 -44 m 0
 -96 -44 -38 -130 -30 -228 c 1
 -125 -245 l 1
 -136 -197 -163 -166 -209 -166 c 0
 -254 -166 -280 -197 -292 -245 c 1
 -387 -228 l 1
 -379 -130 -321 -44 -209 -44 c 0
EndSplineSet
EndChar

StartChar: uni0330
Encoding: 816 816 324
Width: 0
Flags: W
LayerCount: 2
Fore
SplineSet
-166 -220 m 0
 -194 -220 -212 -212 -233 -198 c 0
 -252 -184 -263 -176 -280 -176 c 0
 -305 -176 -317 -191 -333 -219 c 1
 -419 -178 l 1
 -394 -109 -347 -51 -284 -51 c 0
 -252 -51 -235 -60 -214 -74 c 0
 -195 -87 -183 -95 -168 -95 c 0
 -145 -95 -132 -80 -116 -51 c 1
 -30 -93 l 1
 -56 -163 -103 -220 -166 -220 c 0
EndSplineSet
EndChar

StartChar: uni0331
Encoding: 817 817 325
Width: 0
Flags: W
LayerCount: 2
Fore
SplineSet
-30 -197 m 1
 -345 -197 l 1
 -345 -75 l 1
 -30 -75 l 1
 -30 -197 l 1
EndSplineSet
EndChar

StartChar: uni0332
Encoding: 818 818 326
Width: 0
Flags: W
LayerCount: 2
Fore
SplineSet
-30 -197 m 1
 -503 -197 l 1
 -503 -75 l 1
 -30 -75 l 1
 -30 -197 l 1
EndSplineSet
EndChar

StartChar: uni0334
Encoding: 820 820 327
Width: 0
Flags: W
LayerCount: 2
Fore
SplineSet
-198 226 m 0
 -291 226 -320 287 -371 287 c 0
 -407 287 -421 262 -439 236 c 1
 -531 282 l 1
 -498 350 -450 418 -363 418 c 0
 -271 418 -242 358 -190 358 c 0
 -154 358 -140 382 -121 406 c 1
 -30 361 l 1
 -63 294 -111 226 -198 226 c 0
EndSplineSet
EndChar

StartChar: uni0335
Encoding: 821 821 328
Width: 0
Flags: W
LayerCount: 2
Fore
SplineSet
-369 245 m 1
 -369 381 l 1
 -40 381 l 1
 -40 245 l 1
 -369 245 l 1
EndSplineSet
EndChar

StartChar: uni0336
Encoding: 822 822 329
Width: 0
Flags: W
LayerCount: 2
Fore
SplineSet
-792 245 m 1
 -792 381 l 1
 -30 381 l 1
 -30 245 l 1
 -792 245 l 1
EndSplineSet
EndChar

StartChar: uni0339
Encoding: 825 825 330
Width: 0
Flags: W
LayerCount: 2
Fore
SplineSet
-176 -324 m 1
 -84 -324 -29 -260 -29 -185 c 0
 -29 -111 -84 -47 -176 -47 c 1
 -176 -137 l 1
 -148 -137 -133 -153 -133 -185 c 0
 -133 -218 -151 -233 -176 -233 c 1
 -176 -324 l 1
EndSplineSet
EndChar

StartChar: uni033A
Encoding: 826 826 331
Width: 0
Flags: W
LayerCount: 2
Fore
SplineSet
-342 -85 m 1
 -238 -85 l 1
 -238 -167 l 1
 -133 -167 l 1
 -133 -85 l 1
 -30 -85 l 1
 -30 -255 l 1
 -342 -255 l 1
 -342 -85 l 1
EndSplineSet
EndChar

StartChar: uni033B
Encoding: 827 827 332
Width: 0
Flags: W
LayerCount: 2
Fore
SplineSet
-342 -255 m 1
 -342 -60 l 1
 -30 -60 l 1
 -30 -255 l 1
 -342 -255 l 1
-262 -188 m 1
 -110 -188 l 1
 -110 -126 l 1
 -262 -126 l 1
 -262 -188 l 1
EndSplineSet
EndChar

StartChar: uni033C
Encoding: 828 828 333
Width: 0
Flags: W
LayerCount: 2
Fore
SplineSet
-149 -54 m 0
 -74 -54 -35 -132 -30 -228 c 1
 -102 -237 l 1
 -109 -191 -123 -168 -153 -168 c 0
 -184 -168 -197 -191 -204 -237 c 1
 -290 -237 l 1
 -297 -191 -311 -168 -341 -168 c 0
 -372 -168 -385 -191 -392 -237 c 1
 -464 -228 l 1
 -459 -132 -420 -54 -345 -54 c 0
 -299 -54 -266 -84 -247 -131 c 1
 -228 -84 -195 -54 -149 -54 c 0
EndSplineSet
EndChar

StartChar: uni033D
Encoding: 829 829 334
Width: 0
Flags: W
LayerCount: 2
Fore
SplineSet
-125 728 m 1
 -30 600 l 1
 -121 600 l 1
 -176 688 l 1
 -231 600 l 1
 -318 600 l 1
 -223 726 l 1
 -308 838 l 1
 -218 838 l 1
 -173 764 l 1
 -129 838 l 1
 -44 838 l 1
 -125 728 l 1
EndSplineSet
EndChar

StartChar: uni0342
Encoding: 834 834 335
Width: 0
Flags: W
LayerCount: 2
Fore
SplineSet
-166 628 m 0
 -194 628 -212 636 -233 650 c 0
 -252 664 -263 672 -280 672 c 0
 -305 672 -317 657 -333 629 c 1
 -419 671 l 1
 -394 739 -347 798 -284 798 c 0
 -252 798 -235 789 -214 775 c 0
 -195 761 -183 754 -168 754 c 0
 -145 754 -132 768 -116 797 c 1
 -30 755 l 1
 -56 685 -103 628 -166 628 c 0
EndSplineSet
EndChar

StartChar: uni0345
Encoding: 837 837 336
Width: 0
Flags: W
LayerCount: 2
Fore
SplineSet
-146 -208 m 0
 -237 -208 -284 -151 -284 -74 c 2
 -284 -43 l 1
 -161 -43 l 1
 -161 -70 l 2
 -161 -96 -149 -110 -122 -110 c 0
 -104 -110 -90 -105 -73 -96 c 1
 -30 -170 l 1
 -57 -191 -93 -208 -146 -208 c 0
EndSplineSet
EndChar

StartChar: uni035C
Encoding: 860 860 337
Width: 0
Flags: W
LayerCount: 2
Fore
SplineSet
342 -104 m 1
 259 -168 155 -228 -1 -228 c 0
 -157 -228 -261 -168 -344 -104 c 1
 -291 -27 l 1
 -218 -62 -121 -94 -1 -94 c 0
 119 -94 216 -62 288 -27 c 1
 342 -104 l 1
EndSplineSet
EndChar

StartChar: uni0361
Encoding: 865 865 338
Width: 0
Flags: W
LayerCount: 2
Fore
SplineSet
342 694 m 1
 288 617 l 1
 216 652 119 684 -1 684 c 0
 -121 684 -218 652 -291 617 c 1
 -344 694 l 1
 -261 758 -157 818 -1 818 c 0
 155 818 259 758 342 694 c 1
EndSplineSet
EndChar

StartChar: uni037E
Encoding: 894 894 339
Width: 240
Flags: W
LayerCount: 2
Fore
SplineSet
120 514 m 0
 174 514 217 470 217 417 c 0
 217 364 174 320 120 320 c 0
 66 320 23 364 23 417 c 0
 23 470 66 514 120 514 c 0
120 175 m 0
 175 175 217 133 217 78 c 0
 217 46 205 17 181 -38 c 2
 118 -181 l 1
 23 -181 l 1
 66 -1 l 1
 38 17 23 45 23 79 c 0
 23 133 65 175 120 175 c 0
EndSplineSet
EndChar

StartChar: uni0384
Encoding: 900 900 340
Width: 231
Flags: W
LayerCount: 2
Fore
SplineSet
31 844 m 1
 201 831 l 1
 152 596 l 1
 41 596 l 1
 31 844 l 1
EndSplineSet
EndChar

StartChar: uni0385
Encoding: 901 901 341
Width: 515
Flags: W
LayerCount: 2
Fore
SplineSet
200 958 m 1
 346 947 l 1
 304 745 l 1
 208 745 l 1
 200 958 l 1
118 766 m 0
 166 766 206 728 206 680 c 0
 206 632 166 594 118 594 c 0
 68 594 30 632 30 680 c 0
 30 728 68 766 118 766 c 0
397 766 m 0
 445 766 485 728 485 680 c 0
 485 632 445 594 397 594 c 0
 347 594 309 632 309 680 c 0
 309 728 347 766 397 766 c 0
EndSplineSet
EndChar

StartChar: uni0386
Encoding: 902 902 342
Width: 720
Flags: W
LayerCount: 2
Fore
SplineSet
80 708 m 1
 250 695 l 1
 201 459 l 1
 90 459 l 1
 80 708 l 1
543 0 m 1
 512 142 l 1
 328 142 l 1
 297 0 l 1
 105 0 l 1
 311 695 l 1
 533 695 l 1
 739 0 l 1
 543 0 l 1
357 274 m 1
 483 274 l 1
 419 563 l 1
 357 274 l 1
EndSplineSet
EndChar

StartChar: uni0387
Encoding: 903 903 343
Width: 240
Flags: W
LayerCount: 2
Fore
SplineSet
120 404 m 0
 174 404 217 360 217 307 c 0
 217 254 174 210 120 210 c 0
 66 210 23 254 23 307 c 0
 23 360 66 404 120 404 c 0
EndSplineSet
EndChar

StartChar: uni0388
Encoding: 904 904 344
Width: 746
Flags: W
LayerCount: 2
Fore
SplineSet
77 708 m 1
 247 695 l 1
 199 459 l 1
 87 459 l 1
 77 708 l 1
718 695 m 1
 699 564 l 1
 462 564 l 1
 462 416 l 1
 670 416 l 1
 670 289 l 1
 462 289 l 1
 462 131 l 1
 716 131 l 1
 716 0 l 1
 277 0 l 1
 277 695 l 1
 718 695 l 1
EndSplineSet
EndChar

StartChar: uni0389
Encoding: 905 905 345
Width: 885
Flags: W
LayerCount: 2
Fore
SplineSet
77 708 m 1
 247 695 l 1
 199 459 l 1
 87 459 l 1
 77 708 l 1
646 0 m 1
 646 289 l 1
 462 289 l 1
 462 0 l 1
 277 0 l 1
 277 695 l 1
 462 695 l 1
 462 432 l 1
 646 432 l 1
 646 695 l 1
 831 695 l 1
 831 0 l 1
 646 0 l 1
EndSplineSet
EndChar

StartChar: uni038A
Encoding: 906 906 346
Width: 516
Flags: W
LayerCount: 2
Fore
SplineSet
77 708 m 1
 247 695 l 1
 199 459 l 1
 87 459 l 1
 77 708 l 1
462 695 m 1
 462 0 l 1
 277 0 l 1
 277 695 l 1
 462 695 l 1
EndSplineSet
EndChar

StartChar: uni038C
Encoding: 908 908 347
Width: 861
Flags: W
LayerCount: 2
Fore
SplineSet
516 713 m 0
 718 713 834 579 834 348 c 0
 834 122 718 -18 516 -18 c 0
 314 -18 197 117 197 348 c 0
 197 574 314 713 516 713 c 0
67 708 m 1
 237 695 l 1
 189 459 l 1
 77 459 l 1
 67 708 l 1
516 580 m 0
 431 580 390 516 390 348 c 0
 390 180 431 115 516 115 c 0
 602 115 642 180 642 348 c 0
 642 516 601 580 516 580 c 0
EndSplineSet
EndChar

StartChar: uni038E
Encoding: 910 910 348
Width: 881
Flags: W
LayerCount: 2
Fore
SplineSet
77 708 m 1
 247 695 l 1
 199 459 l 1
 87 459 l 1
 77 708 l 1
892 695 m 1
 670 259 l 1
 670 0 l 1
 485 0 l 1
 485 258 l 1
 263 695 l 1
 465 695 l 1
 581 400 l 1
 697 695 l 1
 892 695 l 1
EndSplineSet
EndChar

StartChar: uni038F
Encoding: 911 911 349
Width: 885
Flags: W
LayerCount: 2
Fore
SplineSet
540 713 m 0
 742 713 858 568 858 385 c 0
 858 265 811 181 723 130 c 1
 837 130 l 1
 837 0 l 1
 572 0 l 1
 572 122 l 1
 656 161 665 237 665 385 c 0
 665 512 625 580 540 580 c 0
 455 580 414 512 414 385 c 0
 414 234 424 162 506 122 c 1
 506 0 l 1
 242 0 l 1
 242 130 l 1
 355 130 l 1
 269 179 221 264 221 385 c 0
 221 567 337 713 540 713 c 0
67 708 m 1
 237 695 l 1
 189 459 l 1
 77 459 l 1
 67 708 l 1
EndSplineSet
EndChar

StartChar: uni0390
Encoding: 912 912 350
Width: 279
Flags: W
LayerCount: 2
Fore
SplineSet
76 958 m 1
 222 947 l 1
 180 745 l 1
 84 745 l 1
 76 958 l 1
-6 766 m 0
 42 766 82 728 82 680 c 0
 82 632 42 594 -6 594 c 0
 -56 594 -94 632 -94 680 c 0
 -94 728 -56 766 -6 766 c 0
273 766 m 0
 321 766 361 728 361 680 c 0
 361 632 321 594 273 594 c 0
 223 594 185 632 185 680 c 0
 185 728 223 766 273 766 c 0
223 533 m 1
 223 190 l 2
 223 144 233 125 265 109 c 1
 214 -18 l 1
 106 -2 45 51 45 167 c 2
 45 533 l 1
 223 533 l 1
EndSplineSet
EndChar

StartChar: uni0391
Encoding: 913 913 351
Width: 596
Flags: W
LayerCount: 2
Fore
SplineSet
419 0 m 1
 388 142 l 1
 204 142 l 1
 173 0 l 1
 -19 0 l 1
 187 695 l 1
 409 695 l 1
 615 0 l 1
 419 0 l 1
233 274 m 1
 359 274 l 1
 296 563 l 1
 233 274 l 1
EndSplineSet
EndChar

StartChar: uni0392
Encoding: 914 914 352
Width: 619
Flags: W
LayerCount: 2
Fore
SplineSet
443 368 m 1
 520 352 599 315 599 204 c 0
 599 43 466 0 288 0 c 2
 54 0 l 1
 54 695 l 1
 261 695 l 2
 451 695 570 649 570 516 c 0
 570 427 506 384 443 368 c 1
278 566 m 2
 239 566 l 1
 239 421 l 1
 287 421 l 2
 352 421 382 444 382 497 c 0
 382 547 351 566 278 566 c 2
289 132 m 2
 359 132 408 146 408 215 c 0
 408 278 367 302 299 302 c 2
 239 302 l 1
 239 132 l 1
 289 132 l 2
EndSplineSet
EndChar

StartChar: uni0393
Encoding: 915 915 353
Width: 510
Flags: W
LayerCount: 2
Fore
SplineSet
513 695 m 1
 494 551 l 1
 239 551 l 1
 239 0 l 1
 54 0 l 1
 54 695 l 1
 513 695 l 1
EndSplineSet
EndChar

StartChar: uni0394
Encoding: 916 916 354
Width: 604
Flags: W
LayerCount: 2
Fore
SplineSet
414 695 m 1
 623 0 l 1
 -19 0 l 1
 191 695 l 1
 414 695 l 1
301 560 m 1
 202 133 l 1
 398 133 l 1
 301 560 l 1
EndSplineSet
EndChar

StartChar: uni0395
Encoding: 917 917 355
Width: 523
Flags: W
LayerCount: 2
Fore
SplineSet
495 695 m 1
 476 564 l 1
 239 564 l 1
 239 416 l 1
 446 416 l 1
 446 289 l 1
 239 289 l 1
 239 131 l 1
 492 131 l 1
 492 0 l 1
 54 0 l 1
 54 695 l 1
 495 695 l 1
EndSplineSet
EndChar

StartChar: uni0396
Encoding: 918 918 356
Width: 550
Flags: W
LayerCount: 2
Fore
SplineSet
522 695 m 1
 522 556 l 1
 233 146 l 1
 530 146 l 1
 511 0 l 1
 14 0 l 1
 14 137 l 1
 311 553 l 1
 43 553 l 1
 43 695 l 1
 522 695 l 1
EndSplineSet
EndChar

StartChar: uni0397
Encoding: 919 919 357
Width: 661
Flags: W
LayerCount: 2
Fore
SplineSet
423 0 m 1
 423 289 l 1
 239 289 l 1
 239 0 l 1
 54 0 l 1
 54 695 l 1
 239 695 l 1
 239 432 l 1
 423 432 l 1
 423 695 l 1
 608 695 l 1
 608 0 l 1
 423 0 l 1
EndSplineSet
EndChar

StartChar: uni0398
Encoding: 920 920 358
Width: 690
Flags: W
LayerCount: 2
Fore
SplineSet
345 713 m 0
 547 713 664 579 664 348 c 0
 664 122 547 -18 345 -18 c 0
 143 -18 27 117 27 348 c 0
 27 574 143 713 345 713 c 0
345 580 m 0
 252 580 208 516 208 348 c 0
 208 180 253 115 345 115 c 0
 440 115 482 180 482 348 c 0
 482 516 439 580 345 580 c 0
441 402 m 1
 441 302 l 1
 250 302 l 1
 250 402 l 1
 441 402 l 1
EndSplineSet
EndChar

StartChar: uni0399
Encoding: 921 921 359
Width: 293
Flags: W
LayerCount: 2
Fore
SplineSet
239 695 m 1
 239 0 l 1
 54 0 l 1
 54 695 l 1
 239 695 l 1
EndSplineSet
EndChar

StartChar: uni039A
Encoding: 922 922 360
Width: 646
Flags: W
LayerCount: 2
Fore
SplineSet
239 695 m 1
 239 0 l 1
 54 0 l 1
 54 695 l 1
 239 695 l 1
644 695 m 1
 435 385 l 1
 662 0 l 1
 450 0 l 1
 245 370 l 1
 451 695 l 1
 644 695 l 1
EndSplineSet
EndChar

StartChar: uni039B
Encoding: 923 923 361
Width: 596
Flags: W
LayerCount: 2
Fore
SplineSet
409 695 m 1
 615 0 l 1
 419 0 l 1
 296 563 l 1
 173 0 l 1
 -19 0 l 1
 187 695 l 1
 409 695 l 1
EndSplineSet
EndChar

StartChar: uni039C
Encoding: 924 924 362
Width: 789
Flags: W
LayerCount: 2
Fore
SplineSet
713 695 m 1
 765 0 l 1
 583 0 l 1
 574 259 l 2
 571 352 569 447 577 543 c 1
 482 72 l 1
 307 72 l 1
 206 543 l 1
 215 434 217 354 214 259 c 2
 206 0 l 1
 24 0 l 1
 75 695 l 1
 305 695 l 1
 398 234 l 1
 482 695 l 1
 713 695 l 1
EndSplineSet
EndChar

StartChar: uni039D
Encoding: 925 925 363
Width: 657
Flags: W
LayerCount: 2
Fore
SplineSet
603 695 m 1
 603 0 l 1
 370 0 l 1
 194 523 l 1
 203 457 218 364 218 235 c 2
 218 0 l 1
 54 0 l 1
 54 695 l 1
 282 695 l 1
 464 170 l 1
 453 239 439 325 439 443 c 2
 439 695 l 1
 603 695 l 1
EndSplineSet
EndChar

StartChar: uni039E
Encoding: 926 926 364
Width: 528
Flags: W
LayerCount: 2
Fore
SplineSet
506 695 m 1
 485 542 l 1
 25 542 l 1
 25 695 l 1
 506 695 l 1
437 424 m 1
 437 282 l 1
 90 282 l 1
 90 424 l 1
 437 424 l 1
503 158 m 1
 503 0 l 1
 25 0 l 1
 25 158 l 1
 503 158 l 1
EndSplineSet
EndChar

StartChar: uni039F
Encoding: 927 927 365
Width: 690
Flags: W
LayerCount: 2
Fore
SplineSet
345 713 m 0
 547 713 664 579 664 348 c 0
 664 122 547 -18 345 -18 c 0
 143 -18 27 117 27 348 c 0
 27 574 143 713 345 713 c 0
345 580 m 0
 260 580 219 516 219 348 c 0
 219 180 261 115 345 115 c 0
 432 115 471 180 471 348 c 0
 471 516 431 580 345 580 c 0
EndSplineSet
EndChar

StartChar: uni03A0
Encoding: 928 928 366
Width: 660
Flags: W
LayerCount: 2
Fore
SplineSet
607 695 m 1
 607 0 l 1
 422 0 l 1
 422 554 l 1
 239 554 l 1
 239 0 l 1
 54 0 l 1
 54 695 l 1
 607 695 l 1
EndSplineSet
EndChar

StartChar: uni03A1
Encoding: 929 929 367
Width: 605
Flags: W
LayerCount: 2
Fore
SplineSet
292 695 m 2
 475 695 587 619 587 465 c 0
 587 303 473 224 310 224 c 2
 239 224 l 1
 239 0 l 1
 54 0 l 1
 54 695 l 1
 292 695 l 2
293 356 m 2
 360 356 398 387 398 464 c 0
 398 530 363 565 289 565 c 2
 239 565 l 1
 239 356 l 1
 293 356 l 2
EndSplineSet
EndChar

StartChar: uni03A3
Encoding: 931 931 368
Width: 503
Flags: W
LayerCount: 2
Fore
SplineSet
487 695 m 1
 487 562 l 1
 219 562 l 1
 377 375 l 1
 377 308 l 1
 217 135 l 1
 487 135 l 1
 487 0 l 1
 16 0 l 1
 16 132 l 1
 199 340 l 1
 16 563 l 1
 16 695 l 1
 487 695 l 1
EndSplineSet
EndChar

StartChar: uni03A4
Encoding: 932 932 369
Width: 547
Flags: W
LayerCount: 2
Fore
SplineSet
549 695 m 1
 530 554 l 1
 366 554 l 1
 366 0 l 1
 181 0 l 1
 181 554 l 1
 7 554 l 1
 7 695 l 1
 549 695 l 1
EndSplineSet
EndChar

StartChar: uni03A5
Encoding: 933 933 370
Width: 607
Flags: W
LayerCount: 2
Fore
SplineSet
618 695 m 1
 396 259 l 1
 396 0 l 1
 211 0 l 1
 211 258 l 1
 -11 695 l 1
 191 695 l 1
 306 400 l 1
 422 695 l 1
 618 695 l 1
EndSplineSet
EndChar

StartChar: uni03A6
Encoding: 934 934 371
Width: 853
Flags: W
LayerCount: 2
Fore
SplineSet
842 350 m 0
 842 177 709 87 516 78 c 1
 516 0 l 1
 336 0 l 1
 336 78 l 1
 143 89 11 176 11 345 c 0
 11 515 143 606 336 616 c 1
 336 695 l 1
 516 695 l 1
 516 616 l 1
 709 606 842 518 842 350 c 0
507 184 m 1
 614 194 655 262 655 350 c 0
 655 439 611 501 507 510 c 1
 507 184 l 1
198 345 m 0
 198 254 242 193 345 184 c 1
 345 509 l 1
 238 500 198 436 198 345 c 0
EndSplineSet
EndChar

StartChar: uni03A7
Encoding: 935 935 372
Width: 594
Flags: W
LayerCount: 2
Fore
SplineSet
404 374 m 1
 601 0 l 1
 400 0 l 1
 292 251 l 1
 189 0 l 1
 -7 0 l 1
 183 369 l 1
 7 695 l 1
 206 695 l 1
 294 484 l 1
 390 695 l 1
 585 695 l 1
 404 374 l 1
EndSplineSet
EndChar

StartChar: uni03A8
Encoding: 936 936 373
Width: 738
Flags: W
LayerCount: 2
Fore
SplineSet
546 695 m 1
 723 695 l 1
 723 431 l 2
 723 296 635 203 461 179 c 1
 461 0 l 1
 276 0 l 1
 276 179 l 1
 100 202 15 291 15 430 c 2
 15 695 l 1
 191 695 l 1
 191 424 l 2
 191 358 216 318 285 304 c 1
 285 695 l 1
 453 695 l 1
 453 304 l 1
 520 320 546 359 546 424 c 2
 546 695 l 1
EndSplineSet
EndChar

StartChar: uni03A9
Encoding: 937 937 374
Width: 690
Flags: W
LayerCount: 2
Fore
SplineSet
345 713 m 0
 548 713 664 568 664 385 c 0
 664 265 617 181 529 130 c 1
 643 130 l 1
 643 0 l 1
 378 0 l 1
 378 122 l 1
 462 161 471 237 471 385 c 0
 471 512 431 580 345 580 c 0
 260 580 219 512 219 385 c 0
 219 234 230 162 312 122 c 1
 312 0 l 1
 48 0 l 1
 48 130 l 1
 161 130 l 1
 75 179 27 264 27 385 c 0
 27 567 143 713 345 713 c 0
EndSplineSet
EndChar

StartChar: uni03AA
Encoding: 938 938 375
Width: 293
Flags: W
LayerCount: 2
Fore
SplineSet
25 935 m 0
 75 935 113 897 113 849 c 0
 113 801 75 763 25 763 c 0
 -23 763 -63 801 -63 849 c 0
 -63 897 -23 935 25 935 c 0
263 935 m 0
 313 935 351 897 351 849 c 0
 351 801 313 763 263 763 c 0
 215 763 175 801 175 849 c 0
 175 897 215 935 263 935 c 0
239 695 m 1
 239 0 l 1
 54 0 l 1
 54 695 l 1
 239 695 l 1
EndSplineSet
EndChar

StartChar: uni03AB
Encoding: 939 939 376
Width: 607
Flags: W
LayerCount: 2
Fore
SplineSet
182 935 m 0
 232 935 270 897 270 849 c 0
 270 801 232 763 182 763 c 0
 134 763 94 801 94 849 c 0
 94 897 134 935 182 935 c 0
420 935 m 0
 470 935 508 897 508 849 c 0
 508 801 470 763 420 763 c 0
 372 763 332 801 332 849 c 0
 332 897 372 935 420 935 c 0
618 695 m 1
 396 259 l 1
 396 0 l 1
 211 0 l 1
 211 258 l 1
 -11 695 l 1
 191 695 l 1
 306 400 l 1
 422 695 l 1
 618 695 l 1
EndSplineSet
EndChar

StartChar: uni03AC
Encoding: 940 940 377
Width: 598
Flags: W
LayerCount: 2
Fore
SplineSet
216 844 m 1
 386 831 l 1
 337 596 l 1
 226 596 l 1
 216 844 l 1
249 551 m 0
 337 551 387 501 405 420 c 1
 419 533 l 1
 569 533 l 1
 495 263 l 1
 522 166 l 2
 532 131 551 117 581 112 c 1
 525 -18 l 1
 458 -10 416 18 402 76 c 2
 395 106 l 1
 360 22 310 -18 230 -18 c 0
 107 -18 25 79 25 262 c 0
 25 430 108 551 249 551 c 0
274 423 m 0
 234 423 203 375 203 262 c 0
 203 148 235 110 271 110 c 0
 312 110 340 144 362 273 c 1
 341 387 319 423 274 423 c 0
EndSplineSet
EndChar

StartChar: uni03AD
Encoding: 941 941 378
Width: 481
Flags: W
LayerCount: 2
Fore
SplineSet
195 844 m 1
 365 831 l 1
 316 596 l 1
 205 596 l 1
 195 844 l 1
261 551 m 0
 341 551 409 532 468 488 c 1
 397 398 l 1
 359 419 327 430 285 430 c 0
 247 430 221 413 221 382 c 0
 221 350 243 328 287 328 c 2
 356 328 l 1
 339 217 l 1
 280 217 l 2
 226 217 205 196 205 162 c 0
 205 127 230 106 286 106 c 0
 325 106 361 117 410 145 c 1
 483 46 l 1
 428 5 351 -18 258 -18 c 0
 123 -18 22 38 22 147 c 0
 22 227 71 272 167 283 c 1
 81 301 42 343 42 404 c 0
 42 495 131 551 261 551 c 0
EndSplineSet
EndChar

StartChar: uni03AE
Encoding: 942 942 379
Width: 573
Flags: W
LayerCount: 2
Fore
SplineSet
345 596 m 1
 234 596 l 1
 224 844 l 1
 394 831 l 1
 345 596 l 1
383 551 m 0
 473 551 529 493 529 388 c 2
 529 -224 l 1
 351 -206 l 1
 351 359 l 2
 351 408 335 421 311 421 c 0
 284 421 258 402 234 364 c 1
 234 0 l 1
 56 0 l 1
 56 389 l 2
 56 440 49 485 36 525 c 1
 200 546 l 1
 211 530 217 509 223 475 c 1
 269 526 319 551 383 551 c 0
EndSplineSet
EndChar

StartChar: uni03AF
Encoding: 943 943 380
Width: 279
Flags: W
LayerCount: 2
Fore
SplineSet
68 844 m 1
 238 831 l 1
 189 596 l 1
 78 596 l 1
 68 844 l 1
223 533 m 1
 223 190 l 2
 223 144 233 125 265 109 c 1
 214 -18 l 1
 106 -2 45 51 45 167 c 2
 45 533 l 1
 223 533 l 1
EndSplineSet
EndChar

StartChar: uni03B0
Encoding: 944 944 381
Width: 561
Flags: W
LayerCount: 2
Fore
SplineSet
217 958 m 1
 363 947 l 1
 321 745 l 1
 225 745 l 1
 217 958 l 1
135 766 m 0
 183 766 223 728 223 680 c 0
 223 632 183 594 135 594 c 0
 85 594 47 632 47 680 c 0
 47 728 85 766 135 766 c 0
414 766 m 0
 462 766 502 728 502 680 c 0
 502 632 462 594 414 594 c 0
 364 594 326 632 326 680 c 0
 326 728 364 766 414 766 c 0
497 533 m 1
 512 453 527 359 527 246 c 0
 527 56 392 -18 259 -18 c 0
 144 -18 45 41 45 186 c 2
 45 533 l 1
 223 533 l 1
 223 186 l 2
 223 129 242 111 273 111 c 0
 312 111 349 148 349 260 c 0
 349 344 338 441 322 533 c 1
 497 533 l 1
EndSplineSet
EndChar

StartChar: uni03B1
Encoding: 945 945 382
Width: 598
Flags: W
LayerCount: 2
Fore
SplineSet
249 551 m 0
 337 551 387 501 405 420 c 1
 419 533 l 1
 569 533 l 1
 495 263 l 1
 522 166 l 2
 532 131 551 117 581 112 c 1
 525 -18 l 1
 458 -10 416 18 402 76 c 2
 395 106 l 1
 360 22 310 -18 230 -18 c 0
 107 -18 25 79 25 262 c 0
 25 430 108 551 249 551 c 0
274 423 m 0
 234 423 203 375 203 262 c 0
 203 148 235 110 271 110 c 0
 312 110 340 144 362 273 c 1
 341 387 319 423 274 423 c 0
EndSplineSet
EndChar

StartChar: uni03B2
Encoding: 946 946 383
Width: 608
Flags: W
LayerCount: 2
Fore
SplineSet
396 406 m 1
 477 397 588 361 588 209 c 0
 588 74 493 -18 361 -18 c 0
 304 -18 260 -2 222 23 c 1
 222 -200 l 1
 51 -225 l 1
 51 547 l 2
 51 684 155 761 295 761 c 0
 444 761 531 680 531 571 c 0
 531 487 486 427 396 406 c 1
310 116 m 0
 367 116 409 148 409 225 c 0
 409 315 358 339 295 339 c 2
 259 339 l 1
 269 457 l 1
 286 457 l 2
 332 457 359 490 359 554 c 0
 359 612 333 638 292 638 c 0
 248 638 222 610 222 549 c 2
 222 135 l 1
 245 123 271 116 310 116 c 0
EndSplineSet
EndChar

StartChar: uni03B3
Encoding: 947 947 384
Width: 515
Flags: W
LayerCount: 2
Fore
SplineSet
139 551 m 1
 186 496 232 383 259 177 c 1
 350 550 l 1
 526 512 l 1
 343 29 l 2
 311 -53 306 -106 324 -208 c 1
 182 -225 l 1
 141 -143 139 -83 174 12 c 1
 119 240 42 415 -21 496 c 1
 139 551 l 1
EndSplineSet
EndChar

StartChar: uni03B4
Encoding: 948 948 385
Width: 577
Flags: W
LayerCount: 2
Fore
SplineSet
341 524 m 0
 487 466 552 394 552 249 c 0
 552 83 448 -18 288 -18 c 0
 124 -18 25 79 25 242 c 0
 25 339 76 412 178 460 c 1
 94 507 78 548 78 603 c 0
 78 689 145 761 304 761 c 0
 390 761 456 733 499 698 c 1
 420 607 l 1
 388 627 355 640 315 640 c 0
 266 640 247 622 247 598 c 0
 247 570 257 558 341 524 c 0
287 111 m 0
 341 111 369 152 369 250 c 0
 369 343 355 374 267 417 c 1
 218 371 206 321 206 250 c 0
 206 153 231 111 287 111 c 0
EndSplineSet
EndChar

StartChar: uni03B5
Encoding: 949 949 386
Width: 481
Flags: W
LayerCount: 2
Fore
SplineSet
261 551 m 0
 341 551 409 532 468 488 c 1
 397 398 l 1
 359 419 327 430 285 430 c 0
 247 430 221 413 221 382 c 0
 221 350 243 328 287 328 c 2
 356 328 l 1
 339 217 l 1
 280 217 l 2
 226 217 205 196 205 162 c 0
 205 127 230 106 286 106 c 0
 325 106 361 117 410 145 c 1
 483 46 l 1
 428 5 351 -18 258 -18 c 0
 123 -18 22 38 22 147 c 0
 22 227 71 272 167 283 c 1
 81 301 42 343 42 404 c 0
 42 495 131 551 261 551 c 0
EndSplineSet
EndChar

StartChar: uni03B6
Encoding: 950 950 387
Width: 429
Flags: W
LayerCount: 2
Fore
SplineSet
428 743 m 1
 451 652 l 1
 245 478 199 360 199 263 c 0
 199 194 228 164 313 127 c 0
 393 93 443 58 443 -26 c 0
 443 -112 381 -171 254 -225 c 1
 189 -121 l 1
 232 -96 261 -76 261 -43 c 0
 261 -16 249 -3 187 24 c 0
 64 81 16 128 16 255 c 0
 16 377 108 517 298 637 c 1
 270 627 216 617 167 617 c 2
 30 617 l 1
 49 743 l 1
 428 743 l 1
EndSplineSet
EndChar

StartChar: uni03B7
Encoding: 951 951 388
Width: 573
Flags: W
LayerCount: 2
Fore
SplineSet
383 551 m 0
 473 551 529 493 529 388 c 2
 529 -224 l 1
 351 -206 l 1
 351 359 l 2
 351 408 335 421 311 421 c 0
 284 421 258 402 234 364 c 1
 234 0 l 1
 56 0 l 1
 56 389 l 2
 56 440 49 485 36 525 c 1
 200 546 l 1
 211 530 217 509 223 475 c 1
 269 526 319 551 383 551 c 0
EndSplineSet
EndChar

StartChar: uni03B8
Encoding: 952 952 389
Width: 559
Flags: W
LayerCount: 2
Fore
SplineSet
280 761 m 0
 444 761 535 631 535 373 c 0
 535 112 444 -18 280 -18 c 0
 115 -18 25 111 25 373 c 0
 25 629 115 761 280 761 c 0
280 635 m 0
 223 635 194 597 190 423 c 1
 368 423 l 1
 364 597 337 635 280 635 c 0
280 108 m 0
 335 108 364 147 368 324 c 1
 190 324 l 1
 195 147 225 108 280 108 c 0
EndSplineSet
EndChar

StartChar: uni03B9
Encoding: 953 953 390
Width: 279
Flags: W
LayerCount: 2
Fore
SplineSet
223 533 m 1
 223 190 l 2
 223 144 233 125 265 109 c 1
 214 -18 l 1
 106 -2 45 51 45 167 c 2
 45 533 l 1
 223 533 l 1
EndSplineSet
EndChar

StartChar: uni03BA
Encoding: 954 954 391
Width: 560
Flags: W
LayerCount: 2
Fore
SplineSet
558 486 m 1
 425 286 l 1
 526 150 l 2
 540 131 552 121 572 115 c 1
 511 -18 l 1
 446 -12 398 10 358 80 c 2
 238 281 l 1
 406 550 l 1
 558 486 l 1
200 546 m 1
 221 508 234 457 234 347 c 2
 234 0 l 1
 56 0 l 1
 56 389 l 2
 56 440 46 493 36 525 c 1
 200 546 l 1
EndSplineSet
EndChar

StartChar: uni03BB
Encoding: 955 955 392
Width: 541
Flags: W
LayerCount: 2
Fore
SplineSet
80 760 m 1
 260 735 353 688 398 495 c 0
 458 240 489 136 560 37 c 1
 387 -18 l 1
 325 87 297 183 265 395 c 1
 180 -18 l 1
 4 21 l 1
 164 533 l 1
 223 533 l 1
 193 604 162 625 60 640 c 1
 80 760 l 1
EndSplineSet
EndChar

StartChar: uni03BC
Encoding: 956 956 393
Width: 580
Flags: W
LayerCount: 2
Fore
SplineSet
544 0 m 1
 381 -18 l 1
 368 8 364 27 358 62 c 1
 331 17 298 -7 259 -7 c 0
 226 -7 198 1 172 33 c 1
 199 -10 219 -46 219 -118 c 2
 219 -206 l 1
 51 -223 l 1
 51 533 l 1
 229 533 l 1
 229 170 l 2
 229 130 248 118 271 118 c 0
 295 118 321 134 343 172 c 1
 343 533 l 1
 521 533 l 1
 521 183 l 2
 521 102 532 41 544 0 c 1
EndSplineSet
EndChar

StartChar: uni03BD
Encoding: 957 957 394
Width: 515
Flags: W
LayerCount: 2
Fore
SplineSet
139 551 m 1
 187 496 231 359 256 141 c 1
 354 550 l 1
 526 512 l 1
 356 0 l 1
 149 0 l 1
 103 234 51 422 -21 496 c 1
 139 551 l 1
EndSplineSet
EndChar

StartChar: uni03BE
Encoding: 958 958 395
Width: 454
Flags: W
LayerCount: 2
Fore
SplineSet
280 761 m 0
 365 761 424 741 476 700 c 1
 400 606 l 1
 370 625 345 638 307 638 c 0
 265 638 241 612 241 568 c 0
 241 520 268 492 317 492 c 2
 376 492 l 1
 360 377 l 1
 315 377 l 2
 249 377 205 337 205 273 c 0
 205 200 240 173 344 129 c 0
 428 92 476 58 476 -26 c 0
 476 -112 415 -171 287 -225 c 1
 222 -121 l 1
 266 -96 294 -76 294 -43 c 0
 294 -16 283 -3 219 26 c 0
 104 77 22 119 22 257 c 0
 22 369 90 425 186 445 c 1
 107 467 61 514 61 593 c 0
 61 693 156 761 280 761 c 0
EndSplineSet
EndChar

StartChar: uni03BF
Encoding: 959 959 396
Width: 584
Flags: W
LayerCount: 2
Fore
SplineSet
292 551 m 0
 457 551 559 448 559 266 c 0
 559 94 458 -18 292 -18 c 0
 127 -18 25 85 25 267 c 0
 25 439 126 551 292 551 c 0
292 422 m 0
 235 422 208 375 208 267 c 0
 208 155 235 111 292 111 c 0
 349 111 376 158 376 266 c 0
 376 377 349 422 292 422 c 0
EndSplineSet
EndChar

StartChar: uni03C0
Encoding: 960 960 397
Width: 617
Flags: W
LayerCount: 2
Fore
SplineSet
597 402 m 1
 542 402 l 1
 542 190 l 2
 542 144 553 125 584 109 c 1
 533 -18 l 1
 425 -2 364 51 364 167 c 2
 364 402 l 1
 266 402 l 1
 266 0 l 1
 91 0 l 1
 91 402 l 1
 63 401 49 398 26 391 c 1
 -5 507 l 1
 32 524 69 533 154 533 c 2
 597 533 l 1
 597 402 l 1
EndSplineSet
EndChar

StartChar: uni03C1
Encoding: 961 961 398
Width: 586
Flags: W
LayerCount: 2
Fore
SplineSet
294 551 m 0
 462 551 556 455 556 268 c 0
 556 105 474 -18 344 -18 c 0
 296 -18 254 -3 218 42 c 1
 218 -206 l 1
 40 -224 l 1
 40 276 l 2
 40 451 122 551 294 551 c 0
291 110 m 0
 340 110 373 153 373 266 c 0
 373 394 340 423 295 423 c 0
 238 423 218 377 218 262 c 2
 218 157 l 1
 238 123 260 110 291 110 c 0
EndSplineSet
EndChar

StartChar: uni03C2
Encoding: 962 962 399
Width: 481
Flags: W
LayerCount: 2
Fore
SplineSet
293 551 m 0
 372 551 431 527 481 483 c 1
 406 378 l 1
 374 405 343 416 309 416 c 0
 250 416 210 379 210 277 c 0
 210 199 234 168 327 128 c 0
 406 93 454 58 454 -26 c 0
 454 -112 393 -171 266 -225 c 1
 201 -121 l 1
 244 -96 273 -76 273 -43 c 0
 273 -16 261 -4 199 24 c 0
 94 70 25 126 25 277 c 0
 25 436 133 551 293 551 c 0
EndSplineSet
EndChar

StartChar: uni03C3
Encoding: 963 963 400
Width: 608
Flags: W
LayerCount: 2
Fore
SplineSet
603 533 m 1
 603 404 l 1
 503 411 l 1
 540 376 559 330 559 258 c 0
 559 94 458 -18 292 -18 c 0
 127 -18 25 85 25 267 c 0
 25 434 116 542 314 542 c 0
 413 542 511 537 603 533 c 1
292 111 m 0
 349 111 376 158 376 258 c 0
 376 347 364 391 346 416 c 1
 242 416 208 393 208 266 c 0
 208 155 235 111 292 111 c 0
EndSplineSet
EndChar

StartChar: uni03C4
Encoding: 964 964 401
Width: 488
Flags: W
LayerCount: 2
Fore
SplineSet
487 402 m 1
 335 402 l 1
 335 190 l 2
 335 144 346 125 377 109 c 1
 326 -18 l 1
 218 -2 157 51 157 167 c 2
 157 402 l 1
 115 402 l 2
 65 402 51 400 22 391 c 1
 -9 507 l 1
 29 524 65 533 143 533 c 2
 487 533 l 1
 487 402 l 1
EndSplineSet
EndChar

StartChar: uni03C5
Encoding: 965 965 402
Width: 561
Flags: W
LayerCount: 2
Fore
SplineSet
497 533 m 1
 512 453 527 359 527 246 c 0
 527 56 392 -18 259 -18 c 0
 144 -18 45 41 45 186 c 2
 45 533 l 1
 223 533 l 1
 223 186 l 2
 223 129 242 111 273 111 c 0
 312 111 349 148 349 260 c 0
 349 344 338 441 322 533 c 1
 497 533 l 1
EndSplineSet
EndChar

StartChar: uni03C6
Encoding: 966 966 403
Width: 761
Flags: W
LayerCount: 2
Fore
SplineSet
731 270 m 0
 731 90 645 2 462 -16 c 1
 462 -206 l 1
 297 -224 l 1
 297 -16 l 1
 112 1 28 97 28 241 c 0
 28 356 59 455 89 533 c 1
 258 533 l 1
 227 441 200 354 200 255 c 0
 200 161 224 115 297 102 c 1
 297 321 l 2
 297 464 368 551 506 551 c 0
 658 551 731 454 731 270 c 0
462 103 m 1
 540 114 560 156 560 268 c 0
 560 407 544 434 508 434 c 0
 478 434 462 417 462 328 c 2
 462 103 l 1
EndSplineSet
EndChar

StartChar: uni03C7
Encoding: 967 967 404
Width: 502
Flags: W
LayerCount: 2
Fore
SplineSet
341 185 m 1
 521 -195 l 1
 343 -224 l 1
 248 45 l 1
 161 -224 l 1
 -21 -205 l 1
 160 181 l 1
 85 340 40 425 -27 495 c 1
 147 547 l 1
 190 480 210 441 252 298 c 1
 316 546 l 1
 498 528 l 1
 341 185 l 1
EndSplineSet
EndChar

StartChar: uni03C8
Encoding: 968 968 405
Width: 787
Flags: W
LayerCount: 2
Fore
SplineSet
754 244 m 0
 754 83 644 -1 480 -16 c 1
 480 -206 l 1
 311 -224 l 1
 311 -16 l 1
 131 -1 43 86 43 204 c 2
 43 533 l 1
 217 533 l 1
 217 214 l 2
 217 155 241 117 311 106 c 1
 311 533 l 1
 480 533 l 1
 480 108 l 1
 549 121 580 167 580 250 c 0
 580 336 569 441 553 533 c 1
 724 533 l 1
 741 453 754 359 754 244 c 0
EndSplineSet
EndChar

StartChar: uni03C9
Encoding: 969 969 406
Width: 773
Flags: W
LayerCount: 2
Fore
SplineSet
681 533 m 1
 717 456 745 359 745 243 c 0
 745 63 660 -18 543 -18 c 0
 457 -18 406 15 386 100 c 1
 363 14 316 -18 230 -18 c 0
 110 -18 28 62 28 243 c 0
 28 359 56 455 92 533 c 1
 251 533 l 1
 224 442 202 351 202 253 c 0
 202 150 223 111 260 111 c 0
 286 111 304 122 304 188 c 2
 304 355 l 1
 469 377 l 1
 469 188 l 2
 469 124 488 111 515 111 c 0
 549 111 571 146 571 253 c 0
 571 350 548 442 522 533 c 1
 681 533 l 1
EndSplineSet
EndChar

StartChar: uni03CA
Encoding: 970 970 407
Width: 279
Flags: W
LayerCount: 2
Fore
SplineSet
14 809 m 0
 64 809 102 771 102 723 c 0
 102 675 64 637 14 637 c 0
 -34 637 -74 675 -74 723 c 0
 -74 771 -34 809 14 809 c 0
252 809 m 0
 302 809 340 771 340 723 c 0
 340 675 302 637 252 637 c 0
 204 637 164 675 164 723 c 0
 164 771 204 809 252 809 c 0
223 533 m 1
 223 190 l 2
 223 144 233 125 265 109 c 1
 214 -18 l 1
 106 -2 45 51 45 167 c 2
 45 533 l 1
 223 533 l 1
EndSplineSet
EndChar

StartChar: uni03CB
Encoding: 971 971 408
Width: 561
Flags: W
LayerCount: 2
Fore
SplineSet
155 809 m 0
 205 809 243 771 243 723 c 0
 243 675 205 637 155 637 c 0
 107 637 67 675 67 723 c 0
 67 771 107 809 155 809 c 0
393 809 m 0
 443 809 481 771 481 723 c 0
 481 675 443 637 393 637 c 0
 345 637 305 675 305 723 c 0
 305 771 345 809 393 809 c 0
497 533 m 1
 512 453 527 359 527 246 c 0
 527 56 392 -18 259 -18 c 0
 144 -18 45 41 45 186 c 2
 45 533 l 1
 223 533 l 1
 223 186 l 2
 223 129 242 111 273 111 c 0
 312 111 349 148 349 260 c 0
 349 344 338 441 322 533 c 1
 497 533 l 1
EndSplineSet
EndChar

StartChar: uni03CC
Encoding: 972 972 409
Width: 584
Flags: W
LayerCount: 2
Fore
SplineSet
227 844 m 1
 397 831 l 1
 348 596 l 1
 237 596 l 1
 227 844 l 1
292 551 m 0
 457 551 559 448 559 266 c 0
 559 94 458 -18 292 -18 c 0
 127 -18 25 85 25 267 c 0
 25 439 126 551 292 551 c 0
292 422 m 0
 235 422 208 375 208 267 c 0
 208 155 235 111 292 111 c 0
 349 111 376 158 376 266 c 0
 376 377 349 422 292 422 c 0
EndSplineSet
EndChar

StartChar: uni03CD
Encoding: 973 973 410
Width: 561
Flags: W
LayerCount: 2
Fore
SplineSet
209 844 m 1
 379 831 l 1
 330 596 l 1
 219 596 l 1
 209 844 l 1
497 533 m 1
 512 453 527 359 527 246 c 0
 527 56 392 -18 259 -18 c 0
 144 -18 45 41 45 186 c 2
 45 533 l 1
 223 533 l 1
 223 186 l 2
 223 129 242 111 273 111 c 0
 312 111 349 148 349 260 c 0
 349 344 338 441 322 533 c 1
 497 533 l 1
EndSplineSet
EndChar

StartChar: uni03CE
Encoding: 974 974 411
Width: 773
Flags: W
LayerCount: 2
Fore
SplineSet
321 844 m 1
 491 831 l 1
 442 596 l 1
 331 596 l 1
 321 844 l 1
681 533 m 1
 717 456 745 359 745 243 c 0
 745 63 660 -18 543 -18 c 0
 457 -18 406 15 386 100 c 1
 363 14 316 -18 230 -18 c 0
 110 -18 28 62 28 243 c 0
 28 359 56 455 92 533 c 1
 251 533 l 1
 224 442 202 351 202 253 c 0
 202 150 223 111 260 111 c 0
 286 111 304 122 304 188 c 2
 304 355 l 1
 469 377 l 1
 469 188 l 2
 469 124 488 111 515 111 c 0
 549 111 571 146 571 253 c 0
 571 350 548 442 522 533 c 1
 681 533 l 1
EndSplineSet
EndChar

StartChar: uni03D0
Encoding: 976 976 412
Width: 565
Flags: W
LayerCount: 2
Fore
SplineSet
387 429 m 0
 481 429 546 357 546 233 c 0
 546 83 440 -18 283 -18 c 0
 101 -18 25 121 25 343 c 0
 25 602 149 761 317 761 c 0
 443 761 498 689 498 611 c 0
 498 528 451 463 326 421 c 1
 351 427 365 429 387 429 c 0
303 638 m 0
 261 638 216 593 205 440 c 1
 230 449 l 2
 312 479 342 532 342 594 c 0
 342 623 325 638 303 638 c 0
283 109 m 0
 332 109 362 146 362 227 c 0
 362 307 334 350 283 350 c 0
 267 350 246 345 224 337 c 2
 202 328 l 1
 205 156 233 109 283 109 c 0
EndSplineSet
EndChar

StartChar: uni03D1
Encoding: 977 977 413
Width: 552
Flags: W
LayerCount: 2
Fore
SplineSet
541 517 m 1
 541 402 l 1
 507 402 l 1
 507 120 442 -18 242 -18 c 0
 124 -18 36 41 36 186 c 2
 36 354 l 1
 206 354 l 1
 206 171 l 2
 206 125 221 107 251 107 c 0
 307 108 328 171 328 400 c 2
 328 401 l 1
 246 401 l 2
 89 401 24 468 24 572 c 0
 24 673 109 761 241 761 c 0
 389 761 473 674 499 517 c 1
 541 517 l 1
252 517 m 2
 322 517 l 1
 311 610 283 635 240 635 c 0
 201 635 179 611 179 576 c 0
 179 538 203 516 252 517 c 2
EndSplineSet
EndChar

StartChar: uni03D2
Encoding: 978 978 414
Width: 647
Flags: W
LayerCount: 2
Fore
SplineSet
211 0 m 1
 211 258 l 1
 -11 695 l 1
 191 695 l 1
 306 400 l 1
 364 559 l 2
 402 670 455 713 556 713 c 0
 610 713 649 698 682 677 c 1
 633 570 l 1
 620 578 603 584 582 584 c 0
 552 584 536 572 519 533 c 2
 396 259 l 1
 396 0 l 1
 211 0 l 1
EndSplineSet
EndChar

StartChar: uni03D5
Encoding: 981 981 415
Width: 673
Flags: W
LayerCount: 2
Fore
SplineSet
653 269 m 0
 653 96 549 19 425 6 c 1
 424 -206 l 1
 246 -224 l 1
 247 6 l 1
 127 19 20 91 20 264 c 0
 20 436 123 513 246 527 c 1
 246 743 l 1
 424 761 l 1
 424 527 l 1
 546 514 653 443 653 269 c 0
407 116 m 1
 457 123 482 168 482 269 c 0
 482 373 454 411 407 418 c 1
 407 116 l 1
191 264 m 0
 191 168 219 125 264 116 c 1
 264 416 l 1
 216 410 191 367 191 264 c 0
EndSplineSet
EndChar

StartChar: uni03D6
Encoding: 982 982 416
Width: 760
Flags: W
LayerCount: 2
Fore
SplineSet
751 533 m 1
 751 410 l 1
 667 410 l 1
 702 357 728 295 728 223 c 0
 728 67 649 -18 537 -18 c 0
 452 -18 402 15 381 100 c 1
 358 14 312 -18 227 -18 c 0
 112 -18 36 66 36 223 c 0
 36 295 62 357 97 410 c 1
 68 409 54 406 31 399 c 1
 0 507 l 1
 37 524 77 533 170 533 c 2
 751 533 l 1
555 241 m 0
 555 302 544 357 525 410 c 1
 239 410 l 1
 220 357 209 302 209 241 c 0
 209 150 225 111 259 111 c 0
 281 111 300 122 300 188 c 2
 300 293 l 1
 464 314 l 1
 464 188 l 2
 464 124 483 111 505 111 c 0
 538 111 555 146 555 241 c 0
EndSplineSet
EndChar

StartChar: uni03D7
Encoding: 983 983 417
Width: 562
Flags: W
LayerCount: 2
Fore
SplineSet
505 190 m 2
 505 138 513 118 547 100 c 1
 547 -31 l 2
 547 -165 470 -232 341 -232 c 0
 274 -232 221 -213 187 -188 c 1
 246 -84 l 1
 271 -96 294 -104 330 -104 c 0
 370 -104 394 -86 394 -46 c 2
 395 32 l 1
 362 54 343 90 343 144 c 0
 343 212 379 333 405 399 c 1
 185 -12 l 1
 56 28 l 1
 56 341 l 2
 56 385 49 406 14 422 c 1
 66 550 l 1
 158 532 219 485 219 388 c 0
 219 320 182 199 156 132 c 1
 376 544 l 1
 505 503 l 1
 505 190 l 2
EndSplineSet
EndChar

StartChar: uni03F0
Encoding: 1008 1008 418
Width: 561
Flags: W
LayerCount: 2
Fore
SplineSet
505 190 m 2
 505 147 512 126 547 110 c 1
 495 -18 l 1
 403 0 343 47 343 144 c 0
 343 212 379 333 405 399 c 1
 185 -12 l 1
 56 28 l 1
 56 341 l 2
 56 385 49 406 14 422 c 1
 66 550 l 1
 158 532 219 485 219 388 c 0
 219 320 182 199 156 132 c 1
 376 544 l 1
 505 503 l 1
 505 190 l 2
EndSplineSet
EndChar

StartChar: uni03F1
Encoding: 1009 1009 419
Width: 586
Flags: W
LayerCount: 2
Fore
SplineSet
343 -68 m 0
 439 -82 485 -116 504 -192 c 1
 352 -225 l 1
 340 -193 321 -187 233 -174 c 0
 105 -157 40 -97 40 45 c 2
 40 276 l 2
 40 451 122 551 294 551 c 0
 462 551 556 455 556 289 c 0
 556 145 474 20 344 20 c 0
 296 20 254 36 218 82 c 1
 218 16 l 2
 218 -38 248 -53 343 -68 c 0
296 423 m 0
 238 423 218 377 218 262 c 2
 218 197 l 1
 238 162 260 149 291 149 c 0
 340 149 373 193 373 287 c 0
 373 394 340 423 296 423 c 0
EndSplineSet
EndChar

StartChar: uni03F2
Encoding: 1010 1010 420
Width: 513
Flags: W
LayerCount: 2
Fore
SplineSet
311 551 m 0
 401 551 457 528 516 483 c 1
 441 379 l 1
 401 405 370 416 327 416 c 0
 256 416 210 372 210 263 c 0
 210 154 260 120 325 120 c 0
 372 120 399 132 439 154 c 1
 516 46 l 1
 461 7 402 -18 313 -18 c 0
 138 -18 25 87 25 262 c 0
 25 431 142 551 311 551 c 0
EndSplineSet
EndChar

StartChar: uni03F4
Encoding: 1012 1012 421
Width: 690
Flags: W
LayerCount: 2
Fore
SplineSet
345 713 m 0
 547 713 664 579 664 348 c 0
 664 122 547 -18 345 -18 c 0
 143 -18 27 117 27 348 c 0
 27 574 143 713 345 713 c 0
345 580 m 0
 270 580 225 530 216 401 c 1
 474 401 l 1
 465 530 421 580 345 580 c 0
345 115 m 0
 423 115 467 168 475 301 c 1
 215 301 l 1
 224 168 269 115 345 115 c 0
EndSplineSet
EndChar

StartChar: uni03F5
Encoding: 1013 1013 422
Width: 488
Flags: W
LayerCount: 2
Fore
SplineSet
307 109 m 0
 343 109 372 120 407 147 c 1
 482 46 l 1
 431 6 374 -18 301 -18 c 0
 128 -18 25 95 25 263 c 0
 25 432 130 551 294 551 c 0
 372 551 431 527 482 483 c 1
 407 386 l 1
 373 413 341 424 305 424 c 0
 245 424 208 393 203 320 c 1
 387 320 l 1
 387 222 l 1
 203 222 l 1
 206 138 251 109 307 109 c 0
EndSplineSet
EndChar

StartChar: uni03F6
Encoding: 1014 1014 423
Width: 486
Flags: W
LayerCount: 2
Fore
SplineSet
212 551 m 0
 363 551 462 458 462 272 c 0
 462 96 366 -18 191 -18 c 0
 115 -18 58 4 6 42 c 1
 80 142 l 1
 118 118 146 109 183 109 c 0
 233 109 276 137 283 222 c 1
 100 222 l 1
 100 320 l 1
 282 320 l 1
 277 398 244 424 197 424 c 0
 160 424 129 414 93 390 c 1
 18 487 l 1
 69 528 132 551 212 551 c 0
EndSplineSet
EndChar

StartChar: uni0400
Encoding: 1024 1024 424
Width: 523
Flags: W
LayerCount: 2
Fore
SplineSet
193 970 m 1
 420 840 l 1
 375 750 l 1
 128 839 l 1
 193 970 l 1
495 695 m 1
 476 564 l 1
 239 564 l 1
 239 416 l 1
 446 416 l 1
 446 289 l 1
 239 289 l 1
 239 131 l 1
 492 131 l 1
 492 0 l 1
 54 0 l 1
 54 695 l 1
 495 695 l 1
EndSplineSet
EndChar

StartChar: uni0401
Encoding: 1025 1025 425
Width: 523
Flags: W
LayerCount: 2
Fore
SplineSet
154 935 m 0
 204 935 242 897 242 849 c 0
 242 801 204 763 154 763 c 0
 106 763 66 801 66 849 c 0
 66 897 106 935 154 935 c 0
392 935 m 0
 442 935 480 897 480 849 c 0
 480 801 442 763 392 763 c 0
 344 763 304 801 304 849 c 0
 304 897 344 935 392 935 c 0
495 695 m 1
 476 564 l 1
 239 564 l 1
 239 416 l 1
 446 416 l 1
 446 289 l 1
 239 289 l 1
 239 131 l 1
 492 131 l 1
 492 0 l 1
 54 0 l 1
 54 695 l 1
 495 695 l 1
EndSplineSet
EndChar

StartChar: uni0402
Encoding: 1026 1026 426
Width: 760
Flags: W
LayerCount: 2
Fore
SplineSet
515 476 m 0
 659 476 737 381 737 227 c 2
 737 108 l 2
 737 -76 620 -140 501 -179 c 1
 452 -49 l 1
 541 -14 552 35 552 115 c 2
 552 227 l 2
 552 306 526 342 463 342 c 0
 420 342 390 328 366 306 c 1
 366 0 l 1
 181 0 l 1
 181 558 l 1
 7 558 l 1
 7 695 l 1
 549 695 l 1
 530 558 l 1
 366 558 l 1
 366 424 l 1
 406 457 453 476 515 476 c 0
EndSplineSet
EndChar

StartChar: uni0403
Encoding: 1027 1027 427
Width: 510
Flags: W
LayerCount: 2
Fore
SplineSet
438 839 m 1
 191 750 l 1
 146 840 l 1
 374 970 l 1
 438 839 l 1
513 695 m 1
 494 551 l 1
 239 551 l 1
 239 0 l 1
 54 0 l 1
 54 695 l 1
 513 695 l 1
EndSplineSet
EndChar

StartChar: uni0404
Encoding: 1028 1028 428
Width: 579
Flags: W
LayerCount: 2
Fore
SplineSet
497 177 m 1
 576 76 l 1
 527 26 447 -18 343 -18 c 0
 154 -18 27 110 27 349 c 0
 27 581 161 713 347 713 c 0
 440 713 509 683 568 633 c 1
 480 531 l 1
 440 564 401 581 355 581 c 0
 282 581 224 526 214 418 c 1
 445 418 l 1
 445 292 l 1
 215 292 l 1
 221 177 281 117 357 117 c 0
 415 117 457 145 497 177 c 1
EndSplineSet
EndChar

StartChar: uni0405
Encoding: 1029 1029 429
Width: 580
Flags: W
LayerCount: 2
Fore
SplineSet
294 713 m 0
 402 713 480 680 542 621 c 1
 459 523 l 1
 411 561 363 580 308 580 c 0
 254 580 224 559 224 521 c 0
 224 481 250 467 354 433 c 0
 491 390 560 331 560 205 c 0
 560 74 454 -18 276 -18 c 0
 149 -18 62 28 5 83 c 1
 96 184 l 1
 147 142 202 116 269 116 c 0
 333 116 368 146 368 191 c 0
 368 237 344 257 248 286 c 0
 86 337 34 404 34 506 c 0
 34 633 145 713 294 713 c 0
EndSplineSet
EndChar

StartChar: uni0406
Encoding: 1030 1030 430
Width: 293
Flags: W
LayerCount: 2
Fore
SplineSet
239 695 m 1
 239 0 l 1
 54 0 l 1
 54 695 l 1
 239 695 l 1
EndSplineSet
EndChar

StartChar: uni0407
Encoding: 1031 1031 431
Width: 293
Flags: W
LayerCount: 2
Fore
SplineSet
25 935 m 0
 75 935 113 897 113 849 c 0
 113 801 75 763 25 763 c 0
 -23 763 -63 801 -63 849 c 0
 -63 897 -23 935 25 935 c 0
263 935 m 0
 313 935 351 897 351 849 c 0
 351 801 313 763 263 763 c 0
 215 763 175 801 175 849 c 0
 175 897 215 935 263 935 c 0
239 695 m 1
 239 0 l 1
 54 0 l 1
 54 695 l 1
 239 695 l 1
EndSplineSet
EndChar

StartChar: uni0408
Encoding: 1032 1032 432
Width: 321
Flags: W
LayerCount: 2
Fore
SplineSet
270 695 m 1
 270 108 l 2
 270 -76 153 -140 34 -179 c 1
 -15 -49 l 1
 74 -14 85 35 85 115 c 2
 85 695 l 1
 270 695 l 1
EndSplineSet
EndChar

StartChar: uni0409
Encoding: 1033 1033 433
Width: 942
Flags: W
LayerCount: 2
Fore
SplineSet
649 463 m 2
 826 463 929 390 929 238 c 0
 929 76 814 0 656 0 c 2
 406 0 l 1
 406 556 l 1
 294 556 l 1
 269 341 l 2
 244 122 202 14 42 -18 c 1
 -1 109 l 1
 70 139 79 193 98 353 c 2
 139 695 l 1
 591 695 l 1
 591 463 l 1
 649 463 l 2
635 132 m 2
 702 132 736 166 736 236 c 0
 736 301 706 337 631 337 c 2
 591 337 l 1
 591 132 l 1
 635 132 l 2
EndSplineSet
EndChar

StartChar: uni040A
Encoding: 1034 1034 434
Width: 954
Flags: W
LayerCount: 2
Fore
SplineSet
653 451 m 2
 833 451 941 378 941 232 c 0
 941 73 828 0 658 0 c 2
 418 0 l 1
 418 321 l 1
 239 321 l 1
 239 0 l 1
 54 0 l 1
 54 695 l 1
 239 695 l 1
 239 451 l 1
 418 451 l 1
 418 695 l 1
 603 695 l 1
 603 451 l 1
 653 451 l 2
649 133 m 2
 715 133 748 165 748 230 c 0
 748 292 718 321 641 321 c 2
 603 321 l 1
 603 133 l 1
 649 133 l 2
EndSplineSet
EndChar

StartChar: uni040B
Encoding: 1035 1035 435
Width: 760
Flags: W
LayerCount: 2
Fore
SplineSet
514 476 m 0
 659 476 737 381 737 227 c 2
 737 0 l 1
 552 0 l 1
 552 227 l 2
 552 306 526 342 464 342 c 0
 420 342 390 328 366 306 c 1
 366 0 l 1
 181 0 l 1
 181 558 l 1
 7 558 l 1
 7 695 l 1
 549 695 l 1
 530 558 l 1
 366 558 l 1
 366 424 l 1
 406 457 453 476 514 476 c 0
EndSplineSet
EndChar

StartChar: uni040C
Encoding: 1036 1036 436
Width: 634
Flags: W
LayerCount: 2
Fore
SplineSet
398 970 m 1
 462 839 l 1
 215 750 l 1
 170 840 l 1
 398 970 l 1
626 695 m 1
 461 383 l 1
 644 0 l 1
 444 0 l 1
 305 295 l 1
 239 295 l 1
 239 0 l 1
 54 0 l 1
 54 695 l 1
 239 695 l 1
 239 427 l 1
 309 427 l 1
 446 695 l 1
 626 695 l 1
EndSplineSet
EndChar

StartChar: uni040D
Encoding: 1037 1037 437
Width: 657
Flags: W
LayerCount: 2
Fore
SplineSet
246 970 m 1
 473 840 l 1
 428 750 l 1
 181 839 l 1
 246 970 l 1
603 695 m 1
 603 0 l 1
 422 0 l 1
 422 236 l 2
 422 361 436 451 449 516 c 1
 275 0 l 1
 54 0 l 1
 54 695 l 1
 235 695 l 1
 235 452 l 2
 235 326 221 251 208 182 c 1
 387 695 l 1
 603 695 l 1
EndSplineSet
EndChar

StartChar: uni040E
Encoding: 1038 1038 438
Width: 588
Flags: W
LayerCount: 2
Fore
SplineSet
294 748 m 0
 182 748 124 818 116 913 c 1
 211 929 l 1
 223 887 249 870 294 870 c 0
 340 870 367 887 378 929 c 1
 473 913 l 1
 465 818 407 748 294 748 c 0
609 695 m 1
 429 213 l 2
 365 42 281 -6 115 -18 c 1
 91 104 l 1
 177 112 219 131 251 182 c 1
 194 182 l 1
 -16 695 l 1
 174 695 l 1
 306 284 l 1
 421 695 l 1
 609 695 l 1
EndSplineSet
EndChar

StartChar: uni040F
Encoding: 1039 1039 439
Width: 654
Flags: W
LayerCount: 2
Fore
SplineSet
601 695 m 1
 601 0 l 1
 398 0 l 1
 398 -170 l 1
 273 -170 l 1
 254 0 l 1
 54 0 l 1
 54 695 l 1
 239 695 l 1
 239 143 l 1
 416 143 l 1
 416 695 l 1
 601 695 l 1
EndSplineSet
EndChar

StartChar: uni0410
Encoding: 1040 1040 440
Width: 596
Flags: W
LayerCount: 2
Fore
SplineSet
419 0 m 1
 388 142 l 1
 204 142 l 1
 173 0 l 1
 -19 0 l 1
 187 695 l 1
 409 695 l 1
 615 0 l 1
 419 0 l 1
233 274 m 1
 359 274 l 1
 296 563 l 1
 233 274 l 1
EndSplineSet
EndChar

StartChar: uni0411
Encoding: 1041 1041 441
Width: 601
Flags: W
LayerCount: 2
Fore
SplineSet
308 451 m 2
 484 451 587 378 587 232 c 0
 587 76 472 0 314 0 c 2
 54 0 l 1
 54 695 l 1
 504 695 l 1
 486 556 l 1
 239 556 l 1
 239 451 l 1
 308 451 l 2
293 132 m 2
 360 132 394 166 394 230 c 0
 394 289 364 325 289 325 c 2
 239 325 l 1
 239 132 l 1
 293 132 l 2
EndSplineSet
EndChar

StartChar: uni0412
Encoding: 1042 1042 442
Width: 619
Flags: W
LayerCount: 2
Fore
SplineSet
443 368 m 1
 520 352 599 315 599 204 c 0
 599 43 466 0 288 0 c 2
 54 0 l 1
 54 695 l 1
 261 695 l 2
 451 695 570 649 570 516 c 0
 570 427 506 384 443 368 c 1
278 566 m 2
 239 566 l 1
 239 421 l 1
 287 421 l 2
 352 421 382 444 382 497 c 0
 382 547 351 566 278 566 c 2
289 132 m 2
 359 132 408 146 408 215 c 0
 408 278 367 302 299 302 c 2
 239 302 l 1
 239 132 l 1
 289 132 l 2
EndSplineSet
EndChar

StartChar: uni0413
Encoding: 1043 1043 443
Width: 510
Flags: W
LayerCount: 2
Fore
SplineSet
513 695 m 1
 494 551 l 1
 239 551 l 1
 239 0 l 1
 54 0 l 1
 54 695 l 1
 513 695 l 1
EndSplineSet
EndChar

StartChar: uni0414
Encoding: 1044 1044 444
Width: 636
Flags: W
LayerCount: 2
Fore
SplineSet
569 140 m 1
 632 140 l 1
 632 -170 l 1
 507 -170 l 1
 488 0 l 1
 130 0 l 1
 111 -170 l 1
 -14 -170 l 1
 -14 140 l 1
 38 140 l 1
 75 185 94 258 121 471 c 2
 149 695 l 1
 569 695 l 1
 569 140 l 1
391 140 m 1
 391 561 l 1
 304 561 l 1
 297 491 l 2
 276 278 245 191 183 140 c 1
 391 140 l 1
EndSplineSet
EndChar

StartChar: uni0415
Encoding: 1045 1045 445
Width: 523
Flags: W
LayerCount: 2
Fore
SplineSet
495 695 m 1
 476 564 l 1
 239 564 l 1
 239 416 l 1
 446 416 l 1
 446 289 l 1
 239 289 l 1
 239 131 l 1
 492 131 l 1
 492 0 l 1
 54 0 l 1
 54 695 l 1
 495 695 l 1
EndSplineSet
EndChar

StartChar: uni0416
Encoding: 1046 1046 446
Width: 931
Flags: W
LayerCount: 2
Fore
SplineSet
924 695 m 1
 754 383 l 1
 942 0 l 1
 742 0 l 1
 605 297 l 1
 549 297 l 1
 549 0 l 1
 381 0 l 1
 381 297 l 1
 324 297 l 1
 185 0 l 1
 -11 0 l 1
 177 383 l 1
 7 695 l 1
 187 695 l 1
 329 425 l 1
 381 425 l 1
 381 695 l 1
 549 695 l 1
 549 425 l 1
 601 425 l 1
 746 695 l 1
 924 695 l 1
EndSplineSet
EndChar

StartChar: uni0417
Encoding: 1047 1047 447
Width: 547
Flags: W
LayerCount: 2
Fore
SplineSet
241 -18 m 0
 129 -18 52 17 -6 80 c 1
 91 175 l 1
 134 135 174 115 227 115 c 0
 292 115 333 146 333 207 c 0
 333 265 296 301 218 301 c 2
 143 301 l 1
 164 430 l 1
 221 430 l 2
 283 430 317 459 317 508 c 0
 317 549 294 582 234 582 c 0
 191 582 147 564 100 527 c 1
 16 619 l 1
 81 681 163 713 260 713 c 0
 412 713 506 636 506 529 c 0
 506 452 456 390 346 367 c 1
 460 355 526 298 526 196 c 0
 526 64 410 -18 241 -18 c 0
EndSplineSet
EndChar

StartChar: uni0418
Encoding: 1048 1048 448
Width: 657
Flags: W
LayerCount: 2
Fore
SplineSet
603 695 m 1
 603 0 l 1
 422 0 l 1
 422 236 l 2
 422 361 436 451 449 516 c 1
 275 0 l 1
 54 0 l 1
 54 695 l 1
 235 695 l 1
 235 452 l 2
 235 326 221 251 208 182 c 1
 387 695 l 1
 603 695 l 1
EndSplineSet
EndChar

StartChar: uni0419
Encoding: 1049 1049 449
Width: 657
Flags: W
LayerCount: 2
Fore
SplineSet
328 748 m 0
 216 748 158 818 150 913 c 1
 245 929 l 1
 257 887 283 870 328 870 c 0
 374 870 401 887 412 929 c 1
 507 913 l 1
 499 818 441 748 328 748 c 0
603 695 m 1
 603 0 l 1
 422 0 l 1
 422 236 l 2
 422 361 436 451 449 516 c 1
 275 0 l 1
 54 0 l 1
 54 695 l 1
 235 695 l 1
 235 452 l 2
 235 326 221 251 208 182 c 1
 387 695 l 1
 603 695 l 1
EndSplineSet
EndChar

StartChar: uni041A
Encoding: 1050 1050 450
Width: 634
Flags: W
LayerCount: 2
Fore
SplineSet
626 695 m 1
 461 383 l 1
 644 0 l 1
 444 0 l 1
 305 295 l 1
 239 295 l 1
 239 0 l 1
 54 0 l 1
 54 695 l 1
 239 695 l 1
 239 427 l 1
 309 427 l 1
 446 695 l 1
 626 695 l 1
EndSplineSet
EndChar

StartChar: uni041B
Encoding: 1051 1051 451
Width: 654
Flags: W
LayerCount: 2
Fore
SplineSet
139 695 m 1
 600 695 l 1
 600 0 l 1
 415 0 l 1
 415 556 l 1
 294 556 l 1
 269 341 l 2
 244 122 202 14 42 -18 c 1
 -1 109 l 1
 70 139 79 193 98 353 c 2
 139 695 l 1
EndSplineSet
EndChar

StartChar: uni041C
Encoding: 1052 1052 452
Width: 789
Flags: W
LayerCount: 2
Fore
SplineSet
713 695 m 1
 765 0 l 1
 583 0 l 1
 574 259 l 2
 571 352 569 447 577 543 c 1
 482 72 l 1
 307 72 l 1
 206 543 l 1
 215 434 217 354 214 259 c 2
 206 0 l 1
 24 0 l 1
 75 695 l 1
 305 695 l 1
 398 234 l 1
 482 695 l 1
 713 695 l 1
EndSplineSet
EndChar

StartChar: uni041D
Encoding: 1053 1053 453
Width: 661
Flags: W
LayerCount: 2
Fore
SplineSet
423 0 m 1
 423 289 l 1
 239 289 l 1
 239 0 l 1
 54 0 l 1
 54 695 l 1
 239 695 l 1
 239 432 l 1
 423 432 l 1
 423 695 l 1
 608 695 l 1
 608 0 l 1
 423 0 l 1
EndSplineSet
EndChar

StartChar: uni041E
Encoding: 1054 1054 454
Width: 690
Flags: W
LayerCount: 2
Fore
SplineSet
345 713 m 0
 547 713 664 579 664 348 c 0
 664 122 547 -18 345 -18 c 0
 143 -18 27 117 27 348 c 0
 27 574 143 713 345 713 c 0
345 580 m 0
 260 580 219 516 219 348 c 0
 219 180 261 115 345 115 c 0
 432 115 471 180 471 348 c 0
 471 516 431 580 345 580 c 0
EndSplineSet
EndChar

StartChar: uni041F
Encoding: 1055 1055 455
Width: 660
Flags: W
LayerCount: 2
Fore
SplineSet
607 695 m 1
 607 0 l 1
 422 0 l 1
 422 554 l 1
 239 554 l 1
 239 0 l 1
 54 0 l 1
 54 695 l 1
 607 695 l 1
EndSplineSet
EndChar

StartChar: uni0420
Encoding: 1056 1056 456
Width: 605
Flags: W
LayerCount: 2
Fore
SplineSet
292 695 m 2
 475 695 587 619 587 465 c 0
 587 303 473 224 310 224 c 2
 239 224 l 1
 239 0 l 1
 54 0 l 1
 54 695 l 1
 292 695 l 2
293 356 m 2
 360 356 398 387 398 464 c 0
 398 530 363 565 289 565 c 2
 239 565 l 1
 239 356 l 1
 293 356 l 2
EndSplineSet
EndChar

StartChar: uni0421
Encoding: 1057 1057 457
Width: 579
Flags: W
LayerCount: 2
Fore
SplineSet
350 713 m 0
 441 713 509 684 568 634 c 1
 481 531 l 1
 443 560 406 578 359 578 c 0
 275 578 219 508 219 349 c 0
 219 192 274 122 361 122 c 0
 413 122 452 146 494 179 c 1
 576 75 l 1
 527 26 449 -18 353 -18 c 0
 156 -18 27 110 27 349 c 0
 27 581 162 713 350 713 c 0
EndSplineSet
EndChar

StartChar: uni0422
Encoding: 1058 1058 458
Width: 547
Flags: W
LayerCount: 2
Fore
SplineSet
549 695 m 1
 530 554 l 1
 366 554 l 1
 366 0 l 1
 181 0 l 1
 181 554 l 1
 7 554 l 1
 7 695 l 1
 549 695 l 1
EndSplineSet
EndChar

StartChar: uni0423
Encoding: 1059 1059 459
Width: 588
Flags: W
LayerCount: 2
Fore
SplineSet
609 695 m 1
 429 213 l 2
 365 42 281 -6 115 -18 c 1
 91 104 l 1
 177 112 219 131 251 182 c 1
 194 182 l 1
 -16 695 l 1
 174 695 l 1
 306 284 l 1
 421 695 l 1
 609 695 l 1
EndSplineSet
EndChar

StartChar: uni0424
Encoding: 1060 1060 460
Width: 863
Flags: W
LayerCount: 2
Fore
SplineSet
847 351 m 0
 847 142 714 51 521 42 c 1
 521 -42 l 1
 341 -42 l 1
 341 42 l 1
 148 53 16 141 16 346 c 0
 16 553 148 645 341 654 c 1
 341 734 l 1
 521 734 l 1
 521 654 l 1
 714 645 847 556 847 351 c 0
512 152 m 1
 619 162 660 226 660 351 c 0
 660 474 616 536 512 544 c 1
 512 152 l 1
203 346 m 0
 203 223 247 162 350 152 c 1
 350 544 l 1
 243 534 203 470 203 346 c 0
EndSplineSet
EndChar

StartChar: uni0425
Encoding: 1061 1061 461
Width: 594
Flags: W
LayerCount: 2
Fore
SplineSet
404 374 m 1
 601 0 l 1
 400 0 l 1
 292 251 l 1
 189 0 l 1
 -7 0 l 1
 183 369 l 1
 7 695 l 1
 206 695 l 1
 294 484 l 1
 390 695 l 1
 585 695 l 1
 404 374 l 1
EndSplineSet
EndChar

StartChar: uni0426
Encoding: 1062 1062 462
Width: 693
Flags: W
LayerCount: 2
Fore
SplineSet
601 140 m 1
 681 140 l 1
 681 -170 l 1
 555 -170 l 1
 536 0 l 1
 54 0 l 1
 54 695 l 1
 239 695 l 1
 239 143 l 1
 416 143 l 1
 416 695 l 1
 601 695 l 1
 601 140 l 1
EndSplineSet
EndChar

StartChar: uni0427
Encoding: 1063 1063 463
Width: 621
Flags: W
LayerCount: 2
Fore
SplineSet
382 695 m 1
 567 695 l 1
 567 0 l 1
 382 0 l 1
 382 250 l 1
 340 216 295 199 234 199 c 0
 95 199 16 294 16 446 c 2
 16 695 l 1
 197 695 l 1
 197 447 l 2
 197 367 224 333 288 333 c 0
 332 333 360 345 382 365 c 1
 382 695 l 1
EndSplineSet
EndChar

StartChar: uni0428
Encoding: 1064 1064 464
Width: 905
Flags: W
LayerCount: 2
Fore
SplineSet
851 695 m 1
 851 0 l 1
 54 0 l 1
 54 695 l 1
 235 695 l 1
 235 143 l 1
 366 143 l 1
 366 695 l 1
 539 695 l 1
 539 143 l 1
 670 143 l 1
 670 695 l 1
 851 695 l 1
EndSplineSet
EndChar

StartChar: uni0429
Encoding: 1065 1065 465
Width: 943
Flags: W
LayerCount: 2
Fore
SplineSet
851 140 m 1
 931 140 l 1
 931 -170 l 1
 806 -170 l 1
 787 0 l 1
 54 0 l 1
 54 695 l 1
 235 695 l 1
 235 143 l 1
 366 143 l 1
 366 695 l 1
 539 695 l 1
 539 143 l 1
 670 143 l 1
 670 695 l 1
 851 695 l 1
 851 140 l 1
EndSplineSet
EndChar

StartChar: uni042A
Encoding: 1066 1066 466
Width: 727
Flags: W
LayerCount: 2
Fore
SplineSet
435 463 m 2
 612 463 714 390 714 238 c 0
 714 76 599 0 441 0 c 2
 181 0 l 1
 181 558 l 1
 7 558 l 1
 7 695 l 1
 366 695 l 1
 366 463 l 1
 435 463 l 2
420 132 m 2
 487 132 522 166 522 236 c 0
 522 301 491 337 417 337 c 2
 366 337 l 1
 366 132 l 1
 420 132 l 2
EndSplineSet
EndChar

StartChar: uni042B
Encoding: 1067 1067 467
Width: 860
Flags: W
LayerCount: 2
Fore
SplineSet
297 463 m 2
 474 463 577 390 577 238 c 0
 577 76 462 0 304 0 c 2
 54 0 l 1
 54 695 l 1
 239 695 l 1
 239 463 l 1
 297 463 l 2
621 695 m 1
 806 695 l 1
 806 0 l 1
 621 0 l 1
 621 695 l 1
283 132 m 2
 350 132 384 166 384 236 c 0
 384 301 354 337 279 337 c 2
 239 337 l 1
 239 132 l 1
 283 132 l 2
EndSplineSet
EndChar

StartChar: uni042C
Encoding: 1068 1068 468
Width: 600
Flags: W
LayerCount: 2
Fore
SplineSet
308 463 m 2
 484 463 587 390 587 238 c 0
 587 76 472 0 314 0 c 2
 54 0 l 1
 54 695 l 1
 239 695 l 1
 239 463 l 1
 308 463 l 2
293 132 m 2
 360 132 394 166 394 236 c 0
 394 301 364 337 289 337 c 2
 239 337 l 1
 239 132 l 1
 293 132 l 2
EndSplineSet
EndChar

StartChar: uni042D
Encoding: 1069 1069 469
Width: 543
Flags: W
LayerCount: 2
Fore
SplineSet
233 713 m 0
 409 713 516 594 516 357 c 0
 516 110 402 -18 220 -18 c 0
 122 -18 57 13 4 64 c 1
 85 164 l 1
 122 134 156 117 205 117 c 0
 282 117 324 173 329 292 c 1
 105 292 l 1
 105 418 l 1
 329 418 l 1
 321 535 282 581 217 581 c 0
 168 581 136 564 97 531 c 1
 10 632 l 1
 69 683 131 713 233 713 c 0
EndSplineSet
EndChar

StartChar: uni042E
Encoding: 1070 1070 470
Width: 941
Flags: W
LayerCount: 2
Fore
SplineSet
606 713 m 0
 804 713 915 579 915 348 c 0
 915 122 804 -18 606 -18 c 0
 424 -18 326 96 309 288 c 1
 239 288 l 1
 239 0 l 1
 54 0 l 1
 54 695 l 1
 239 695 l 1
 239 431 l 1
 312 431 l 1
 340 610 435 713 606 713 c 0
606 115 m 0
 686 115 722 180 722 348 c 0
 722 516 685 580 606 580 c 0
 528 580 490 516 490 347 c 0
 490 180 528 115 606 115 c 0
EndSplineSet
EndChar

StartChar: uni042F
Encoding: 1071 1071 471
Width: 608
Flags: W
LayerCount: 2
Fore
SplineSet
313 695 m 2
 555 695 l 1
 555 0 l 1
 370 0 l 1
 370 243 l 1
 305 243 l 1
 196 0 l 1
 -7 0 l 1
 142 276 l 1
 65 310 23 369 23 469 c 0
 23 621 121 695 313 695 c 2
311 370 m 2
 370 370 l 1
 370 566 l 1
 323 566 l 2
 252 566 216 530 216 464 c 0
 216 401 255 370 311 370 c 2
EndSplineSet
EndChar

StartChar: uni0430
Encoding: 1072 1072 472
Width: 549
Flags: W
LayerCount: 2
Fore
SplineSet
493 164 m 2
 493 124 503 109 527 100 c 1
 491 -15 l 1
 425 -10 382 9 355 60 c 1
 316 2 256 -18 194 -18 c 0
 88 -18 20 51 20 149 c 0
 20 266 109 331 273 331 c 2
 319 331 l 1
 319 349 l 2
 319 407 297 423 236 423 c 0
 203 423 150 413 97 395 c 1
 58 510 l 1
 124 537 203 551 263 551 c 0
 425 551 493 486 493 358 c 2
 493 164 l 2
248 107 m 0
 278 107 303 124 319 149 c 1
 319 236 l 1
 289 236 l 2
 225 236 195 213 195 166 c 0
 195 130 214 107 248 107 c 0
EndSplineSet
EndChar

StartChar: uni0431
Encoding: 1073 1073 473
Width: 573
Flags: W
LayerCount: 2
Fore
SplineSet
352 495 m 0
 461 495 552 408 552 247 c 0
 552 85 450 -18 292 -18 c 0
 135 -18 29 77 29 300 c 0
 29 524 79 631 254 685 c 0
 340 711 373 728 434 762 c 1
 496 651 l 1
 446 618 400 600 322 576 c 0
 241 551 208 517 196 415 c 1
 233 466 280 495 352 495 c 0
290 111 m 0
 337 111 368 140 368 242 c 0
 368 342 343 365 299 365 c 0
 265 365 233 348 212 309 c 1
 212 240 l 2
 212 146 243 111 290 111 c 0
EndSplineSet
EndChar

StartChar: uni0432
Encoding: 1074 1074 474
Width: 554
Flags: W
LayerCount: 2
Fore
SplineSet
393 293 m 1
 488 282 529 235 529 161 c 0
 529 49 429 0 287 0 c 2
 51 0 l 1
 51 527 l 1
 134 542 202 551 272 551 c 0
 416 551 506 504 506 407 c 0
 506 347 468 307 393 293 c 1
268 441 m 0
 255 441 245 441 229 439 c 1
 229 326 l 1
 272 326 l 2
 309 326 332 345 332 384 c 0
 332 421 311 441 268 441 c 0
280 113 m 2
 323 113 347 134 347 178 c 0
 347 217 327 239 281 239 c 2
 229 239 l 1
 229 113 l 1
 280 113 l 2
EndSplineSet
EndChar

StartChar: uni0433
Encoding: 1075 1075 475
Width: 434
Flags: W
LayerCount: 2
Fore
SplineSet
229 0 m 1
 51 0 l 1
 51 533 l 1
 441 533 l 1
 420 399 l 1
 229 399 l 1
 229 0 l 1
EndSplineSet
EndChar

StartChar: uni0434
Encoding: 1076 1076 476
Width: 554
Flags: W
LayerCount: 2
Fore
SplineSet
498 129 m 1
 555 129 l 1
 555 -170 l 1
 435 -170 l 1
 416 0 l 1
 139 0 l 1
 120 -170 l 1
 0 -170 l 1
 0 129 l 1
 32 129 l 1
 61 150 80 183 95 357 c 2
 109 533 l 1
 498 533 l 1
 498 129 l 1
333 129 m 1
 333 418 l 1
 261 418 l 1
 257 372 l 2
 243 220 218 159 161 129 c 1
 333 129 l 1
EndSplineSet
EndChar

StartChar: uni0435
Encoding: 1077 1077 477
Width: 557
Flags: W
LayerCount: 2
Fore
SplineSet
535 275 m 0
 535 258 533 233 532 215 c 1
 205 215 l 1
 216 129 257 109 319 109 c 0
 360 109 397 124 443 156 c 1
 515 58 l 1
 463 15 391 -18 302 -18 c 0
 115 -18 25 99 25 264 c 0
 25 422 112 551 282 551 c 0
 437 551 535 451 535 275 c 0
360 319 m 1
 360 325 l 2
 359 389 342 436 285 436 c 0
 238 436 212 407 205 319 c 1
 360 319 l 1
EndSplineSet
EndChar

StartChar: uni0436
Encoding: 1078 1078 478
Width: 771
Flags: W
LayerCount: 2
Fore
SplineSet
760 533 m 1
 641 285 l 1
 771 0 l 1
 592 0 l 1
 503 223 l 1
 462 223 l 1
 462 0 l 1
 309 0 l 1
 309 223 l 1
 268 223 l 1
 179 0 l 1
 1 0 l 1
 130 285 l 1
 11 533 l 1
 177 533 l 1
 265 326 l 1
 309 326 l 1
 309 533 l 1
 462 533 l 1
 462 326 l 1
 506 326 l 1
 596 533 l 1
 760 533 l 1
EndSplineSet
EndChar

StartChar: uni0437
Encoding: 1079 1079 479
Width: 494
Flags: W
LayerCount: 2
Fore
SplineSet
233 551 m 0
 353 551 447 496 447 403 c 0
 447 342 406 303 327 284 c 1
 422 270 472 231 472 153 c 0
 472 38 369 -18 220 -18 c 0
 128 -18 56 3 -1 45 c 1
 82 143 l 1
 130 114 166 106 213 106 c 0
 264 106 289 125 289 163 c 0
 289 199 264 217 212 217 c 2
 125 217 l 1
 135 328 l 1
 199 328 l 2
 245 328 267 347 267 382 c 0
 267 415 244 430 207 430 c 0
 163 430 131 418 96 396 c 1
 15 489 l 1
 75 530 144 551 233 551 c 0
EndSplineSet
EndChar

StartChar: uni0438
Encoding: 1080 1080 480
Width: 587
Flags: W
LayerCount: 2
Fore
SplineSet
535 533 m 1
 535 0 l 1
 367 0 l 1
 367 175 l 2
 367 252 379 319 392 365 c 1
 228 0 l 1
 51 0 l 1
 51 533 l 1
 220 533 l 1
 220 355 l 2
 220 280 209 212 196 165 c 1
 358 533 l 1
 535 533 l 1
EndSplineSet
EndChar

StartChar: uni0439
Encoding: 1081 1081 481
Width: 587
Flags: W
LayerCount: 2
Fore
SplineSet
293 629 m 0
 181 629 123 699 115 794 c 1
 210 810 l 1
 222 768 248 751 293 751 c 0
 339 751 366 768 377 810 c 1
 472 794 l 1
 464 699 406 629 293 629 c 0
535 533 m 1
 535 0 l 1
 367 0 l 1
 367 175 l 2
 367 252 379 319 392 365 c 1
 228 0 l 1
 51 0 l 1
 51 533 l 1
 220 533 l 1
 220 355 l 2
 220 280 209 212 196 165 c 1
 358 533 l 1
 535 533 l 1
EndSplineSet
EndChar

StartChar: uni043A
Encoding: 1082 1082 482
Width: 558
Flags: W
LayerCount: 2
Fore
SplineSet
553 533 m 1
 418 285 l 1
 563 0 l 1
 378 0 l 1
 272 224 l 1
 229 224 l 1
 229 0 l 1
 51 0 l 1
 51 533 l 1
 229 533 l 1
 229 326 l 1
 277 326 l 1
 385 533 l 1
 553 533 l 1
EndSplineSet
EndChar

StartChar: uni043B
Encoding: 1083 1083 483
Width: 568
Flags: W
LayerCount: 2
Fore
SplineSet
100 533 m 1
 517 533 l 1
 517 0 l 1
 339 0 l 1
 339 404 l 1
 256 404 l 1
 248 309 l 2
 228 97 211 21 50 -13 c 1
 7 115 l 1
 67 143 74 157 85 317 c 2
 100 533 l 1
EndSplineSet
EndChar

StartChar: uni043C
Encoding: 1084 1084 484
Width: 672
Flags: W
LayerCount: 2
Fore
SplineSet
607 533 m 1
 652 0 l 1
 484 0 l 1
 477 172 l 2
 473 243 475 302 482 379 c 1
 407 52 l 1
 262 52 l 1
 187 379 l 1
 196 306 196 244 193 172 c 2
 186 0 l 1
 19 0 l 1
 64 533 l 1
 271 533 l 1
 335 200 l 1
 398 533 l 1
 607 533 l 1
EndSplineSet
EndChar

StartChar: uni043D
Encoding: 1085 1085 485
Width: 583
Flags: W
LayerCount: 2
Fore
SplineSet
354 0 m 1
 354 205 l 1
 229 205 l 1
 229 0 l 1
 51 0 l 1
 51 533 l 1
 229 533 l 1
 229 334 l 1
 354 334 l 1
 354 533 l 1
 532 533 l 1
 532 0 l 1
 354 0 l 1
EndSplineSet
EndChar

StartChar: uni043E
Encoding: 1086 1086 486
Width: 584
Flags: W
LayerCount: 2
Fore
SplineSet
292 551 m 0
 457 551 559 448 559 266 c 0
 559 94 458 -18 292 -18 c 0
 127 -18 25 85 25 267 c 0
 25 439 126 551 292 551 c 0
292 422 m 0
 235 422 208 375 208 267 c 0
 208 155 235 111 292 111 c 0
 349 111 376 158 376 266 c 0
 376 377 349 422 292 422 c 0
EndSplineSet
EndChar

StartChar: uni043F
Encoding: 1087 1087 487
Width: 579
Flags: W
LayerCount: 2
Fore
SplineSet
350 0 m 1
 350 403 l 1
 229 403 l 1
 229 0 l 1
 51 0 l 1
 51 533 l 1
 528 533 l 1
 528 0 l 1
 350 0 l 1
EndSplineSet
EndChar

StartChar: uni0440
Encoding: 1088 1088 488
Width: 592
Flags: W
LayerCount: 2
Fore
SplineSet
369 551 m 0
 505 551 568 442 568 268 c 0
 568 103 486 -18 356 -18 c 0
 305 -18 261 0 229 37 c 1
 229 -206 l 1
 51 -224 l 1
 51 533 l 1
 209 533 l 1
 217 476 l 1
 261 532 319 551 369 551 c 0
299 110 m 0
 351 110 385 152 385 266 c 0
 385 396 354 422 310 422 c 0
 279 422 251 403 229 366 c 1
 229 153 l 1
 249 123 270 110 299 110 c 0
EndSplineSet
EndChar

StartChar: uni0441
Encoding: 1089 1089 489
Width: 479
Flags: W
LayerCount: 2
Fore
SplineSet
293 551 m 0
 372 551 431 527 481 483 c 1
 406 379 l 1
 374 405 343 416 309 416 c 0
 246 416 210 376 210 263 c 0
 210 150 250 120 307 120 c 0
 342 120 367 132 404 155 c 1
 481 46 l 1
 433 6 374 -18 298 -18 c 0
 128 -18 25 95 25 262 c 0
 25 431 129 551 293 551 c 0
EndSplineSet
EndChar

StartChar: uni0442
Encoding: 1090 1090 490
Width: 479
Flags: W
LayerCount: 2
Fore
SplineSet
487 533 m 1
 464 403 l 1
 329 403 l 1
 329 0 l 1
 151 0 l 1
 151 403 l 1
 1 403 l 1
 1 533 l 1
 487 533 l 1
EndSplineSet
EndChar

StartChar: uni0443
Encoding: 1091 1091 491
Width: 526
Flags: W
LayerCount: 2
Fore
SplineSet
536 533 m 1
 370 0 l 2
 327 -141 227 -218 55 -225 c 1
 36 -102 l 1
 139 -91 179 -64 207 0 c 1
 146 0 l 1
 -10 533 l 1
 179 533 l 1
 260 111 l 1
 353 533 l 1
 536 533 l 1
EndSplineSet
EndChar

StartChar: uni0444
Encoding: 1092 1092 492
Width: 834
Flags: W
LayerCount: 2
Fore
SplineSet
626 551 m 0
 754 551 810 444 810 266 c 0
 810 90 734 -18 620 -18 c 0
 572 -18 532 0 501 36 c 1
 501 -206 l 1
 334 -224 l 1
 334 37 l 1
 303 1 262 -18 213 -18 c 0
 100 -18 25 90 25 266 c 0
 25 444 90 551 216 551 c 0
 260 551 299 537 334 500 c 1
 334 761 l 1
 501 743 l 1
 501 499 l 1
 537 537 580 551 626 551 c 0
270 108 m 0
 296 108 314 120 334 147 c 1
 334 384 l 1
 315 410 296 425 269 425 c 0
 227 425 204 387 204 266 c 0
 204 147 229 108 270 108 c 0
565 108 m 0
 606 108 631 147 631 266 c 0
 631 387 611 425 568 425 c 0
 541 425 522 410 501 385 c 1
 501 146 l 1
 521 120 537 108 565 108 c 0
EndSplineSet
EndChar

StartChar: uni0445
Encoding: 1093 1093 493
Width: 520
Flags: W
LayerCount: 2
Fore
SplineSet
367 285 m 1
 535 0 l 1
 335 0 l 1
 254 191 l 1
 177 0 l 1
 -15 0 l 1
 152 280 l 1
 0 533 l 1
 198 533 l 1
 261 369 l 1
 320 533 l 1
 508 533 l 1
 367 285 l 1
EndSplineSet
EndChar

StartChar: uni0446
Encoding: 1094 1094 494
Width: 597
Flags: W
LayerCount: 2
Fore
SplineSet
522 129 m 1
 602 129 l 1
 602 -170 l 1
 483 -170 l 1
 464 0 l 1
 51 0 l 1
 51 533 l 1
 229 533 l 1
 229 129 l 1
 344 129 l 1
 344 533 l 1
 522 533 l 1
 522 129 l 1
EndSplineSet
EndChar

StartChar: uni0447
Encoding: 1095 1095 495
Width: 550
Flags: W
LayerCount: 2
Fore
SplineSet
320 533 m 1
 498 533 l 1
 498 0 l 1
 320 0 l 1
 320 192 l 1
 283 163 231 144 176 144 c 0
 69 144 23 210 23 312 c 2
 23 533 l 1
 201 533 l 1
 201 335 l 2
 201 288 218 275 246 275 c 0
 273 275 301 286 320 301 c 1
 320 533 l 1
EndSplineSet
EndChar

StartChar: uni0448
Encoding: 1096 1096 496
Width: 776
Flags: W
LayerCount: 2
Fore
SplineSet
725 533 m 1
 725 0 l 1
 51 0 l 1
 51 533 l 1
 221 533 l 1
 221 129 l 1
 314 129 l 1
 314 533 l 1
 463 533 l 1
 463 129 l 1
 555 129 l 1
 555 533 l 1
 725 533 l 1
EndSplineSet
EndChar

StartChar: uni0449
Encoding: 1097 1097 497
Width: 800
Flags: W
LayerCount: 2
Fore
SplineSet
725 129 m 1
 805 129 l 1
 805 -170 l 1
 686 -170 l 1
 667 0 l 1
 51 0 l 1
 51 533 l 1
 221 533 l 1
 221 129 l 1
 314 129 l 1
 314 533 l 1
 463 533 l 1
 463 129 l 1
 555 129 l 1
 555 533 l 1
 725 533 l 1
 725 129 l 1
EndSplineSet
EndChar

StartChar: uni044A
Encoding: 1098 1098 498
Width: 622
Flags: W
LayerCount: 2
Fore
SplineSet
356 368 m 2
 535 368 611 305 611 183 c 0
 611 62 517 0 381 0 c 2
 150 0 l 1
 150 407 l 1
 1 407 l 1
 1 533 l 1
 329 533 l 1
 328 532 l 1
 328 368 l 1
 356 368 l 2
362 113 m 2
 408 113 432 139 432 186 c 0
 432 233 411 258 353 258 c 2
 328 258 l 1
 328 113 l 1
 362 113 l 2
EndSplineSet
EndChar

StartChar: uni044B
Encoding: 1099 1099 499
Width: 769
Flags: W
LayerCount: 2
Fore
SplineSet
247 368 m 2
 426 368 503 305 503 183 c 0
 503 62 409 0 272 0 c 2
 51 0 l 1
 51 533 l 1
 229 533 l 1
 229 368 l 1
 247 368 l 2
539 533 m 1
 717 533 l 1
 717 0 l 1
 539 0 l 1
 539 533 l 1
253 113 m 2
 299 113 323 139 323 186 c 0
 323 233 303 258 245 258 c 2
 229 258 l 1
 229 113 l 1
 253 113 l 2
EndSplineSet
EndChar

StartChar: uni044C
Encoding: 1100 1100 500
Width: 524
Flags: W
LayerCount: 2
Fore
SplineSet
257 368 m 2
 436 368 513 305 513 183 c 0
 513 62 419 0 282 0 c 2
 51 0 l 1
 51 533 l 1
 229 533 l 1
 229 368 l 1
 257 368 l 2
263 113 m 2
 309 113 333 139 333 186 c 0
 333 233 313 258 255 258 c 2
 229 258 l 1
 229 113 l 1
 263 113 l 2
EndSplineSet
EndChar

StartChar: uni044D
Encoding: 1101 1101 501
Width: 486
Flags: W
LayerCount: 2
Fore
SplineSet
212 551 m 0
 363 551 462 458 462 272 c 0
 462 96 366 -18 191 -18 c 0
 115 -18 58 4 6 42 c 1
 80 142 l 1
 118 118 146 109 183 109 c 0
 233 109 276 137 283 222 c 1
 100 222 l 1
 100 320 l 1
 282 320 l 1
 277 398 244 424 197 424 c 0
 160 424 129 414 93 390 c 1
 18 487 l 1
 69 528 132 551 212 551 c 0
EndSplineSet
EndChar

StartChar: uni044E
Encoding: 1102 1102 502
Width: 813
Flags: W
LayerCount: 2
Fore
SplineSet
537 551 m 0
 685 551 788 450 788 266 c 0
 788 96 688 -18 537 -18 c 0
 398 -18 313 65 291 210 c 1
 229 210 l 1
 229 0 l 1
 51 0 l 1
 51 533 l 1
 229 533 l 1
 229 330 l 1
 293 330 l 1
 317 465 400 551 537 551 c 0
537 111 m 0
 589 111 609 160 609 266 c 0
 609 376 587 422 537 422 c 0
 487 422 465 375 465 267 c 0
 465 157 486 111 537 111 c 0
EndSplineSet
EndChar

StartChar: uni044F
Encoding: 1103 1103 503
Width: 558
Flags: W
LayerCount: 2
Fore
SplineSet
295 533 m 2
 506 533 l 1
 506 0 l 1
 328 0 l 1
 328 180 l 1
 275 180 l 1
 183 0 l 1
 -6 0 l 1
 116 222 l 1
 68 248 37 293 37 355 c 0
 37 473 126 533 295 533 c 2
291 281 m 2
 328 281 l 1
 328 422 l 1
 294 422 l 2
 242 422 218 394 218 354 c 0
 218 311 240 281 291 281 c 2
EndSplineSet
EndChar

StartChar: uni0450
Encoding: 1104 1104 504
Width: 557
Flags: W
LayerCount: 2
Fore
SplineSet
216 846 m 1
 440 707 l 1
 392 618 l 1
 148 714 l 1
 216 846 l 1
535 275 m 0
 535 258 533 233 532 215 c 1
 205 215 l 1
 216 129 257 109 319 109 c 0
 360 109 397 124 443 156 c 1
 515 58 l 1
 463 15 391 -18 302 -18 c 0
 115 -18 25 99 25 264 c 0
 25 422 112 551 282 551 c 0
 437 551 535 451 535 275 c 0
360 319 m 1
 360 325 l 2
 359 389 342 436 285 436 c 0
 238 436 212 407 205 319 c 1
 360 319 l 1
EndSplineSet
EndChar

StartChar: uni0451
Encoding: 1105 1105 505
Width: 557
Flags: W
LayerCount: 2
Fore
SplineSet
164 809 m 0
 214 809 252 771 252 723 c 0
 252 675 214 637 164 637 c 0
 116 637 76 675 76 723 c 0
 76 771 116 809 164 809 c 0
402 809 m 0
 452 809 490 771 490 723 c 0
 490 675 452 637 402 637 c 0
 354 637 314 675 314 723 c 0
 314 771 354 809 402 809 c 0
535 275 m 0
 535 258 533 233 532 215 c 1
 205 215 l 1
 216 129 257 109 319 109 c 0
 360 109 397 124 443 156 c 1
 515 58 l 1
 463 15 391 -18 302 -18 c 0
 115 -18 25 99 25 264 c 0
 25 422 112 551 282 551 c 0
 437 551 535 451 535 275 c 0
360 319 m 1
 360 325 l 2
 359 389 342 436 285 436 c 0
 238 436 212 407 205 319 c 1
 360 319 l 1
EndSplineSet
EndChar

StartChar: uni0452
Encoding: 1106 1106 506
Width: 581
Flags: W
LayerCount: 2
Fore
SplineSet
391 551 m 0
 481 551 536 492 536 391 c 2
 536 69 l 2
 536 -112 437 -180 308 -224 c 1
 248 -95 l 1
 316 -64 358 -34 358 58 c 2
 358 359 l 2
 358 408 342 421 318 421 c 0
 290 421 264 400 239 360 c 1
 239 0 l 1
 61 0 l 1
 61 593 l 1
 4 593 l 1
 4 692 l 1
 61 692 l 1
 61 743 l 1
 239 761 l 1
 239 692 l 1
 370 692 l 1
 370 593 l 1
 239 593 l 1
 239 481 l 1
 283 529 330 551 391 551 c 0
EndSplineSet
EndChar

StartChar: uni0453
Encoding: 1107 1107 507
Width: 434
Flags: W
LayerCount: 2
Fore
SplineSet
316 846 m 1
 384 714 l 1
 140 618 l 1
 92 707 l 1
 316 846 l 1
229 0 m 1
 51 0 l 1
 51 533 l 1
 441 533 l 1
 420 399 l 1
 229 399 l 1
 229 0 l 1
EndSplineSet
EndChar

